{
.appVersion = "3086";
copyright = "Copyright 2021 The Mekorot Project Authors (https://github.com/googlefonts/mekorot)";
customParameters = (
{
name = fsType;
value = (
);
},
{
name = "Disable Last Change";
value = 1;
},
{
name = "Use Typo Metrics";
value = 1;
},
{
name = "Use Line Breaks";
value = 1;
},
{
name = "Axis Mappings";
value = {
wght = {
400 = 90;
500 = 115;
600 = 135;
700 = 150;
};
};
},
{
name = "Variable Font Origin";
value = m01;
},
{
name = "Enforce Compatibility Check";
value = 0;
},
{
name = licenseURL;
value = "https://scripts.sil.org/OFL";
},
{
name = license;
value = "This Font Software is licensed under the SIL Open Font License, Version 1.1. This license is available with a FAQ at: https://scripts.sil.org/OFL";
},
{
name = Axes;
value = (
{
Name = Weight;
Tag = wght;
}
);
},
{
name = note;
value = "https://github.com/googlefonts/mekorot";
}
);
date = "2021-07-16 04:59:07 +0000";
designer = "Dr. Alan Hoenig";
designerURL = "https://ctan.org/tex-archive/language/hebrew/makor/";
disablesNiceNames = 1;
familyName = Mekorot;
fontMaster = (
{
alignmentZones = (
"{890, 10}",
"{740, 10}",
"{660, 10}",
"{560, 11}",
"{530, 10}",
"{450, 10}",
"{0, -10}",
"{-230, -10}"
);
ascender = 760;
capHeight = 660;
customParameters = (
{
name = hheaAscender;
value = 900;
},
{
name = hheaDescender;
value = -300;
},
{
name = hheaLineGap;
value = 0;
},
{
name = typoAscender;
value = 900;
},
{
name = typoDescender;
value = -300;
},
{
name = typoLineGap;
value = 0;
},
{
name = winAscent;
value = 1200;
},
{
name = winDescent;
value = 300;
},
{
name = underlinePosition;
value = -120;
},
{
name = underlineThickness;
value = 50;
},
{
name = strikeoutPosition;
value = 260;
},
{
name = strikeoutSize;
value = 50;
},
{
name = "Master Icon Glyph Name";
value = m;
}
);
descender = -240;
horizontalStems = (
55,
46
);
id = m01;
verticalStems = (
90,
80
);
weightValue = 90;
xHeight = 450;
},
{
alignmentZones = (
"{890, 10}",
"{740, 10}",
"{660, 10}",
"{560, 11}",
"{530, 10}",

glyphs = (
{
color = 5;
glyphname = A;
layers = (
{
anchors = (
{
name = bottom;
position = "{376, 0}";
},
{
name = right;
position = "{614, 0}";
},
{
name = top;
position = "{376, 710}";
}
);
layerId = m01;
paths = (
{
closed = 1;
nodes = (
"239 0 LINE SMOOTH",
"245 0 OFFCURVE",
"249 4 OFFCURVE",
"249 10 CURVE SMOOTH",
"249 25 OFFCURVE",
"172 40 OFFCURVE",
"172 58 CURVE SMOOTH",
"172 70 OFFCURVE",
"176 77 OFFCURVE",
"184 97 CURVE SMOOTH",
"235 225 LINE SMOOTH",
"237 231 OFFCURVE",
"243 235 OFFCURVE",
"251 235 CURVE SMOOTH",
"470 235 LINE SMOOTH",
"478 235 OFFCURVE",
"484 230 OFFCURVE",
"486 225 CURVE SMOOTH",
"538 97 LINE SMOOTH",
"546 77 OFFCURVE",
"549 69 OFFCURVE",
"549 62 CURVE SMOOTH",
"549 39 OFFCURVE",
"469 25 OFFCURVE",
"469 10 CURVE SMOOTH",
"469 4 OFFCURVE",
"473 0 OFFCURVE",
"479 0 CURVE SMOOTH",
"707 0 LINE SMOOTH",
"714 0 OFFCURVE",
"717 4 OFFCURVE",
"717 10 CURVE SMOOTH",
"717 24 OFFCURVE",
"656 38 OFFCURVE",
"643 69 CURVE SMOOTH",
"403 653 LINE SMOOTH",
"400 661 OFFCURVE",
"394 665 OFFCURVE",
"386 665 CURVE SMOOTH",
"363 665 LINE SMOOTH",
"356 665 OFFCURVE",
"351 660 OFFCURVE",
"348 653 CURVE SMOOTH",
"104 66 LINE SMOOTH",
"92 37 OFFCURVE",
"33 25 OFFCURVE",
"33 10 CURVE SMOOTH",
"33 4 OFFCURVE",
"37 0 OFFCURVE",
"43 0 CURVE SMOOTH"
);
},
{
closed = 1;
nodes = (
"268 290 OFFCURVE",
"264 295 OFFCURVE",
"266 300 CURVE SMOOTH",
"353 516 LINE SMOOTH",
"355 521 OFFCURVE",
"357 524 OFFCURVE",
"361 524 CURVE SMOOTH",
"365 524 OFFCURVE",
"367 521 OFFCURVE",
"369 516 CURVE SMOOTH",
"456 300 LINE SMOOTH",
"458 295 OFFCURVE",
"454 290 OFFCURVE",
"448 290 CURVE SMOOTH",
"274 290 LINE SMOOTH"
);
}
);
width = 750;
},
{
anchors = (
{
name = bottom;
position = "{339, 0}";
},
{
name = right;
position = "{650, 0}";
},
{
name = top;
position = "{392, 710}";
}
);
layerId = m002;
paths = (
{
closed = 1;
nodes = (
"212 0 LINE SMOOTH",
"223 0 OFFCURVE",
"228 5 OFFCURVE",
"228 14 CURVE SMOOTH",
"228 32 OFFCURVE",
"170 31 OFFCURVE",
"154 49 CURVE SMOOTH",
"150 53 OFFCURVE",
"150 63 OFFCURVE",
"152 69 CURVE SMOOTH",
"201 188 LINE SMOOTH",
"208 204 OFFCURVE",
"218 207 OFFCURVE",
"238 207 CURVE SMOOTH",
"415 207 LINE SMOOTH",
"435 207 OFFCURVE",
"444 201 OFFCURVE",
"450 187 CURVE SMOOTH",
"497 77 LINE SMOOTH",
"500 69 OFFCURVE",
"499 63 OFFCURVE",
"495 58 CURVE SMOOTH",
"478 37 OFFCURVE",
"419 33 OFFCURVE",
"419 12 CURVE SMOOTH",
"419 5 OFFCURVE",
"422 0 OFFCURVE",
"434 0 CURVE SMOOTH",
"762 0 LINE SMOOTH",
"774 0 OFFCURVE",
"780 5 OFFCURVE",
"780 12 CURVE SMOOTH",
"780 36 OFFCURVE",
"720 31 OFFCURVE",
"702 73 CURVE SMOOTH",
"465 629 LINE SMOOTH",
"451 661 OFFCURVE",
"443 664 OFFCURVE",
"419 664 CURVE SMOOTH",
"361 664 LINE SMOOTH",
"342 664 OFFCURVE",
"328 653 OFFCURVE",
"318 629 CURVE SMOOTH",
"75 66 LINE SMOOTH",
"60 31 OFFCURVE",
"10 32 OFFCURVE",
"10 14 CURVE SMOOTH",
"10 8 OFFCURVE",
"12 0 OFFCURVE",
"23 0 CURVE SMOOTH"
);
},
{
closed = 1;
nodes = (
"240 262 OFFCURVE",
"236 272 OFFCURVE",
"241 284 CURVE SMOOTH",
"313 455 LINE SMOOTH",
"317 464 OFFCURVE",
"321 468 OFFCURVE",
"325 468 CURVE SMOOTH",
"329 468 OFFCURVE",
"333 463 OFFCURVE",
"339 450 CURVE SMOOTH",
"410 284 LINE SMOOTH",
"416 271 OFFCURVE",
"411 262 OFFCURVE",
"396 262 CURVE SMOOTH",
"253 262 LINE SMOOTH"
);
}
);
width = 790;
},
{
anchors = (
{
name = bottom;
position = "{376, 0}";
},
{
name = right;
position = "{614, 0}";
},
{
name = top;
position = "{376, 710}";
}
);
associatedMasterId = m01;
layerId = "5E0F49AF-6F15-4AB5-86AB-424FB0D7332B";
name = "Sep 4, 21, 17:13";
paths = (
{
closed = 1;
nodes = (
"249 0 LINE",
"249 16 LINE",
"152 55 LINE",
"156 28 LINE",
"386 599 LINE",
"335 599 LINE",
"566 28 LINE",
"578 58 LINE",
"469 16 LINE",
"469 0 LINE",
"717 0 LINE",
"717 16 LINE",
"610 73 LINE",
"660 28 LINE",
"398 665 LINE",
"353 665 LINE",
"88 28 LINE",
"119 61 LINE",
"33 16 LINE",
"33 0 LINE"
);
},
{
closed = 1;
nodes = (
"524 235 LINE",
"524 290 LINE",
"204 290 LINE",
"204 235 LINE"
);
}
);
visible = 1;
width = 750;
}
);
leftKerningGroup = kern_A3;
rightKerningGroup = kern_A3;
unicode = 0041;
},
{
color = 5;
glyphname = B;
layers = (
{
layerId = m01;
paths = (
{
closed = 1;
nodes = (
"341 0 LINE SMOOTH",
"493 0 OFFCURVE",
"606 82 OFFCURVE",
"606 192 CURVE SMOOTH",
"606 276 OFFCURVE",
"547 331 OFFCURVE",
"459 350 CURVE SMOOTH",
"445 353 OFFCURVE",
"434 355 OFFCURVE",
"434 360 CURVE SMOOTH",
"434 363 OFFCURVE",
"442 366 OFFCURVE",
"448 369 CURVE SMOOTH",
"516 400 OFFCURVE",
"549 449 OFFCURVE",
"549 512 CURVE SMOOTH",
"549 611 OFFCURVE",
"451 660 OFFCURVE",
"318 660 CURVE SMOOTH",
"75 660 LINE SMOOTH",
"68 660 OFFCURVE",
"65 660 OFFCURVE",
"65 652 CURVE SMOOTH",
"65 629 OFFCURVE",
"145 621 OFFCURVE",
"145 579 CURVE SMOOTH",
"145 391 OFFCURVE",
"145 249 OFFCURVE",
"145 66 CURVE SMOOTH",
"145 46 OFFCURVE",
"65 25 OFFCURVE",
"65 10 CURVE SMOOTH",
"65 5 OFFCURVE",
"69 0 OFFCURVE",
"75 0 CURVE SMOOTH"
);
},
{
closed = 1;
nodes = (
"242 55 OFFCURVE",
"235 62 OFFCURVE",
"235 75 CURVE SMOOTH",
"235 296 LINE SMOOTH",
"235 309 OFFCURVE",
"239 313 OFFCURVE",
"252 313 CURVE SMOOTH",
"333 313 LINE SMOOTH",
"446 313 OFFCURVE",
"509 274 OFFCURVE",
"509 184 CURVE SMOOTH",
"509 108 OFFCURVE",
"444 55 OFFCURVE",
"340 55 CURVE SMOOTH",
"255 55 LINE SMOOTH"
);
},
{
closed = 1;
nodes = (
"242 368 OFFCURVE",
"235 372 OFFCURVE",
"235 388 CURVE SMOOTH",
"235 593 LINE SMOOTH",
"235 601 OFFCURVE",
"242 605 OFFCURVE",
"255 605 CURVE SMOOTH",
"295 605 LINE SMOOTH",
"400 605 OFFCURVE",
"452 564 OFFCURVE",
"452 484 CURVE SMOOTH",
"452 411 OFFCURVE",
"396 368 OFFCURVE",
"301 368 CURVE SMOOTH",
"254 368 LINE SMOOTH"
);
}
);
width = 658;
},
{
layerId = m002;
paths = (
{
closed = 1;
nodes = (
"401 0 LINE SMOOTH",
"593 0 OFFCURVE",
"718 82 OFFCURVE",
"718 192 CURVE SMOOTH",
"718 276 OFFCURVE",
"638 330 OFFCURVE",
"529 348 CURVE SMOOTH",
"515 350 OFFCURVE",
"504 353 OFFCURVE",
"504 358 CURVE SMOOTH",
"504 361 OFFCURVE",
"512 365 OFFCURVE",
"518 367 CURVE SMOOTH",
"596 388 OFFCURVE",
"655 429 OFFCURVE",
"655 512 CURVE SMOOTH",
"655 611 OFFCURVE",
"561 660 OFFCURVE",
"358 660 CURVE SMOOTH",
"39 660 LINE SMOOTH",
"32 660 OFFCURVE",
"29 655 OFFCURVE",
"29 647 CURVE SMOOTH",
"29 624 OFFCURVE",
"119 621 OFFCURVE",
"119 579 CURVE SMOOTH",
"119 391 OFFCURVE",
"119 249 OFFCURVE",
"119 66 CURVE SMOOTH",
"119 46 OFFCURVE",
"29 31 OFFCURVE",
"29 12 CURVE SMOOTH",
"29 3 OFFCURVE",
"32 0 OFFCURVE",
"43 0 CURVE SMOOTH"
);
},
{
closed = 1;
nodes = (
"312 55 OFFCURVE",
"308 60 OFFCURVE",
"308 77 CURVE SMOOTH",
"308 301 LINE SMOOTH",
"308 314 OFFCURVE",
"312 318 OFFCURVE",
"325 318 CURVE SMOOTH",
"376 318 LINE SMOOTH",
"469 318 OFFCURVE",
"516 274 OFFCURVE",
"516 184 CURVE SMOOTH",
"516 108 OFFCURVE",
"458 55 OFFCURVE",
"363 55 CURVE SMOOTH",
"323 55 LINE SMOOTH"
);
},
{
closed = 1;
nodes = (
"315 366 OFFCURVE",
"308 370 OFFCURVE",
"308 386 CURVE SMOOTH",
"308 593 LINE SMOOTH",
"308 601 OFFCURVE",
"315 605 OFFCURVE",
"328 605 CURVE SMOOTH",
"338 605 LINE SMOOTH",
"413 605 OFFCURVE",
"465 564 OFFCURVE",
"465 484 CURVE SMOOTH",
"465 411 OFFCURVE",
"419 366 OFFCURVE",
"344 366 CURVE SMOOTH",
"327 366 LINE SMOOTH"
);
}
);
width = 737;
},
{
associatedMasterId = m01;
layerId = "1940F693-B751-47B2-B276-268A9F1CCE9E";
name = "Sep 4, 21, 18:33";
paths = (
{
closed = 1;
nodes = (
"235 0 LINE",
"235 660 LINE",
"65 660 LINE",
"65 644 LINE",
"145 604 LINE",
"145 56 LINE",
"65 16 LINE",
"65 0 LINE"
);
},
{
closed = 1;
nodes = (
"493 0 OFFCURVE",
"606 82 OFFCURVE",
"606 192 CURVE SMOOTH",
"606 298 OFFCURVE",
"507 363 OFFCURVE",
"346 363 CURVE",
"338 348 LINE",
"472 348 OFFCURVE",
"549 426 OFFCURVE",
"549 512 CURVE SMOOTH",
"549 611 OFFCURVE",
"451 660 OFFCURVE",
"318 660 CURVE SMOOTH",
"182 660 LINE",
"182 605 LINE",
"295 605 LINE SMOOTH",
"400 605 OFFCURVE",
"452 564 OFFCURVE",
"452 484 CURVE SMOOTH",
"452 411 OFFCURVE",
"396 368 OFFCURVE",
"301 368 CURVE SMOOTH",
"190 368 LINE",
"190 313 LINE",
"333 313 LINE SMOOTH",
"446 313 OFFCURVE",
"509 274 OFFCURVE",
"509 184 CURVE SMOOTH",
"509 108 OFFCURVE",
"445 55 OFFCURVE",
"340 55 CURVE SMOOTH",
"210 55 LINE",
"210 0 LINE",
"341 0 LINE SMOOTH"
);
}
);
visible = 1;
width = 658;
}
);
leftKerningGroup = kern_H2;
rightKerningGroup = kern_B1;
unicode = 0042;
},
{
color = 5;
glyphname = C;
layers = (
{
anchors = (
{
name = bottom;
position = "{400, 0}";
},
{
name = top;
position = "{389, 710}";
}
);
layerId = m01;
paths = (
{
closed = 1;
nodes = (
"510 -10 OFFCURVE",
"590 20 OFFCURVE",
"612 41 CURVE SMOOTH",
"622 51 OFFCURVE",
"635 67 OFFCURVE",
"635 168 CURVE SMOOTH",
"635 187 OFFCURVE",
"631 194 OFFCURVE",
"618 194 CURVE SMOOTH",
"599 194 OFFCURVE",
"582 116 OFFCURVE",
"557 91 CURVE SMOOTH",
"529 64 OFFCURVE",
"472 41 OFFCURVE",
"398 41 CURVE SMOOTH",
"268 41 OFFCURVE",
"163 152 OFFCURVE",
"163 342 CURVE SMOOTH",
"163 504 OFFCURVE",
"269 620 OFFCURVE",
"413 620 CURVE SMOOTH",
"570 620 OFFCURVE",
"580 447 OFFCURVE",
"606 447 CURVE SMOOTH",
"623 447 OFFCURVE",
"625 459 OFFCURVE",
"625 473 CURVE SMOOTH",
"625 600 OFFCURVE",
"616 620 OFFCURVE",
"592 632 CURVE SMOOTH",
"549 653 OFFCURVE",
"515 670 OFFCURVE",
"415 670 CURVE SMOOTH",
"228 670 OFFCURVE",
"70 501 OFFCURVE",
"70 312 CURVE SMOOTH",
"70 126 OFFCURVE",
"195 -10 OFFCURVE",
"400 -10 CURVE SMOOTH"
);
}
);
width = 726;
},
{
anchors = (
{
name = bottom;
position = "{396, 0}";
},
{
name = top;
position = "{393, 710}";
}
);
layerId = m002;
paths = (
{
closed = 1;
nodes = (
"510 -10 OFFCURVE",
"599 18 OFFCURVE",
"618 42 CURVE SMOOTH",
"630 57 OFFCURVE",
"646 139 OFFCURVE",
"646 200 CURVE SMOOTH",
"646 212 OFFCURVE",
"643 219 OFFCURVE",
"632 219 CURVE SMOOTH",
"619 219 OFFCURVE",
"578 131 OFFCURVE",
"531 86 CURVE SMOOTH",
"504 61 OFFCURVE",
"474 45 OFFCURVE",
"424 45 CURVE SMOOTH",
"294 45 OFFCURVE",
"235 152 OFFCURVE",
"235 342 CURVE SMOOTH",
"235 494 OFFCURVE",
"319 620 OFFCURVE",
"413 620 CURVE SMOOTH",
"550 620 OFFCURVE",
"589 427 OFFCURVE",
"615 427 CURVE SMOOTH",
"632 427 OFFCURVE",
"634 439 OFFCURVE",
"634 453 CURVE SMOOTH",
"634 580 OFFCURVE",
"624 620 OFFCURVE",
"592 632 CURVE SMOOTH",
"549 648 OFFCURVE",
"515 670 OFFCURVE",
"415 670 CURVE SMOOTH",
"228 670 OFFCURVE",
"34 534 OFFCURVE",
"34 312 CURVE SMOOTH",
"34 126 OFFCURVE",
"195 -10 OFFCURVE",
"400 -10 CURVE SMOOTH"
);
}
);
width = 701;
}
);
leftKerningGroup = kern_O2;
rightKerningGroup = kern_C1;
unicode = 0043;
},
{
color = 5;
glyphname = D;
layers = (
{
anchors = (
{
name = bottom;
position = "{388, 0}";
},
{
name = top;
position = "{388, 710}";
}
);
layerId = m01;
paths = (
{
closed = 1;
nodes = (
"101 -5 OFFCURVE",
"196 0 OFFCURVE",
"351 0 CURVE SMOOTH",
"554 0 OFFCURVE",
"705 152 OFFCURVE",
"705 360 CURVE SMOOTH",
"705 532 OFFCURVE",
"579 660 OFFCURVE",
"358 660 CURVE SMOOTH",
"180 660 OFFCURVE",
"103 665 OFFCURVE",
"85 665 CURVE SMOOTH",
"73 665 OFFCURVE",
"65 662 OFFCURVE",
"65 650 CURVE SMOOTH",
"65 624 OFFCURVE",
"145 613 OFFCURVE",
"145 579 CURVE SMOOTH",
"145 77 LINE SMOOTH",
"145 39 OFFCURVE",
"65 34 OFFCURVE",
"65 7 CURVE SMOOTH",
"65 0 OFFCURVE",
"68 -5 OFFCURVE",
"75 -5 CURVE SMOOTH"
);
},
{
closed = 1;
nodes = (
"240 55 OFFCURVE",
"235 62 OFFCURVE",
"235 74 CURVE SMOOTH",
"235 582 LINE SMOOTH",
"235 600 OFFCURVE",
"242 605 OFFCURVE",
"258 605 CURVE SMOOTH",
"335 605 LINE SMOOTH",
"511 605 OFFCURVE",
"610 496 OFFCURVE",
"610 329 CURVE SMOOTH",
"610 162 OFFCURVE",
"511 55 OFFCURVE",
"350 55 CURVE SMOOTH",
"253 55 LINE SMOOTH"
);
}
);
width = 775;
},
{
anchors = (
{
name = bottom;
position = "{413, 0}";
},
{
name = top;
position = "{393, 710}";
}
);
layerId = m002;
paths = (
{
closed = 1;
nodes = (
"75 -5 OFFCURVE",
"244 0 OFFCURVE",
"425 0 CURVE SMOOTH",
"628 0 OFFCURVE",
"790 152 OFFCURVE",
"790 360 CURVE SMOOTH",
"790 532 OFFCURVE",
"646 660 OFFCURVE",
"425 660 CURVE SMOOTH",
"221 660 OFFCURVE",
"77 665 OFFCURVE",
"59 665 CURVE SMOOTH",
"47 665 OFFCURVE",
"39 662 OFFCURVE",
"39 650 CURVE SMOOTH",
"39 624 OFFCURVE",
"119 613 OFFCURVE",
"119 579 CURVE SMOOTH",
"119 77 LINE SMOOTH",
"119 39 OFFCURVE",
"39 34 OFFCURVE",
"39 7 CURVE SMOOTH",
"39 0 OFFCURVE",
"42 -5 OFFCURVE",
"49 -5 CURVE SMOOTH"
);
},
{
closed = 1;
nodes = (
"314 55 OFFCURVE",
"309 62 OFFCURVE",
"309 74 CURVE SMOOTH",
"309 582 LINE SMOOTH",
"309 600 OFFCURVE",
"316 605 OFFCURVE",
"332 605 CURVE SMOOTH",
"355 605 LINE SMOOTH",
"511 605 OFFCURVE",
"593 496 OFFCURVE",
"593 329 CURVE SMOOTH",
"593 162 OFFCURVE",
"511 55 OFFCURVE",
"350 55 CURVE SMOOTH",
"327 55 LINE SMOOTH"
);
}
);
width = 820;
}
);
leftKerningGroup = kern_H2;
rightKerningGroup = kern_O1;
unicode = 0044;
},
{
color = 5;
glyphname = E;
layers = (
{
anchors = (
{
name = bottom;
position = "{350, 0}";
},
{
name = right;
position = "{505, 0}";
},
{
name = top;
position = "{335, 710}";
}
);
layerId = m01;
paths = (
{
closed = 1;
nodes = (
"562 0 LINE SMOOTH",
"575 0 OFFCURVE",
"582 7 OFFCURVE",
"582 20 CURVE SMOOTH",
"582 162 LINE SMOOTH",
"582 172 OFFCURVE",
"582 182 OFFCURVE",
"572 182 CURVE SMOOTH",
"549 182 OFFCURVE",
"524 55 OFFCURVE",
"474 55 CURVE SMOOTH",
"255 55 LINE SMOOTH",
"242 55 OFFCURVE",
"235 62 OFFCURVE",
"235 75 CURVE SMOOTH",
"235 293 LINE SMOOTH",
"235 303 OFFCURVE",
"242 313 OFFCURVE",
"255 313 CURVE SMOOTH",
"385 313 LINE SMOOTH",
"421 313 OFFCURVE",
"443 232 OFFCURVE",
"461 232 CURVE SMOOTH",
"471 232 OFFCURVE",
"471 242 OFFCURVE",
"471 252 CURVE SMOOTH",
"471 431 LINE SMOOTH",
"471 441 OFFCURVE",
"471 451 OFFCURVE",
"461 451 CURVE SMOOTH",
"443 451 OFFCURVE",
"421 368 OFFCURVE",
"385 368 CURVE SMOOTH",
"255 368 LINE SMOOTH",
"242 368 OFFCURVE",
"235 375 OFFCURVE",
"235 388 CURVE SMOOTH",
"235 585 LINE SMOOTH",
"235 597 OFFCURVE",
"243 605 OFFCURVE",
"255 605 CURVE SMOOTH",
"446 605 LINE SMOOTH",
"496 605 OFFCURVE",
"524 488 OFFCURVE",
"544 488 CURVE SMOOTH",
"554 488 OFFCURVE",
"554 498 OFFCURVE",
"554 508 CURVE SMOOTH",
"554 640 LINE SMOOTH",
"554 653 OFFCURVE",
"547 660 OFFCURVE",
"534 660 CURVE SMOOTH",
"88 660 LINE SMOOTH",
"71 660 OFFCURVE",
"65 663 OFFCURVE",
"65 651 CURVE SMOOTH",
"65 627 OFFCURVE",
"145 620 OFFCURVE",
"145 578 CURVE SMOOTH",
"145 86 LINE SMOOTH",
"145 36 OFFCURVE",
"65 27 OFFCURVE",
"65 10 CURVE SMOOTH",
"65 0 OFFCURVE",
"75 0 OFFCURVE",
"85 0 CURVE SMOOTH"
);
}
);
width = 652;
},
{
anchors = (
{
name = bottom;
position = "{366, 0}";
},
{
name = right;
position = "{569, 0}";
},
{
name = top;
position = "{366, 710}";
}
);
layerId = m002;
paths = (
{
closed = 1;
nodes = (
"620 0 LINE SMOOTH",
"633 0 OFFCURVE",
"640 7 OFFCURVE",
"640 20 CURVE SMOOTH",
"640 199 LINE SMOOTH",
"640 209 OFFCURVE",
"640 219 OFFCURVE",
"630 219 CURVE SMOOTH",
"607 219 OFFCURVE",
"552 55 OFFCURVE",
"502 55 CURVE SMOOTH",
"329 55 LINE SMOOTH",
"316 55 OFFCURVE",
"309 62 OFFCURVE",
"309 75 CURVE SMOOTH",
"309 293 LINE SMOOTH",
"309 303 OFFCURVE",
"316 313 OFFCURVE",
"329 313 CURVE SMOOTH",
"433 313 LINE SMOOTH",
"469 313 OFFCURVE",
"499 227 OFFCURVE",
"519 227 CURVE SMOOTH",
"529 227 OFFCURVE",
"529 237 OFFCURVE",
"529 247 CURVE SMOOTH",
"529 436 LINE SMOOTH",
"529 446 OFFCURVE",
"529 456 OFFCURVE",
"519 456 CURVE SMOOTH",
"501 456 OFFCURVE",
"469 368 OFFCURVE",
"433 368 CURVE SMOOTH",
"329 368 LINE SMOOTH",
"316 368 OFFCURVE",
"309 375 OFFCURVE",
"309 388 CURVE SMOOTH",
"309 585 LINE SMOOTH",
"309 597 OFFCURVE",
"317 605 OFFCURVE",
"329 605 CURVE SMOOTH",
"484 605 LINE SMOOTH",
"534 605 OFFCURVE",
"582 486 OFFCURVE",
"602 486 CURVE SMOOTH",
"612 486 OFFCURVE",
"612 496 OFFCURVE",
"612 506 CURVE SMOOTH",
"612 640 LINE SMOOTH",
"612 653 OFFCURVE",
"605 660 OFFCURVE",
"592 660 CURVE SMOOTH",
"53 660 LINE SMOOTH",
"36 660 OFFCURVE",
"30 663 OFFCURVE",
"30 651 CURVE SMOOTH",
"30 627 OFFCURVE",
"119 620 OFFCURVE",
"119 578 CURVE SMOOTH",
"119 86 LINE SMOOTH",
"119 36 OFFCURVE",
"30 27 OFFCURVE",
"30 10 CURVE SMOOTH",
"30 0 OFFCURVE",
"40 0 OFFCURVE",
"50 0 CURVE SMOOTH"
);
}
);
width = 700;
},
{
anchors = (
{
name = bottom;
position = "{350, 0}";
},
{
name = right;
position = "{505, 0}";
},
{
name = top;
position = "{335, 710}";
}
);
associatedMasterId = m01;
layerId = "3F5E9318-3EB2-4AB9-8833-9C5BF299DFD2";
name = "Sep 4, 21, 19:08";
paths = (
{
closed = 1;
nodes = (
"235 0 LINE",
"235 660 LINE",
"65 660 LINE",
"65 644 LINE",
"145 604 LINE",
"145 56 LINE",
"65 16 LINE",
"65 0 LINE"
);
},
{
closed = 1;
nodes = (
"554 488 LINE",
"554 660 LINE",
"182 660 LINE",
"182 605 LINE",
"476 605 LINE",
"538 488 LINE"
);
},
{
closed = 1;
nodes = (
"471 232 LINE",
"471 451 LINE",
"455 451 LINE",
"405 368 LINE",
"190 368 LINE",
"190 313 LINE",
"405 313 LINE",
"455 232 LINE"
);
},
{
closed = 1;
nodes = (
"582 182 LINE",
"566 182 LINE",
"504 55 LINE",
"210 55 LINE",
"210 0 LINE",
"582 0 LINE"
);
}
);
width = 652;
},
{
anchors = (
{
name = bottom;
position = "{366, 0}";
},
{
name = right;
position = "{569, 0}";
},
{
name = top;
position = "{366, 710}";
}
);
associatedMasterId = m002;
layerId = "C341B3D5-E26C-4F4F-B8E5-C020818AEF0D";
name = "Sep 4, 21, 22:01";
paths = (
{
closed = 1;
nodes = (
"309 0 LINE",
"309 660 LINE",
"30 660 LINE",
"30 644 LINE",
"119 602 LINE",
"119 58 LINE",
"30 16 LINE",
"30 0 LINE"
);
},
{
closed = 1;
nodes = (
"612 486 LINE",
"612 660 LINE",
"207 660 LINE",
"207 605 LINE",
"514 605 LINE",
"596 486 LINE"
);
},
{
closed = 1;
nodes = (
"529 227 LINE",
"529 456 LINE",
"513 456 LINE",
"453 368 LINE",
"215 368 LINE",
"215 313 LINE",
"453 313 LINE",
"513 227 LINE"
);
},
{
closed = 1;
nodes = (
"640 219 LINE",
"624 219 LINE",
"535 55 LINE",
"235 55 LINE",
"235 0 LINE",
"640 0 LINE"
);
}
);
visible = 1;
width = 700;
}
);
leftKerningGroup = kern_H2;
rightKerningGroup = kern_E1;
unicode = 0045;
},
{
color = 5;
glyphname = F;
layers = (
{
layerId = m01;
paths = (
{
closed = 1;
nodes = (
"304 0 LINE SMOOTH",
"320 0 OFFCURVE",
"325 4 OFFCURVE",
"325 10 CURVE SMOOTH",
"325 30 OFFCURVE",
"235 45 OFFCURVE",
"235 83 CURVE SMOOTH",
"235 294 LINE SMOOTH",
"235 308 OFFCURVE",
"239 313 OFFCURVE",
"254 313 CURVE SMOOTH",
"375 313 LINE SMOOTH",
"412 313 OFFCURVE",
"423 232 OFFCURVE",
"451 232 CURVE SMOOTH",
"458 232 OFFCURVE",
"463 235 OFFCURVE",
"463 242 CURVE SMOOTH",
"463 439 LINE SMOOTH",
"463 446 OFFCURVE",
"459 451 OFFCURVE",
"451 451 CURVE SMOOTH",
"428 451 OFFCURVE",
"412 368 OFFCURVE",
"375 368 CURVE SMOOTH",
"254 368 LINE SMOOTH",
"239 368 OFFCURVE",
"235 373 OFFCURVE",
"235 385 CURVE SMOOTH",
"235 586 LINE SMOOTH",
"235 597 OFFCURVE",
"242 605 OFFCURVE",
"253 605 CURVE SMOOTH",
"424 605 LINE SMOOTH",
"496 605 OFFCURVE",
"507 488 OFFCURVE",
"529 488 CURVE SMOOTH",
"539 488 OFFCURVE",
"544 495 OFFCURVE",
"544 511 CURVE SMOOTH",
"544 650 OFFCURVE",
"539 670 OFFCURVE",
"510 670 CURVE SMOOTH",
"475 670 OFFCURVE",
"440 660 OFFCURVE",
"316 660 CURVE SMOOTH",
"154 660 OFFCURVE",
"112 670 OFFCURVE",
"88 670 CURVE SMOOTH",
"71 670 OFFCURVE",
"65 663 OFFCURVE",
"65 651 CURVE SMOOTH",
"65 627 OFFCURVE",
"145 620 OFFCURVE",
"145 578 CURVE SMOOTH",
"145 83 LINE SMOOTH",
"145 45 OFFCURVE",
"65 30 OFFCURVE",
"65 10 CURVE SMOOTH",
"65 4 OFFCURVE",
"69 0 OFFCURVE",
"85 0 CURVE"
);
}
);
width = 614;
},
{
layerId = m002;
paths = (
{
closed = 1;
nodes = (
"378 0 LINE SMOOTH",
"394 0 OFFCURVE",
"399 4 OFFCURVE",
"399 10 CURVE SMOOTH",
"399 30 OFFCURVE",
"309 45 OFFCURVE",
"309 83 CURVE SMOOTH",
"309 299 LINE SMOOTH",
"309 313 OFFCURVE",
"313 318 OFFCURVE",
"328 318 CURVE SMOOTH",
"429 318 LINE SMOOTH",
"451 318 OFFCURVE",
"493 232 OFFCURVE",
"511 232 CURVE SMOOTH",
"519 232 OFFCURVE",
"519 237 OFFCURVE",
"519 244 CURVE SMOOTH",
"519 439 LINE SMOOTH",
"519 446 OFFCURVE",
"516 451 OFFCURVE",
"508 451 CURVE SMOOTH",
"490 451 OFFCURVE",
"451 363 OFFCURVE",
"429 363 CURVE SMOOTH",
"328 363 LINE SMOOTH",
"313 363 OFFCURVE",
"309 368 OFFCURVE",
"309 380 CURVE SMOOTH",
"309 586 LINE SMOOTH",
"309 597 OFFCURVE",
"316 605 OFFCURVE",
"327 605 CURVE SMOOTH",
"482 605 LINE SMOOTH",
"554 605 OFFCURVE",
"565 488 OFFCURVE",
"587 488 CURVE SMOOTH",
"597 488 OFFCURVE",
"602 495 OFFCURVE",
"602 511 CURVE SMOOTH",
"602 650 OFFCURVE",
"597 670 OFFCURVE",
"568 670 CURVE SMOOTH",
"533 670 OFFCURVE",
"498 660 OFFCURVE",
"390 660 CURVE SMOOTH",
"202 660 OFFCURVE",
"68 660 OFFCURVE",
"44 660 CURVE SMOOTH",
"34 660 OFFCURVE",
"30 657 OFFCURVE",
"30 651 CURVE SMOOTH",
"30 629 OFFCURVE",
"119 622 OFFCURVE",
"119 578 CURVE SMOOTH",
"119 83 LINE SMOOTH",
"119 45 OFFCURVE",
"39 30 OFFCURVE",
"39 10 CURVE SMOOTH",
"39 4 OFFCURVE",
"43 0 OFFCURVE",
"59 0 CURVE"
);
}
);
width = 642;
}
);
leftKerningGroup = kern_H2;
rightKerningGroup = kern_F1;
unicode = 0046;
},
{
color = 5;
glyphname = G;
layers = (
{
anchors = (
{
name = bottom;
position = "{415, 0}";
},
{
name = top;
position = "{400, 710}";
}
);
layerId = m01;
paths = (
{
closed = 1;
nodes = (
"499 -10 OFFCURVE",
"649 40 OFFCURVE",
"649 104 CURVE SMOOTH",
"649 219 LINE SMOOTH",
"649 239 OFFCURVE",
"718 262 OFFCURVE",
"718 279 CURVE SMOOTH",
"718 286 OFFCURVE",
"715 290 OFFCURVE",
"708 290 CURVE SMOOTH",
"480 290 LINE",
"475 290 OFFCURVE",
"470 286 OFFCURVE",
"470 279 CURVE SMOOTH",
"470 258 OFFCURVE",
"559 242 OFFCURVE",
"559 219 CURVE SMOOTH",
"559 99 LINE SMOOTH",
"559 63 OFFCURVE",
"522 48 OFFCURVE",
"432 48 CURVE SMOOTH",
"280 48 OFFCURVE",
"159 163 OFFCURVE",
"159 362 CURVE SMOOTH",
"159 510 OFFCURVE",
"270 620 OFFCURVE",
"424 620 CURVE SMOOTH",
"585 620 OFFCURVE",
"586 457 OFFCURVE",
"621 457 CURVE SMOOTH",
"634 457 OFFCURVE",
"644 467 OFFCURVE",
"643 491 CURVE SMOOTH",
"639 599 LINE SMOOTH",
"638 637 OFFCURVE",
"541 670 OFFCURVE",
"426 670 CURVE SMOOTH",
"230 670 OFFCURVE",
"70 517 OFFCURVE",
"70 312 CURVE SMOOTH",
"70 126 OFFCURVE",
"211 -10 OFFCURVE",
"403 -10 CURVE SMOOTH"
);
}
);
width = 768;
},
{
anchors = (
{
name = bottom;
position = "{405, 0}";
},
{
name = top;
position = "{406, 710}";
}
);
layerId = m002;
paths = (
{
closed = 1;
nodes = (
"500 -10 OFFCURVE",
"653 40 OFFCURVE",
"653 104 CURVE SMOOTH",
"653 226 LINE SMOOTH",
"653 246 OFFCURVE",
"731 279 OFFCURVE",
"731 296 CURVE SMOOTH",
"731 303 OFFCURVE",
"728 307 OFFCURVE",
"721 307 CURVE SMOOTH",
"384 307 LINE SMOOTH",
"379 307 OFFCURVE",
"374 303 OFFCURVE",
"374 296 CURVE SMOOTH",
"374 275 OFFCURVE",
"463 249 OFFCURVE",
"463 226 CURVE SMOOTH",
"463 91 LINE SMOOTH",
"463 55 OFFCURVE",
"452 43 OFFCURVE",
"432 43 CURVE SMOOTH",
"320 43 OFFCURVE",
"236 133 OFFCURVE",
"236 332 CURVE SMOOTH",
"236 480 OFFCURVE",
"320 620 OFFCURVE",
"424 620 CURVE SMOOTH",
"576 620 OFFCURVE",
"600 457 OFFCURVE",
"635 457 CURVE SMOOTH",
"648 457 OFFCURVE",
"659 467 OFFCURVE",
"657 491 CURVE SMOOTH",
"647 592 LINE SMOOTH",
"642 638 OFFCURVE",
"561 670 OFFCURVE",
"426 670 CURVE SMOOTH",
"230 670 OFFCURVE",
"36 527 OFFCURVE",
"36 322 CURVE SMOOTH",
"36 136 OFFCURVE",
"191 -10 OFFCURVE",
"403 -10 CURVE SMOOTH"
);
}
);
width = 749;
}
);
leftKerningGroup = kern_O2;
rightKerningGroup = kern_G1;
unicode = 0047;
},
{
color = 5;
glyphname = H;
layers = (
{
anchors = (
{
name = bottom;
position = "{405, 0}";
},
{
name = top;
position = "{405, 710}";
}
);
layerId = m01;
paths = (
{
closed = 1;
nodes = (
"301 0 LINE SMOOTH",
"310 0 OFFCURVE",
"315 3 OFFCURVE",
"315 10 CURVE SMOOTH",
"315 24 OFFCURVE",
"235 43 OFFCURVE",
"235 76 CURVE SMOOTH",
"235 296 LINE SMOOTH",
"235 306 OFFCURVE",
"241 313 OFFCURVE",
"254 313 CURVE SMOOTH",
"556 313 LINE SMOOTH",
"568 313 OFFCURVE",
"575 306 OFFCURVE",
"575 296 CURVE SMOOTH",
"575 76 LINE SMOOTH",
"575 43 OFFCURVE",
"495 24 OFFCURVE",
"495 10 CURVE SMOOTH",
"495 3 OFFCURVE",
"499 0 OFFCURVE",
"509 0 CURVE SMOOTH",
"731 0 LINE SMOOTH",
"740 0 OFFCURVE",
"745 3 OFFCURVE",
"745 10 CURVE SMOOTH",
"745 24 OFFCURVE",
"665 43 OFFCURVE",
"665 76 CURVE SMOOTH",
"665 586 LINE SMOOTH",
"665 615 OFFCURVE",
"745 633 OFFCURVE",
"745 648 CURVE SMOOTH",
"745 656 OFFCURVE",
"742 660 OFFCURVE",
"735 660 CURVE SMOOTH",
"505 660 LINE SMOOTH",
"497 660 OFFCURVE",
"495 653 OFFCURVE",
"495 648 CURVE SMOOTH",
"495 633 OFFCURVE",
"575 615 OFFCURVE",
"575 586 CURVE SMOOTH",
"575 388 LINE SMOOTH",
"575 375 OFFCURVE",
"568 368 OFFCURVE",
"555 368 CURVE SMOOTH",
"254 368 LINE SMOOTH",
"241 368 OFFCURVE",
"235 374 OFFCURVE",
"235 388 CURVE SMOOTH",
"235 586 LINE SMOOTH",
"235 615 OFFCURVE",
"315 633 OFFCURVE",
"315 648 CURVE SMOOTH",
"315 656 OFFCURVE",
"312 660 OFFCURVE",
"305 660 CURVE SMOOTH",
"75 660 LINE SMOOTH",
"67 660 OFFCURVE",
"65 653 OFFCURVE",
"65 648 CURVE SMOOTH",
"65 633 OFFCURVE",
"145 615 OFFCURVE",
"145 586 CURVE SMOOTH",
"145 76 LINE SMOOTH",
"145 43 OFFCURVE",
"65 24 OFFCURVE",
"65 10 CURVE SMOOTH",
"65 3 OFFCURVE",
"69 0 OFFCURVE",
"79 0 CURVE SMOOTH"
);
}
);
width = 810;
},
{
anchors = (
{
name = bottom;
position = "{426, 0}";
},
{
name = top;
position = "{426, 710}";
}
);
layerId = m002;
paths = (
{
closed = 1;
nodes = (
"372 0 LINE SMOOTH",
"381 0 OFFCURVE",
"386 3 OFFCURVE",
"386 10 CURVE SMOOTH",
"386 26 OFFCURVE",
"309 43 OFFCURVE",
"309 76 CURVE SMOOTH",
"309 295 LINE SMOOTH",
"309 305 OFFCURVE",
"315 312 OFFCURVE",
"328 312 CURVE SMOOTH",
"526 312 LINE SMOOTH",
"538 312 OFFCURVE",
"545 305 OFFCURVE",
"545 295 CURVE SMOOTH",
"545 76 LINE SMOOTH",
"545 43 OFFCURVE",
"466 26 OFFCURVE",
"466 10 CURVE SMOOTH",
"466 3 OFFCURVE",
"470 0 OFFCURVE",
"480 0 CURVE SMOOTH",
"808 0 LINE SMOOTH",
"817 0 OFFCURVE",
"822 3 OFFCURVE",
"822 10 CURVE SMOOTH",
"822 26 OFFCURVE",
"735 43 OFFCURVE",
"735 76 CURVE SMOOTH",
"735 586 LINE SMOOTH",
"735 615 OFFCURVE",
"822 633 OFFCURVE",
"822 648 CURVE SMOOTH",
"822 656 OFFCURVE",
"819 660 OFFCURVE",
"812 660 CURVE SMOOTH",
"475 660 LINE SMOOTH",
"467 660 OFFCURVE",
"465 653 OFFCURVE",
"465 648 CURVE SMOOTH",
"465 633 OFFCURVE",
"545 615 OFFCURVE",
"545 586 CURVE SMOOTH",
"545 387 LINE SMOOTH",
"545 373 OFFCURVE",
"538 367 OFFCURVE",
"526 367 CURVE SMOOTH",
"328 367 LINE SMOOTH",
"315 367 OFFCURVE",
"309 373 OFFCURVE",
"309 387 CURVE SMOOTH",
"309 586 LINE SMOOTH",
"309 615 OFFCURVE",
"386 633 OFFCURVE",
"386 648 CURVE SMOOTH",
"386 656 OFFCURVE",
"383 660 OFFCURVE",
"376 660 CURVE SMOOTH",
"40 660 LINE SMOOTH",
"32 660 OFFCURVE",
"30 653 OFFCURVE",
"30 648 CURVE SMOOTH",
"30 633 OFFCURVE",
"119 615 OFFCURVE",
"119 586 CURVE SMOOTH",
"119 76 LINE SMOOTH",
"119 43 OFFCURVE",
"30 26 OFFCURVE",
"30 10 CURVE SMOOTH",
"30 3 OFFCURVE",
"34 0 OFFCURVE",
"44 0 CURVE SMOOTH"
);
}
);
width = 852;
},
{
anchors = (
{
name = bottom;
position = "{405, 0}";
},
{
name = top;
position = "{405, 710}";
}
);
associatedMasterId = m01;
layerId = "E0E5EAA5-2687-49A3-AF3C-174CF8512330";
name = "Sep 4, 21, 21:16";
paths = (
{
closed = 1;
nodes = (
"315 0 LINE",
"315 16 LINE",
"235 56 LINE",
"235 604 LINE",
"315 644 LINE",
"315 660 LINE",
"65 660 LINE",
"65 644 LINE",
"145 604 LINE",
"145 56 LINE",
"65 16 LINE",
"65 0 LINE"
);
},
{
closed = 1;
nodes = (
"620 313 LINE",
"620 368 LINE",
"190 368 LINE",
"190 313 LINE"
);
},
{
closed = 1;
nodes = (
"745 0 LINE",
"745 16 LINE",
"665 56 LINE",
"665 604 LINE",
"745 644 LINE",
"745 660 LINE",
"495 660 LINE",
"495 644 LINE",
"575 604 LINE",
"575 56 LINE",
"495 16 LINE",
"495 0 LINE"
);
}
);
visible = 1;
width = 810;
}
);
leftKerningGroup = kern_H2;
rightKerningGroup = kern_H1;
unicode = 0048;
},
{
color = 5;
glyphname = I;
layers = (
{
anchors = (
{
name = bottom;
position = "{195, 0}";
},
{
name = right;
position = "{212, 0}";
},
{
name = top;
position = "{195, 710}";
}
);
layerId = m01;
paths = (
{
closed = 1;
nodes = (
"306 0 LINE SMOOTH",
"315 0 OFFCURVE",
"320 3 OFFCURVE",
"320 10 CURVE SMOOTH",
"320 24 OFFCURVE",
"240 43 OFFCURVE",
"240 76 CURVE SMOOTH",
"240 586 LINE SMOOTH",
"240 615 OFFCURVE",
"320 633 OFFCURVE",
"320 648 CURVE SMOOTH",
"320 656 OFFCURVE",
"317 660 OFFCURVE",
"310 660 CURVE SMOOTH",
"80 660 LINE SMOOTH",
"72 660 OFFCURVE",
"70 653 OFFCURVE",
"70 648 CURVE SMOOTH",
"70 633 OFFCURVE",
"150 615 OFFCURVE",
"150 586 CURVE SMOOTH",
"150 76 LINE SMOOTH",
"150 43 OFFCURVE",
"70 24 OFFCURVE",
"70 10 CURVE SMOOTH",
"70 3 OFFCURVE",
"74 0 OFFCURVE",
"84 0 CURVE SMOOTH"
);
}
);
width = 390;
},
{
anchors = (
{
name = bottom;
position = "{214, 0}";
},
{
name = right;
position = "{241, 0}";
},
{
name = top;
position = "{214, 710}";
}
);
layerId = m002;
paths = (
{
closed = 1;
nodes = (
"384 0 LINE SMOOTH",
"393 0 OFFCURVE",
"398 3 OFFCURVE",
"398 10 CURVE SMOOTH",
"398 24 OFFCURVE",
"309 43 OFFCURVE",
"309 76 CURVE SMOOTH",
"309 586 LINE SMOOTH",
"309 615 OFFCURVE",
"398 633 OFFCURVE",
"398 648 CURVE SMOOTH",
"398 656 OFFCURVE",
"395 660 OFFCURVE",
"388 660 CURVE SMOOTH",
"41 660 LINE SMOOTH",
"33 660 OFFCURVE",
"31 653 OFFCURVE",
"31 648 CURVE SMOOTH",
"31 633 OFFCURVE",
"119 615 OFFCURVE",
"119 586 CURVE SMOOTH",
"119 76 LINE SMOOTH",
"119 43 OFFCURVE",
"30 24 OFFCURVE",
"30 10 CURVE SMOOTH",
"30 3 OFFCURVE",
"34 0 OFFCURVE",
"44 0 CURVE SMOOTH"
);
}
);
width = 428;
}
);
leftKerningGroup = kern_H2;
rightKerningGroup = kern_H1;
unicode = 0049;
},
{
color = 5;
glyphname = J;
layers = (
{
anchors = (
{
name = top;
position = "{195, 710}";
}
);
layerId = m01;
paths = (
{
closed = 1;
nodes = (
"119 -174 OFFCURVE",
"240 -59 OFFCURVE",
"240 157 CURVE SMOOTH",
"240 586 LINE SMOOTH",
"240 615 OFFCURVE",
"320 633 OFFCURVE",
"320 648 CURVE SMOOTH",
"320 656 OFFCURVE",
"317 660 OFFCURVE",
"310 660 CURVE SMOOTH",
"80 660 LINE SMOOTH",
"72 660 OFFCURVE",
"70 653 OFFCURVE",
"70 648 CURVE SMOOTH",
"70 633 OFFCURVE",
"150 615 OFFCURVE",
"150 586 CURVE SMOOTH",
"150 76 LINE SMOOTH",
"150 -57 OFFCURVE",
"132 -100 OFFCURVE",
"90 -100 CURVE SMOOTH",
"65 -100 OFFCURVE",
"52 -87 OFFCURVE",
"35 -87 CURVE SMOOTH",
"19 -87 OFFCURVE",
"0 -95 OFFCURVE",
"0 -134 CURVE SMOOTH",
"0 -159 OFFCURVE",
"23 -174 OFFCURVE",
"49 -174 CURVE SMOOTH"
);
}
);
width = 390;
},
{
anchors = (
{
name = top;
position = "{245, 710}";
}
);
layerId = m002;
paths = (
{
closed = 1;
nodes = (
"171 -174 OFFCURVE",
"340 -79 OFFCURVE",
"340 187 CURVE SMOOTH",
"340 586 LINE SMOOTH",
"340 615 OFFCURVE",
"429 633 OFFCURVE",
"429 648 CURVE SMOOTH",
"429 655 OFFCURVE",
"423 660 OFFCURVE",
"415 660 CURVE SMOOTH",
"74 660 LINE SMOOTH",
"65 660 OFFCURVE",
"61 655 OFFCURVE",
"61 648 CURVE SMOOTH",
"61 633 OFFCURVE",
"150 615 OFFCURVE",
"150 586 CURVE SMOOTH",
"150 76 LINE SMOOTH",
"150 -57 OFFCURVE",
"135 -100 OFFCURVE",
"93 -100 CURVE SMOOTH",
"68 -100 OFFCURVE",
"58 -87 OFFCURVE",
"41 -87 CURVE SMOOTH",
"25 -87 OFFCURVE",
"0 -95 OFFCURVE",
"0 -134 CURVE SMOOTH",
"0 -159 OFFCURVE",
"29 -174 OFFCURVE",
"55 -174 CURVE SMOOTH"
);
}
);
width = 459;
}
);
leftKerningGroup = kern_J2;
rightKerningGroup = kern_J1;
unicode = 004A;
},
{
color = 5;
glyphname = K;
layers = (
{
anchors = (
{
name = bottom;
position = "{385, 0}";
},
{
name = top;
position = "{385, 710}";
}
);
layerId = m01;
paths = (
{
closed = 1;
nodes = (
"301 0 LINE SMOOTH",
"310 0 OFFCURVE",
"315 3 OFFCURVE",
"315 10 CURVE SMOOTH",
"315 24 OFFCURVE",
"235 43 OFFCURVE",
"235 76 CURVE SMOOTH",
"235 312 LINE SMOOTH",
"235 320 OFFCURVE",
"237 324 OFFCURVE",
"242 324 CURVE SMOOTH",
"247 324 OFFCURVE",
"254 320 OFFCURVE",
"261 312 CURVE SMOOTH",
"488 74 LINE SMOOTH",
"559 0 OFFCURVE",
"579 -10 OFFCURVE",
"649 -10 CURVE SMOOTH",
"679 -10 OFFCURVE",
"704 0 OFFCURVE",
"704 12 CURVE SMOOTH",
"704 30 OFFCURVE",
"655 30 OFFCURVE",
"608 77 CURVE SMOOTH",
"348 341 LINE SMOOTH",
"340 349 OFFCURVE",
"333 355 OFFCURVE",
"333 361 CURVE SMOOTH",
"333 368 OFFCURVE",
"339 374 OFFCURVE",
"348 383 CURVE SMOOTH",
"555 586 LINE SMOOTH",
"607 637 OFFCURVE",
"652 633 OFFCURVE",
"652 648 CURVE SMOOTH",
"652 656 OFFCURVE",
"649 660 OFFCURVE",
"642 660 CURVE SMOOTH",
"452 660 LINE SMOOTH",
"444 660 OFFCURVE",
"442 655 OFFCURVE",
"442 648 CURVE SMOOTH",
"442 633 OFFCURVE",
"521 617 OFFCURVE",
"503 600 CURVE SMOOTH",
"258 360 LINE SMOOTH",
"251 354 OFFCURVE",
"246 348 OFFCURVE",
"242 348 CURVE SMOOTH",
"236 348 OFFCURVE",
"235 353 OFFCURVE",
"235 361 CURVE SMOOTH",
"235 586 LINE SMOOTH",
"235 615 OFFCURVE",
"315 633 OFFCURVE",
"315 648 CURVE SMOOTH",
"315 656 OFFCURVE",
"312 660 OFFCURVE",
"305 660 CURVE SMOOTH",
"75 660 LINE SMOOTH",
"67 660 OFFCURVE",
"65 653 OFFCURVE",
"65 648 CURVE SMOOTH",
"65 633 OFFCURVE",
"145 615 OFFCURVE",
"145 586 CURVE SMOOTH",
"145 76 LINE SMOOTH",
"145 43 OFFCURVE",
"65 24 OFFCURVE",
"65 10 CURVE SMOOTH",
"65 3 OFFCURVE",
"69 0 OFFCURVE",
"79 0 CURVE SMOOTH"
);
}
);
width = 719;
},
{
anchors = (
{
name = bottom;
position = "{452, 0}";
},
{
name = top;
position = "{452, 710}";
}
);
layerId = m002;
paths = (
{
closed = 1;
nodes = (
"384 0 LINE SMOOTH",
"393 0 OFFCURVE",
"398 3 OFFCURVE",
"398 10 CURVE SMOOTH",
"398 24 OFFCURVE",
"309 43 OFFCURVE",
"309 76 CURVE SMOOTH",
"309 292 LINE SMOOTH",
"309 300 OFFCURVE",
"311 304 OFFCURVE",
"316 304 CURVE SMOOTH",
"321 304 OFFCURVE",
"329 301 OFFCURVE",
"335 292 CURVE SMOOTH",
"488 66 LINE SMOOTH",
"533 0 OFFCURVE",
"601 -10 OFFCURVE",
"751 -10 CURVE SMOOTH",
"781 -10 OFFCURVE",
"806 0 OFFCURVE",
"806 12 CURVE SMOOTH",
"806 30 OFFCURVE",
"747 24 OFFCURVE",
"710 77 CURVE SMOOTH",
"492 390 LINE SMOOTH",
"485 400 OFFCURVE",
"482 404 OFFCURVE",
"482 410 CURVE SMOOTH",
"482 417 OFFCURVE",
"490 427 OFFCURVE",
"501 437 CURVE SMOOTH",
"659 586 LINE SMOOTH",
"710 635 OFFCURVE",
"757 633 OFFCURVE",
"757 648 CURVE SMOOTH",
"757 656 OFFCURVE",
"754 660 OFFCURVE",
"747 660 CURVE SMOOTH",
"515 660 LINE SMOOTH",
"507 660 OFFCURVE",
"505 655 OFFCURVE",
"505 648 CURVE SMOOTH",
"505 635 OFFCURVE",
"588 612 OFFCURVE",
"571 595 CURVE SMOOTH",
"332 353 LINE SMOOTH",
"325 346 OFFCURVE",
"320 341 OFFCURVE",
"316 341 CURVE SMOOTH",
"310 341 OFFCURVE",
"309 346 OFFCURVE",
"309 354 CURVE SMOOTH",
"309 586 LINE SMOOTH",
"309 615 OFFCURVE",
"398 633 OFFCURVE",
"398 648 CURVE SMOOTH",
"398 656 OFFCURVE",
"395 660 OFFCURVE",
"388 660 CURVE SMOOTH",
"40 660 LINE SMOOTH",
"32 660 OFFCURVE",
"30 658 OFFCURVE",
"30 651 CURVE SMOOTH",
"30 636 OFFCURVE",
"119 615 OFFCURVE",
"119 586 CURVE SMOOTH",
"119 76 LINE SMOOTH",
"119 43 OFFCURVE",
"30 24 OFFCURVE",
"30 10 CURVE SMOOTH",
"30 3 OFFCURVE",
"34 0 OFFCURVE",
"44 0 CURVE SMOOTH"
);
}
);
width = 810;
}
);
leftKerningGroup = kern_H2;
rightKerningGroup = kern_K1;
unicode = 004B;
},
{
color = 5;
glyphname = L;
layers = (
{
anchors = (
{
name = bottom;
position = "{354, 0}";
},
{
name = mid;
position = "{490, 347}";
},
{
name = right;
position = "{475, 660}";
},
{
name = top;
position = "{190, 710}";
}
);
layerId = m01;
paths = (
{
closed = 1;
nodes = (
"548 0 LINE SMOOTH",
"557 0 OFFCURVE",
"562 5 OFFCURVE",
"562 17 CURVE SMOOTH",
"562 197 LINE SMOOTH",
"562 214 OFFCURVE",
"558 222 OFFCURVE",
"545 222 CURVE SMOOTH",
"524 222 OFFCURVE",
"497 55 OFFCURVE",
"442 55 CURVE SMOOTH",
"255 55 LINE SMOOTH",
"240 55 OFFCURVE",
"235 64 OFFCURVE",
"235 79 CURVE SMOOTH",
"235 586 LINE SMOOTH",
"235 615 OFFCURVE",
"325 633 OFFCURVE",
"325 648 CURVE SMOOTH",
"325 656 OFFCURVE",
"320 660 OFFCURVE",
"309 660 CURVE SMOOTH",
"75 660 LINE SMOOTH",
"67 660 OFFCURVE",
"65 653 OFFCURVE",
"65 648 CURVE SMOOTH",
"65 633 OFFCURVE",
"145 615 OFFCURVE",
"145 586 CURVE SMOOTH",
"145 76 LINE SMOOTH",
"145 43 OFFCURVE",
"65 28 OFFCURVE",
"65 10 CURVE SMOOTH",
"65 3 OFFCURVE",
"69 0 OFFCURVE",
"79 0 CURVE SMOOTH"
);
}
);
width = 632;
},
{
anchors = (
{
name = bottom;
position = "{362, 0}";
},
{
name = mid;
position = "{540, 355}";
},
{
name = right;
position = "{520, 660}";
},
{
name = top;
position = "{214, 710}";
}
);
layerId = m002;
paths = (
{
closed = 1;
nodes = (
"606 0 LINE SMOOTH",
"615 0 OFFCURVE",
"620 5 OFFCURVE",
"620 17 CURVE SMOOTH",
"620 234 LINE SMOOTH",
"620 251 OFFCURVE",
"616 259 OFFCURVE",
"603 259 CURVE SMOOTH",
"582 259 OFFCURVE",
"525 55 OFFCURVE",
"480 55 CURVE SMOOTH",
"329 55 LINE SMOOTH",
"314 55 OFFCURVE",
"309 64 OFFCURVE",
"309 79 CURVE SMOOTH",
"309 586 LINE SMOOTH",
"309 615 OFFCURVE",
"408 633 OFFCURVE",
"408 648 CURVE SMOOTH",
"408 656 OFFCURVE",
"403 660 OFFCURVE",
"392 660 CURVE SMOOTH",
"40 660 LINE SMOOTH",
"32 660 OFFCURVE",
"30 653 OFFCURVE",
"30 648 CURVE SMOOTH",
"30 633 OFFCURVE",
"119 615 OFFCURVE",
"119 586 CURVE SMOOTH",
"119 76 LINE SMOOTH",
"119 43 OFFCURVE",
"30 28 OFFCURVE",
"30 10 CURVE SMOOTH",
"30 3 OFFCURVE",
"34 0 OFFCURVE",
"44 0 CURVE SMOOTH"
);
}
);
width = 660;
}
);
leftKerningGroup = kern_H2;
rightKerningGroup = kern_L1;
unicode = 004C;
},
{
color = 5;
glyphname = M;
layers = (
{
anchors = (
{
name = bottom;
position = "{472, 0}";
}
);
layerId = m01;
paths = (
{
closed = 1;
nodes = (
"98 -4 OFFCURVE",
"140 0 OFFCURVE",
"166 0 CURVE SMOOTH",
"195 0 OFFCURVE",
"248 -4 OFFCURVE",
"267 -4 CURVE SMOOTH",
"279 -4 OFFCURVE",
"282 -1 OFFCURVE",
"282 7 CURVE SMOOTH",
"282 28 OFFCURVE",
"201 41 OFFCURVE",
"202 91 CURVE SMOOTH",
"213 508 LINE SMOOTH",
"213 518 OFFCURVE",
"216 521 OFFCURVE",
"219 521 CURVE SMOOTH",
"222 521 OFFCURVE",
"224 517 OFFCURVE",
"235 491 CURVE SMOOTH",
"434 31 LINE SMOOTH",
"447 1 OFFCURVE",
"454 -5 OFFCURVE",
"474 -5 CURVE SMOOTH",
"486 -5 OFFCURVE",
"498 2 OFFCURVE",
"511 32 CURVE SMOOTH",
"705 484 LINE SMOOTH",
"714 504 OFFCURVE",
"720 515 OFFCURVE",
"725 517 CURVE SMOOTH",
"731 519 OFFCURVE",
"734 508 OFFCURVE",
"734 480 CURVE SMOOTH",
"740 75 LINE SMOOTH",
"740 48 OFFCURVE",
"660 27 OFFCURVE",
"660 7 CURVE SMOOTH",
"660 0 OFFCURVE",
"665 -4 OFFCURVE",
"675 -4 CURVE SMOOTH",
"698 -4 OFFCURVE",
"740 0 OFFCURVE",
"766 0 CURVE SMOOTH",
"795 0 OFFCURVE",
"868 -4 OFFCURVE",
"887 -4 CURVE SMOOTH",
"899 -4 OFFCURVE",
"902 -1 OFFCURVE",
"902 7 CURVE SMOOTH",
"902 28 OFFCURVE",
"830 37 OFFCURVE",
"828 87 CURVE SMOOTH",
"813 578 LINE SMOOTH",
"812 621 OFFCURVE",
"896 633 OFFCURVE",
"896 648 CURVE SMOOTH",
"896 657 OFFCURVE",
"892 665 OFFCURVE",
"879 665 CURVE SMOOTH",
"818 665 OFFCURVE",
"805 660 OFFCURVE",
"746 660 CURVE SMOOTH",
"729 660 OFFCURVE",
"708 632 OFFCURVE",
"700 613 CURVE SMOOTH",
"514 184 LINE SMOOTH",
"498 147 OFFCURVE",
"494 144 OFFCURVE",
"490 144 CURVE SMOOTH",
"487 144 OFFCURVE",
"485 145 OFFCURVE",
"474 170 CURVE SMOOTH",
"277 619 LINE SMOOTH",
"265 647 OFFCURVE",
"257 660 OFFCURVE",
"227 660 CURVE SMOOTH",
"151 660 OFFCURVE",
"111 665 OFFCURVE",
"91 665 CURVE SMOOTH",
"80 665 OFFCURVE",
"74 661 OFFCURVE",
"74 650 CURVE SMOOTH",
"74 630 OFFCURVE",
"161 622 OFFCURVE",
"159 577 CURVE SMOOTH",
"140 75 LINE SMOOTH",
"139 48 OFFCURVE",
"60 27 OFFCURVE",
"60 7 CURVE SMOOTH",
"60 0 OFFCURVE",
"65 -4 OFFCURVE",
"75 -4 CURVE SMOOTH"
);
}
);
width = 959;
},
{
anchors = (
{
name = bottom;
position = "{461, 0}";
}
);
layerId = m002;
paths = (
{
closed = 1;
nodes = (
"70 -4 OFFCURVE",
"119 0 OFFCURVE",
"166 0 CURVE SMOOTH",
"195 0 OFFCURVE",
"248 -4 OFFCURVE",
"267 -4 CURVE SMOOTH",
"279 -4 OFFCURVE",
"282 -1 OFFCURVE",
"282 7 CURVE SMOOTH",
"282 28 OFFCURVE",
"189 41 OFFCURVE",
"190 91 CURVE SMOOTH",
"198 508 LINE SMOOTH",
"198 518 OFFCURVE",
"200 521 OFFCURVE",
"203 521 CURVE SMOOTH",
"206 521 OFFCURVE",
"215 503 OFFCURVE",
"220 491 CURVE SMOOTH",
"414 31 LINE SMOOTH",
"427 1 OFFCURVE",
"434 -5 OFFCURVE",
"454 -5 CURVE SMOOTH",
"466 -5 OFFCURVE",
"499 2 OFFCURVE",
"511 32 CURVE SMOOTH",
"694 473 LINE SMOOTH",
"700 488 OFFCURVE",
"705 495 OFFCURVE",
"709 495 CURVE SMOOTH",
"715 495 OFFCURVE",
"716 487 OFFCURVE",
"716 475 CURVE SMOOTH",
"723 75 LINE SMOOTH",
"723 48 OFFCURVE",
"639 27 OFFCURVE",
"639 7 CURVE SMOOTH",
"639 0 OFFCURVE",
"644 -4 OFFCURVE",
"654 -4 CURVE SMOOTH",
"677 -4 OFFCURVE",
"773 0 OFFCURVE",
"816 0 CURVE SMOOTH",
"845 0 OFFCURVE",
"955 -4 OFFCURVE",
"974 -4 CURVE SMOOTH",
"986 -4 OFFCURVE",
"989 -1 OFFCURVE",
"989 7 CURVE SMOOTH",
"989 28 OFFCURVE",
"910 37 OFFCURVE",
"908 87 CURVE SMOOTH",
"893 578 LINE SMOOTH",
"892 621 OFFCURVE",
"976 633 OFFCURVE",
"976 648 CURVE SMOOTH",
"976 657 OFFCURVE",
"972 665 OFFCURVE",
"959 665 CURVE SMOOTH",
"898 665 OFFCURVE",
"785 660 OFFCURVE",
"726 660 CURVE SMOOTH",
"709 660 OFFCURVE",
"694 647 OFFCURVE",
"680 613 CURVE SMOOTH",
"545 279 LINE SMOOTH",
"530 242 OFFCURVE",
"525 239 OFFCURVE",
"521 239 CURVE SMOOTH",
"518 239 OFFCURVE",
"515 241 OFFCURVE",
"505 265 CURVE SMOOTH",
"357 619 LINE SMOOTH",
"345 647 OFFCURVE",
"337 660 OFFCURVE",
"307 660 CURVE SMOOTH",
"211 660 OFFCURVE",
"91 665 OFFCURVE",
"71 665 CURVE SMOOTH",
"60 665 OFFCURVE",
"54 661 OFFCURVE",
"54 650 CURVE SMOOTH",
"54 630 OFFCURVE",
"141 622 OFFCURVE",
"139 577 CURVE SMOOTH",
"119 75 LINE SMOOTH",
"118 48 OFFCURVE",
"32 27 OFFCURVE",
"32 7 CURVE SMOOTH",
"32 0 OFFCURVE",
"37 -4 OFFCURVE",
"47 -4 CURVE SMOOTH"
);
}
);
width = 1019;
}
);
leftKerningGroup = kern_M3;
rightKerningGroup = kern_M3;
unicode = 004D;
},
{
color = 5;
glyphname = N;
layers = (
{
anchors = (
{
name = bottom;
position = "{420, 0}";
},
{
name = top;
position = "{410, 710}";
}
);
layerId = m01;
paths = (
{
closed = 1;
nodes = (
"295 0 LINE SMOOTH",
"304 0 OFFCURVE",
"309 3 OFFCURVE",
"309 10 CURVE SMOOTH",
"309 24 OFFCURVE",
"210 43 OFFCURVE",
"210 76 CURVE SMOOTH",
"210 489 LINE SMOOTH",
"210 494 OFFCURVE",
"212 498 OFFCURVE",
"217 498 CURVE SMOOTH",
"223 498 OFFCURVE",
"228 494 OFFCURVE",
"234 486 CURVE SMOOTH",
"590 36 LINE SMOOTH",
"607 15 OFFCURVE",
"622 -5 OFFCURVE",
"640 -5 CURVE SMOOTH",
"654 -5 OFFCURVE",
"660 3 OFFCURVE",
"660 36 CURVE SMOOTH",
"660 586 LINE SMOOTH",
"660 615 OFFCURVE",
"739 633 OFFCURVE",
"739 648 CURVE SMOOTH",
"739 656 OFFCURVE",
"736 660 OFFCURVE",
"729 660 CURVE SMOOTH",
"500 660 LINE SMOOTH",
"492 660 OFFCURVE",
"490 655 OFFCURVE",
"490 648 CURVE SMOOTH",
"490 633 OFFCURVE",
"590 615 OFFCURVE",
"590 586 CURVE SMOOTH",
"590 211 LINE SMOOTH",
"590 203 OFFCURVE",
"588 198 OFFCURVE",
"583 198 CURVE SMOOTH",
"576 198 OFFCURVE",
"572 203 OFFCURVE",
"567 209 CURVE SMOOTH",
"222 643 LINE SMOOTH",
"214 654 OFFCURVE",
"201 660 OFFCURVE",
"190 660 CURVE SMOOTH",
"70 660 LINE SMOOTH",
"62 660 OFFCURVE",
"60 653 OFFCURVE",
"60 648 CURVE SMOOTH",
"60 633 OFFCURVE",
"140 614 OFFCURVE",
"140 582 CURVE SMOOTH",
"140 76 LINE SMOOTH",
"140 43 OFFCURVE",
"60 24 OFFCURVE",
"60 10 CURVE SMOOTH",
"60 3 OFFCURVE",
"64 0 OFFCURVE",
"74 0 CURVE SMOOTH"
);
}
);
width = 799;
},
{
anchors = (
{
name = bottom;
position = "{414, 0}";
},
{
name = top;
position = "{415, 710}";
}
);
layerId = m002;
paths = (
{
closed = 1;
nodes = (
"298 0 LINE SMOOTH",
"307 0 OFFCURVE",
"312 3 OFFCURVE",
"312 10 CURVE SMOOTH",
"312 24 OFFCURVE",
"189 43 OFFCURVE",
"189 76 CURVE SMOOTH",
"189 429 LINE SMOOTH",
"189 434 OFFCURVE",
"191 438 OFFCURVE",
"196 438 CURVE SMOOTH",
"202 438 OFFCURVE",
"206 434 OFFCURVE",
"213 426 CURVE SMOOTH",
"591 36 LINE SMOOTH",
"626 0 OFFCURVE",
"633 -5 OFFCURVE",
"670 -5 CURVE SMOOTH",
"690 -5 OFFCURVE",
"710 3 OFFCURVE",
"710 36 CURVE SMOOTH",
"710 586 LINE SMOOTH",
"710 615 OFFCURVE",
"797 633 OFFCURVE",
"797 648 CURVE SMOOTH",
"797 656 OFFCURVE",
"794 660 OFFCURVE",
"787 660 CURVE SMOOTH",
"527 660 LINE SMOOTH",
"519 660 OFFCURVE",
"517 655 OFFCURVE",
"517 648 CURVE SMOOTH",
"517 633 OFFCURVE",
"640 615 OFFCURVE",
"640 586 CURVE SMOOTH",
"640 275 LINE SMOOTH",
"640 267 OFFCURVE",
"638 262 OFFCURVE",
"633 262 CURVE SMOOTH",
"626 262 OFFCURVE",
"622 267 OFFCURVE",
"617 273 CURVE SMOOTH",
"265 643 LINE SMOOTH",
"255 653 OFFCURVE",
"244 660 OFFCURVE",
"233 660 CURVE SMOOTH",
"40 660 LINE SMOOTH",
"32 660 OFFCURVE",
"30 653 OFFCURVE",
"30 648 CURVE SMOOTH",
"30 633 OFFCURVE",
"119 614 OFFCURVE",
"119 582 CURVE SMOOTH",
"119 76 LINE SMOOTH",
"119 43 OFFCURVE",
"30 24 OFFCURVE",
"30 10 CURVE SMOOTH",
"30 3 OFFCURVE",
"34 0 OFFCURVE",
"44 0 CURVE SMOOTH"
);
}
);
width = 827;
}
);
leftKerningGroup = kern_H2;
rightKerningGroup = kern_N1;
unicode = 004E;
},
{
color = 5;
glyphname = O;
layers = (
{
anchors = (
{
name = bottom;
position = "{417, 0}";
},
{
name = right;
position = "{431, 0}";
},
{
name = top;
position = "{391, 710}";
}
);
layerId = m01;
paths = (
{
closed = 1;
nodes = (
"595 -10 OFFCURVE",
"737 134 OFFCURVE",
"737 330 CURVE SMOOTH",
"737 526 OFFCURVE",
"595 670 OFFCURVE",
"403 670 CURVE SMOOTH",
"212 670 OFFCURVE",
"70 526 OFFCURVE",
"70 330 CURVE SMOOTH",
"70 134 OFFCURVE",
"212 -10 OFFCURVE",
"403 -10 CURVE SMOOTH"
);
},
{
closed = 1;
nodes = (
"281 40 OFFCURVE",
"167 168 OFFCURVE",
"167 363 CURVE SMOOTH",
"167 521 OFFCURVE",
"258 621 OFFCURVE",
"386 621 CURVE SMOOTH",
"528 621 OFFCURVE",
"640 494 OFFCURVE",
"640 299 CURVE SMOOTH",
"640 141 OFFCURVE",
"552 40 OFFCURVE",
"424 40 CURVE SMOOTH"
);
}
);
width = 807;
},
{
anchors = (
{
name = bottom;
position = "{389, 0}";
},
{
name = right;
position = "{423, 0}";
},
{
name = top;
position = "{389, 710}";
}
);
layerId = m002;
paths = (
{
closed = 1;
nodes = (
"591 -10 OFFCURVE",
"742 134 OFFCURVE",
"742 330 CURVE SMOOTH",
"742 526 OFFCURVE",
"591 670 OFFCURVE",
"388 670 CURVE SMOOTH",
"186 670 OFFCURVE",
"35 526 OFFCURVE",
"35 330 CURVE SMOOTH",
"35 134 OFFCURVE",
"186 -10 OFFCURVE",
"388 -10 CURVE SMOOTH"
);
},
{
closed = 1;
nodes = (
"309 43 OFFCURVE",
"235 169 OFFCURVE",
"235 361 CURVE SMOOTH",
"235 518 OFFCURVE",
"296 618 OFFCURVE",
"377 618 CURVE SMOOTH",
"470 618 OFFCURVE",
"542 493 OFFCURVE",
"542 301 CURVE SMOOTH",
"542 144 OFFCURVE",
"485 43 OFFCURVE",
"401 43 CURVE SMOOTH"
);
}
);
width = 777;
}
);
leftKerningGroup = kern_O2;
rightKerningGroup = kern_O1;
unicode = 004F;
},
{
color = 5;
glyphname = P;
layers = (
{
layerId = m01;
paths = (
{
closed = 1;
nodes = (
"301 0 LINE SMOOTH",
"310 0 OFFCURVE",
"315 3 OFFCURVE",
"315 10 CURVE SMOOTH",
"315 24 OFFCURVE",
"235 43 OFFCURVE",
"235 76 CURVE SMOOTH",
"235 579 LINE SMOOTH",
"235 599 OFFCURVE",
"249 605 OFFCURVE",
"265 605 CURVE SMOOTH",
"406 605 OFFCURVE",
"489 586 OFFCURVE",
"489 473 CURVE SMOOTH",
"489 398 OFFCURVE",
"419 341 OFFCURVE",
"321 336 CURVE SMOOTH",
"306 335 OFFCURVE",
"290 328 OFFCURVE",
"290 315 CURVE SMOOTH",
"290 298 OFFCURVE",
"306 291 OFFCURVE",
"321 291 CURVE SMOOTH",
"457 291 OFFCURVE",
"586 372 OFFCURVE",
"586 481 CURVE SMOOTH",
"586 605 OFFCURVE",
"482 660 OFFCURVE",
"325 660 CURVE SMOOTH",
"75 660 LINE SMOOTH",
"67 660 OFFCURVE",
"65 653 OFFCURVE",
"65 648 CURVE SMOOTH",
"65 633 OFFCURVE",
"145 615 OFFCURVE",
"145 586 CURVE SMOOTH",
"145 76 LINE SMOOTH",
"145 43 OFFCURVE",
"65 24 OFFCURVE",
"65 10 CURVE SMOOTH",
"65 3 OFFCURVE",
"69 0 OFFCURVE",
"79 0 CURVE SMOOTH"
);
}
);
width = 638;
},
{
layerId = m002;
paths = (
{
closed = 1;
nodes = (
"375 0 LINE SMOOTH",
"384 0 OFFCURVE",
"389 3 OFFCURVE",
"389 10 CURVE SMOOTH",
"389 24 OFFCURVE",
"309 43 OFFCURVE",
"309 76 CURVE SMOOTH",
"309 579 LINE SMOOTH",
"309 599 OFFCURVE",
"323 605 OFFCURVE",
"339 605 CURVE SMOOTH",
"404 605 OFFCURVE",
"503 586 OFFCURVE",
"503 473 CURVE SMOOTH",
"503 398 OFFCURVE",
"460 361 OFFCURVE",
"389 351 CURVE SMOOTH",
"376 349 OFFCURVE",
"360 342 OFFCURVE",
"360 324 CURVE SMOOTH",
"360 301 OFFCURVE",
"376 296 OFFCURVE",
"389 296 CURVE SMOOTH",
"585 296 OFFCURVE",
"694 372 OFFCURVE",
"694 481 CURVE SMOOTH",
"694 605 OFFCURVE",
"590 660 OFFCURVE",
"433 660 CURVE SMOOTH",
"40 660 LINE SMOOTH",
"32 660 OFFCURVE",
"30 653 OFFCURVE",
"30 648 CURVE SMOOTH",
"30 633 OFFCURVE",
"119 615 OFFCURVE",
"119 586 CURVE SMOOTH",
"119 76 LINE SMOOTH",
"119 43 OFFCURVE",
"30 24 OFFCURVE",
"30 10 CURVE SMOOTH",
"30 3 OFFCURVE",
"34 0 OFFCURVE",
"44 0 CURVE SMOOTH"
);
}
);
width = 713;
}
);
leftKerningGroup = kern_H2;
rightKerningGroup = kern_P1;
unicode = 0050;
},
{
color = 5;
glyphname = Q;
layers = (
{
layerId = m01;
paths = (
{
closed = 1;
nodes = (
"281 40 OFFCURVE",
"167 168 OFFCURVE",
"167 363 CURVE SMOOTH",
"167 521 OFFCURVE",
"258 621 OFFCURVE",
"386 621 CURVE SMOOTH",
"528 621 OFFCURVE",
"640 494 OFFCURVE",
"640 299 CURVE SMOOTH",
"640 141 OFFCURVE",
"552 40 OFFCURVE",
"424 40 CURVE SMOOTH"
);
},
{
closed = 1;
nodes = (
"797 -192 OFFCURVE",
"853 -134 OFFCURVE",
"853 -114 CURVE SMOOTH",
"853 -108 OFFCURVE",
"848 -104 OFFCURVE",
"843 -104 CURVE SMOOTH",
"833 -104 OFFCURVE",
"811 -115 OFFCURVE",
"767 -115 CURVE SMOOTH",
"695 -115 OFFCURVE",
"624 -90 OFFCURVE",
"534 -25 CURVE SMOOTH",
"519 -14 OFFCURVE",
"514 -6 OFFCURVE",
"514 0 CURVE SMOOTH",
"514 7 OFFCURVE",
"520 9 OFFCURVE",
"530 13 CURVE SMOOTH",
"655 61 OFFCURVE",
"737 181 OFFCURVE",
"737 330 CURVE SMOOTH",
"737 526 OFFCURVE",
"595 670 OFFCURVE",
"403 670 CURVE SMOOTH",
"212 670 OFFCURVE",
"70 526 OFFCURVE",
"70 330 CURVE SMOOTH",
"70 143 OFFCURVE",
"204 14 OFFCURVE",
"355 -6 CURVE SMOOTH",
"515 -27 OFFCURVE",
"512 -192 OFFCURVE",
"712 -192 CURVE SMOOTH"
);
}
);
width = 807;
},
{
layerId = m002;
paths = (
{
closed = 1;
nodes = (
"283 43 OFFCURVE",
"236 208 OFFCURVE",
"236 363 CURVE SMOOTH",
"236 521 OFFCURVE",
"292 618 OFFCURVE",
"386 618 CURVE SMOOTH",
"468 618 OFFCURVE",
"541 494 OFFCURVE",
"541 299 CURVE SMOOTH",
"541 141 OFFCURVE",
"480 43 OFFCURVE",
"409 43 CURVE SMOOTH"
);
},
{
closed = 1;
nodes = (
"767 -192 OFFCURVE",
"853 -142 OFFCURVE",
"853 -121 CURVE SMOOTH",
"853 -111 OFFCURVE",
"848 -104 OFFCURVE",
"837 -104 CURVE SMOOTH",
"827 -104 OFFCURVE",
"801 -115 OFFCURVE",
"767 -115 CURVE SMOOTH",
"705 -115 OFFCURVE",
"648 -99 OFFCURVE",
"543 -15 CURVE SMOOTH",
"528 -3 OFFCURVE",
"523 4 OFFCURVE",
"523 10 CURVE SMOOTH",
"523 17 OFFCURVE",
"529 19 OFFCURVE",
"539 23 CURVE SMOOTH",
"664 71 OFFCURVE",
"742 181 OFFCURVE",
"742 330 CURVE SMOOTH",
"742 526 OFFCURVE",
"595 670 OFFCURVE",
"403 670 CURVE SMOOTH",
"182 670 OFFCURVE",
"34 526 OFFCURVE",
"34 330 CURVE SMOOTH",
"34 116 OFFCURVE",
"209 4 OFFCURVE",
"332 -6 CURVE SMOOTH",
"481 -18 OFFCURVE",
"482 -192 OFFCURVE",
"712 -192 CURVE SMOOTH"
);
}
);
width = 777;
}
);
leftKerningGroup = kern_O2;
rightKerningGroup = kern_O1;
unicode = 0051;
},
{
color = 5;
glyphname = R;
layers = (
{
anchors = (
{
name = bottom;
position = "{367, 0}";
},
{
name = top;
position = "{317, 710}";
}
);
layerId = m01;
paths = (
{
closed = 1;
nodes = (
"301 0 LINE SMOOTH",
"310 0 OFFCURVE",
"315 3 OFFCURVE",
"315 10 CURVE SMOOTH",
"315 24 OFFCURVE",
"235 43 OFFCURVE",
"235 76 CURVE SMOOTH",
"235 288 LINE SMOOTH",
"235 298 OFFCURVE",
"239 303 OFFCURVE",
"249 303 CURVE SMOOTH",
"311 303 LINE SMOOTH",
"323 303 OFFCURVE",
"329 301 OFFCURVE",
"335 292 CURVE SMOOTH",
"509 20 LINE SMOOTH",
"514 12 OFFCURVE",
"523 0 OFFCURVE",
"544 0 CURVE SMOOTH",
"650 0 LINE SMOOTH",
"660 0 OFFCURVE",
"668 1 OFFCURVE",
"668 10 CURVE SMOOTH",
"668 23 OFFCURVE",
"608 40 OFFCURVE",
"596 57 CURVE SMOOTH",
"425 308 LINE SMOOTH",
"419 317 OFFCURVE",
"417 321 OFFCURVE",
"417 326 CURVE SMOOTH",
"417 331 OFFCURVE",
"425 334 OFFCURVE",
"429 336 CURVE SMOOTH",
"461 351 OFFCURVE",
"549 392 OFFCURVE",
"549 498 CURVE SMOOTH",
"549 582 OFFCURVE",
"482 660 OFFCURVE",
"325 660 CURVE SMOOTH",
"75 660 LINE SMOOTH",
"67 660 OFFCURVE",
"65 653 OFFCURVE",
"65 648 CURVE SMOOTH",
"65 633 OFFCURVE",
"145 615 OFFCURVE",
"145 586 CURVE SMOOTH",
"145 76 LINE SMOOTH",
"145 43 OFFCURVE",
"65 24 OFFCURVE",
"65 10 CURVE SMOOTH",
"65 3 OFFCURVE",
"69 0 OFFCURVE",
"79 0 CURVE SMOOTH"
);
},
{
closed = 1;
nodes = (
"239 358 OFFCURVE",
"235 368 OFFCURVE",
"235 381 CURVE SMOOTH",
"235 579 LINE SMOOTH",
"235 599 OFFCURVE",
"249 605 OFFCURVE",
"265 605 CURVE SMOOTH",
"288 605 LINE SMOOTH",
"408 605 OFFCURVE",
"452 552 OFFCURVE",
"452 483 CURVE SMOOTH",
"452 399 OFFCURVE",
"372 358 OFFCURVE",
"311 358 CURVE SMOOTH",
"251 358 LINE SMOOTH"
);
}
);
width = 661;
},
{
anchors = (
{
name = bottom;
position = "{428, 0}";
},
{
name = top;
position = "{357, 710}";
}
);
layerId = m002;
paths = (
{
closed = 1;
nodes = (
"374 0 LINE SMOOTH",
"380 0 OFFCURVE",
"384 4 OFFCURVE",
"384 10 CURVE SMOOTH",
"384 26 OFFCURVE",
"309 44 OFFCURVE",
"309 79 CURVE SMOOTH",
"309 298 LINE SMOOTH",
"309 304 OFFCURVE",
"313 308 OFFCURVE",
"319 308 CURVE SMOOTH",
"329 308 LINE SMOOTH",
"337 308 OFFCURVE",
"341 301 OFFCURVE",
"344 296 CURVE SMOOTH",
"504 20 LINE SMOOTH",
"510 10 OFFCURVE",
"518 0 OFFCURVE",
"539 0 CURVE SMOOTH",
"761 0 LINE SMOOTH",
"771 0 OFFCURVE",
"779 1 OFFCURVE",
"779 10 CURVE SMOOTH",
"779 23 OFFCURVE",
"718 40 OFFCURVE",
"707 57 CURVE SMOOTH",
"534 326 LINE SMOOTH",
"528 335 OFFCURVE",
"526 339 OFFCURVE",
"526 344 CURVE SMOOTH",
"526 349 OFFCURVE",
"534 352 OFFCURVE",
"538 354 CURVE SMOOTH",
"580 369 OFFCURVE",
"653 410 OFFCURVE",
"653 500 CURVE SMOOTH",
"653 584 OFFCURVE",
"596 660 OFFCURVE",
"409 660 CURVE SMOOTH",
"40 660 LINE SMOOTH",
"32 660 OFFCURVE",
"30 653 OFFCURVE",
"30 648 CURVE SMOOTH",
"30 633 OFFCURVE",
"119 615 OFFCURVE",
"119 586 CURVE SMOOTH",
"119 76 LINE SMOOTH",
"119 43 OFFCURVE",
"30 24 OFFCURVE",
"30 10 CURVE SMOOTH",
"30 3 OFFCURVE",
"34 0 OFFCURVE",
"44 0 CURVE SMOOTH"
);
},
{
closed = 1;
nodes = (
"313 353 OFFCURVE",
"309 357 OFFCURVE",
"309 363 CURVE SMOOTH",
"309 595 LINE SMOOTH",
"309 601 OFFCURVE",
"313 605 OFFCURVE",
"319 605 CURVE SMOOTH",
"342 605 LINE SMOOTH",
"401 605 OFFCURVE",
"466 574 OFFCURVE",
"466 485 CURVE SMOOTH",
"466 401 OFFCURVE",
"422 353 OFFCURVE",
"335 353 CURVE SMOOTH",
"319 353 LINE SMOOTH"
);
}
);
width = 770;
}
);
leftKerningGroup = kern_H2;
rightKerningGroup = kern_R1;
unicode = 0052;
},
{
color = 5;
glyphname = S;
layers = (
{
anchors = (
{
name = bottom;
position = "{272, 0}";
},
{
name = top;
position = "{272, 710}";
}
);
layerId = m01;
paths = (
{
closed = 1;
nodes = (
"356 -10 OFFCURVE",
"476 55 OFFCURVE",
"476 180 CURVE SMOOTH",
"476 282 OFFCURVE",
"420 319 OFFCURVE",
"299 378 CURVE SMOOTH",
"211 421 OFFCURVE",
"171 450 OFFCURVE",
"171 518 CURVE SMOOTH",
"171 577 OFFCURVE",
"213 622 OFFCURVE",
"272 622 CURVE SMOOTH",
"317 622 OFFCURVE",
"383 597 OFFCURVE",
"400 557 CURVE SMOOTH",
"435 477 LINE SMOOTH",
"437 472 OFFCURVE",
"441 468 OFFCURVE",
"447 468 CURVE SMOOTH",
"454 468 OFFCURVE",
"455 472 OFFCURVE",
"454 483 CURVE SMOOTH",
"446 604 LINE SMOOTH",
"443 648 OFFCURVE",
"352 670 OFFCURVE",
"280 670 CURVE SMOOTH",
"179 670 OFFCURVE",
"81 577 OFFCURVE",
"81 487 CURVE SMOOTH",
"81 395 OFFCURVE",
"134 357 OFFCURVE",
"228 310 CURVE SMOOTH",
"328 260 OFFCURVE",
"390 239 OFFCURVE",
"390 152 CURVE SMOOTH",
"390 81 OFFCURVE",
"343 37 OFFCURVE",
"264 37 CURVE SMOOTH",
"188 37 OFFCURVE",
"131 80 OFFCURVE",
"116 113 CURVE SMOOTH",
"83 185 LINE SMOOTH",
"79 193 OFFCURVE",
"75 198 OFFCURVE",
"69 198 CURVE SMOOTH",
"63 198 OFFCURVE",
"60 193 OFFCURVE",
"61 185 CURVE SMOOTH",
"69 57 LINE SMOOTH",
"72 15 OFFCURVE",
"172 -10 OFFCURVE",
"264 -10 CURVE SMOOTH"
);
}
);
width = 531;
},
{
anchors = (
{
name = bottom;
position = "{297, 0}";
},
{
name = top;
position = "{318, 710}";
}
);
layerId = m002;
paths = (
{
closed = 1;
nodes = (
"396 -10 OFFCURVE",
"556 54 OFFCURVE",
"556 199 CURVE SMOOTH",
"556 289 OFFCURVE",
"522 340 OFFCURVE",
"353 422 CURVE SMOOTH",
"297 449 OFFCURVE",
"245 466 OFFCURVE",
"245 534 CURVE SMOOTH",
"245 593 OFFCURVE",
"293 615 OFFCURVE",
"342 615 CURVE SMOOTH",
"387 615 OFFCURVE",
"413 592 OFFCURVE",
"446 563 CURVE SMOOTH",
"504 511 LINE SMOOTH",
"508 508 OFFCURVE",
"516 503 OFFCURVE",
"522 503 CURVE SMOOTH",
"529 503 OFFCURVE",
"534 506 OFFCURVE",
"533 517 CURVE SMOOTH",
"525 607 LINE SMOOTH",
"521 651 OFFCURVE",
"402 670 OFFCURVE",
"340 670 CURVE SMOOTH",
"159 670 OFFCURVE",
"61 547 OFFCURVE",
"61 457 CURVE SMOOTH",
"61 365 OFFCURVE",
"113 312 OFFCURVE",
"228 262 CURVE SMOOTH",
"330 218 OFFCURVE",
"375 199 OFFCURVE",
"375 142 CURVE SMOOTH",
"375 71 OFFCURVE",
"323 44 OFFCURVE",
"264 44 CURVE SMOOTH",
"188 44 OFFCURVE",
"148 84 OFFCURVE",
"126 113 CURVE SMOOTH",
"63 195 LINE SMOOTH",
"57 202 OFFCURVE",
"55 208 OFFCURVE",
"49 208 CURVE SMOOTH",
"43 208 OFFCURVE",
"41 203 OFFCURVE",
"41 195 CURVE SMOOTH",
"49 57 LINE SMOOTH",
"51 15 OFFCURVE",
"182 -10 OFFCURVE",
"264 -10 CURVE SMOOTH"
);
}
);
width = 599;
}
);
leftKerningGroup = kern_S3;
rightKerningGroup = kern_S3;
unicode = 0053;
},
{
color = 5;
glyphname = T;
layers = (
{
anchors = (
{
name = bottom;
position = "{337, 0}";
},
{
name = top;
position = "{337, 710}";
}
);
layerId = m01;
paths = (
{
closed = 1;
nodes = (
"468 0 LINE SMOOTH",
"477 0 OFFCURVE",
"482 4 OFFCURVE",
"482 10 CURVE SMOOTH",
"482 29 OFFCURVE",
"382 43 OFFCURVE",
"382 76 CURVE SMOOTH",
"382 586 LINE SMOOTH",
"382 597 OFFCURVE",
"389 605 OFFCURVE",
"398 605 CURVE SMOOTH",
"527 605 LINE SMOOTH",
"541 605 OFFCURVE",
"546 601 OFFCURVE",
"551 592 CURVE SMOOTH",
"609 497 LINE SMOOTH",
"613 490 OFFCURVE",
"616 488 OFFCURVE",
"621 488 CURVE SMOOTH",
"626 488 OFFCURVE",
"629 491 OFFCURVE",
"629 497 CURVE SMOOTH",
"629 646 LINE SMOOTH",
"629 655 OFFCURVE",
"623 660 OFFCURVE",
"615 660 CURVE SMOOTH",
"59 660 LINE SMOOTH",
"51 660 OFFCURVE",
"45 655 OFFCURVE",
"45 646 CURVE SMOOTH",
"45 497 LINE SMOOTH",
"45 491 OFFCURVE",
"48 488 OFFCURVE",
"53 488 CURVE SMOOTH",
"58 488 OFFCURVE",
"61 490 OFFCURVE",
"65 497 CURVE SMOOTH",
"123 592 LINE SMOOTH",
"128 601 OFFCURVE",
"133 605 OFFCURVE",
"147 605 CURVE SMOOTH",
"276 605 LINE SMOOTH",
"282 605 OFFCURVE",
"292 597 OFFCURVE",
"292 586 CURVE SMOOTH",
"292 76 LINE SMOOTH",
"292 43 OFFCURVE",
"192 28 OFFCURVE",
"192 10 CURVE SMOOTH",
"192 3 OFFCURVE",
"196 0 OFFCURVE",
"206 0 CURVE SMOOTH"
);
}
);
width = 674;
},
{
anchors = (
{
name = bottom;
position = "{359, 0}";
},
{
name = top;
position = "{359, 710}";
}
);
layerId = m002;
paths = (
{
closed = 1;
nodes = (
"550 0 LINE SMOOTH",
"559 0 OFFCURVE",
"564 4 OFFCURVE",
"564 10 CURVE SMOOTH",
"564 31 OFFCURVE",
"454 43 OFFCURVE",
"454 76 CURVE SMOOTH",
"454 586 LINE SMOOTH",
"454 597 OFFCURVE",
"461 605 OFFCURVE",
"470 605 CURVE SMOOTH",
"566 605 LINE SMOOTH",
"580 605 OFFCURVE",
"584 600 OFFCURVE",
"590 592 CURVE SMOOTH",
"668 498 LINE SMOOTH",
"673 491 OFFCURVE",
"675 489 OFFCURVE",
"680 489 CURVE SMOOTH",
"685 489 OFFCURVE",
"688 492 OFFCURVE",
"688 498 CURVE SMOOTH",
"688 646 LINE SMOOTH",
"688 655 OFFCURVE",
"682 660 OFFCURVE",
"674 660 CURVE SMOOTH",
"44 660 LINE SMOOTH",
"36 660 OFFCURVE",
"30 655 OFFCURVE",
"30 646 CURVE SMOOTH",
"30 498 LINE SMOOTH",
"30 492 OFFCURVE",
"33 489 OFFCURVE",
"38 489 CURVE SMOOTH",
"43 489 OFFCURVE",
"46 491 OFFCURVE",
"51 498 CURVE SMOOTH",
"127 592 LINE SMOOTH",
"133 600 OFFCURVE",
"137 605 OFFCURVE",
"151 605 CURVE SMOOTH",
"248 605 LINE SMOOTH",
"254 605 OFFCURVE",
"264 597 OFFCURVE",
"264 586 CURVE SMOOTH",
"264 76 LINE SMOOTH",
"264 43 OFFCURVE",
"154 28 OFFCURVE",
"154 10 CURVE SMOOTH",
"154 3 OFFCURVE",
"158 0 OFFCURVE",
"168 0 CURVE SMOOTH"
);
}
);
width = 718;
}
);
leftKerningGroup = kern_T2;
rightKerningGroup = kern_T1;
unicode = 0054;
},
{
color = 5;
glyphname = U;
layers = (
{
anchors = (
{
name = bottom;
position = "{402, 0}";
},
{
name = right;
position = "{431, 0}";
},
{
name = top;
position = "{415, 710}";
}
);
layerId = m01;
paths = (
{
closed = 1;
nodes = (
"554 -10 OFFCURVE",
"665 70 OFFCURVE",
"665 256 CURVE SMOOTH",
"665 574 LINE SMOOTH",
"665 615 OFFCURVE",
"745 636 OFFCURVE",
"745 651 CURVE SMOOTH",
"745 656 OFFCURVE",
"740 660 OFFCURVE",
"730 660 CURVE SMOOTH",
"510 660 LINE SMOOTH",
"500 660 OFFCURVE",
"495 656 OFFCURVE",
"495 651 CURVE SMOOTH",
"495 636 OFFCURVE",
"595 615 OFFCURVE",
"595 574 CURVE SMOOTH",
"595 236 LINE SMOOTH",
"595 101 OFFCURVE",
"519 48 OFFCURVE",
"431 48 CURVE SMOOTH",
"321 48 OFFCURVE",
"235 105 OFFCURVE",
"235 271 CURVE SMOOTH",
"235 574 LINE SMOOTH",
"235 615 OFFCURVE",
"315 636 OFFCURVE",
"315 651 CURVE SMOOTH",
"315 656 OFFCURVE",
"310 660 OFFCURVE",
"300 660 CURVE SMOOTH",
"80 660 LINE SMOOTH",
"70 660 OFFCURVE",
"65 656 OFFCURVE",
"65 651 CURVE SMOOTH",
"65 636 OFFCURVE",
"145 615 OFFCURVE",
"145 574 CURVE SMOOTH",
"145 256 LINE SMOOTH",
"145 70 OFFCURVE",
"256 -10 OFFCURVE",
"405 -10 CURVE SMOOTH"
);
}
);
width = 809;
},
{
anchors = (
{
name = bottom;
position = "{468, 0}";
},
{
name = right;
position = "{479, 0}";
},
{
name = top;
position = "{483, 710}";
}
);
layerId = m002;
paths = (
{
closed = 1;
nodes = (
"551 -10 OFFCURVE",
"736 20 OFFCURVE",
"736 286 CURVE SMOOTH",
"736 574 LINE SMOOTH",
"736 615 OFFCURVE",
"826 636 OFFCURVE",
"826 651 CURVE SMOOTH",
"826 656 OFFCURVE",
"821 660 OFFCURVE",
"811 660 CURVE SMOOTH",
"591 660 LINE SMOOTH",
"581 660 OFFCURVE",
"576 656 OFFCURVE",
"576 651 CURVE SMOOTH",
"576 636 OFFCURVE",
"666 615 OFFCURVE",
"666 574 CURVE SMOOTH",
"666 246 LINE SMOOTH",
"666 133 OFFCURVE",
"591 76 OFFCURVE",
"503 76 CURVE SMOOTH",
"423 76 OFFCURVE",
"310 105 OFFCURVE",
"310 271 CURVE SMOOTH",
"310 574 LINE SMOOTH",
"310 615 OFFCURVE",
"400 636 OFFCURVE",
"400 651 CURVE SMOOTH",
"400 656 OFFCURVE",
"395 660 OFFCURVE",
"385 660 CURVE SMOOTH",
"45 660 LINE SMOOTH",
"35 660 OFFCURVE",
"30 656 OFFCURVE",
"30 651 CURVE SMOOTH",
"30 636 OFFCURVE",
"120 615 OFFCURVE",
"120 574 CURVE SMOOTH",
"120 276 LINE SMOOTH",
"120 86 OFFCURVE",
"238 -10 OFFCURVE",
"422 -10 CURVE SMOOTH"
);
}
);
width = 856;
}
);
leftKerningGroup = kern_U2;
rightKerningGroup = kern_U1;
unicode = 0055;
},
{
color = 5;
glyphname = V;
layers = (
{
layerId = m01;
paths = (
{
closed = 1;
nodes = (
"384 -20 OFFCURVE",
"388 -13 OFFCURVE",
"391 -5 CURVE SMOOTH",
"643 602 LINE SMOOTH",
"651 621 OFFCURVE",
"705 636 OFFCURVE",
"705 652 CURVE SMOOTH",
"705 657 OFFCURVE",
"701 660 OFFCURVE",
"695 660 CURVE SMOOTH",
"505 660 LINE SMOOTH",
"500 660 OFFCURVE",
"495 657 OFFCURVE",
"495 652 CURVE SMOOTH",
"495 636 OFFCURVE",
"573 616 OFFCURVE",
"573 601 CURVE SMOOTH",
"573 598 OFFCURVE",
"572 593 OFFCURVE",
"570 588 CURVE SMOOTH",
"401 168 LINE SMOOTH",
"397 158 OFFCURVE",
"394 154 OFFCURVE",
"388 154 CURVE SMOOTH",
"383 154 OFFCURVE",
"380 157 OFFCURVE",
"376 168 CURVE SMOOTH",
"208 581 LINE SMOOTH",
"204 590 OFFCURVE",
"201 598 OFFCURVE",
"201 604 CURVE SMOOTH",
"201 613 OFFCURVE",
"285 638 OFFCURVE",
"285 649 CURVE SMOOTH",
"285 654 OFFCURVE",
"280 660 OFFCURVE",
"275 660 CURVE SMOOTH",
"45 660 LINE SMOOTH",
"40 660 OFFCURVE",
"35 654 OFFCURVE",
"35 649 CURVE SMOOTH",
"35 638 OFFCURVE",
"100 621 OFFCURVE",
"111 593 CURVE SMOOTH",
"356 -5 LINE SMOOTH",
"358 -10 OFFCURVE",
"364 -20 OFFCURVE",
"372 -20 CURVE SMOOTH"
);
}
);
width = 740;
},
{
layerId = m002;
paths = (
{
closed = 1;
nodes = (
"416 -20 OFFCURVE",
"427 -13 OFFCURVE",
"431 -5 CURVE SMOOTH",
"707 602 LINE SMOOTH",
"716 621 OFFCURVE",
"770 636 OFFCURVE",
"770 652 CURVE SMOOTH",
"770 657 OFFCURVE",
"766 660 OFFCURVE",
"760 660 CURVE SMOOTH",
"563 660 LINE SMOOTH",
"558 660 OFFCURVE",
"553 657 OFFCURVE",
"553 652 CURVE SMOOTH",
"553 636 OFFCURVE",
"631 616 OFFCURVE",
"631 601 CURVE SMOOTH",
"631 598 OFFCURVE",
"628 593 OFFCURVE",
"626 588 CURVE SMOOTH",
"470 240 LINE SMOOTH",
"468 235 OFFCURVE",
"465 233 OFFCURVE",
"459 233 CURVE SMOOTH",
"454 233 OFFCURVE",
"452 236 OFFCURVE",
"450 240 CURVE SMOOTH",
"293 581 LINE SMOOTH",
"289 590 OFFCURVE",
"286 598 OFFCURVE",
"286 604 CURVE SMOOTH",
"286 613 OFFCURVE",
"362 638 OFFCURVE",
"362 649 CURVE SMOOTH",
"362 654 OFFCURVE",
"357 660 OFFCURVE",
"352 660 CURVE SMOOTH",
"20 660 LINE SMOOTH",
"15 660 OFFCURVE",
"10 654 OFFCURVE",
"10 649 CURVE SMOOTH",
"10 638 OFFCURVE",
"73 621 OFFCURVE",
"86 593 CURVE SMOOTH",
"356 -5 LINE SMOOTH",
"358 -10 OFFCURVE",
"366 -20 OFFCURVE",
"391 -20 CURVE SMOOTH"
);
}
);
width = 780;
}
);
leftKerningGroup = kern_V3;
rightKerningGroup = kern_V3;
unicode = 0056;
},
{
color = 5;
glyphname = W;
layers = (
{
anchors = (
{
name = top;
position = "{506, 710}";
}
);
layerId = m01;
paths = (
{
closed = 1;
nodes = (
"304 -18 OFFCURVE",
"306 -13 OFFCURVE",
"309 -5 CURVE SMOOTH",
"486 471 LINE SMOOTH",
"488 476 OFFCURVE",
"490 478 OFFCURVE",
"494 478 CURVE SMOOTH",
"498 478 OFFCURVE",
"500 475 OFFCURVE",
"502 469 CURVE SMOOTH",
"678 -5 LINE SMOOTH",
"680 -10 OFFCURVE",
"685 -16 OFFCURVE",
"695 -16 CURVE SMOOTH",
"707 -16 OFFCURVE",
"711 -13 OFFCURVE",
"713 -5 CURVE SMOOTH",
"896 599 LINE SMOOTH",
"902 618 OFFCURVE",
"967 634 OFFCURVE",
"967 652 CURVE SMOOTH",
"967 657 OFFCURVE",
"963 660 OFFCURVE",
"957 660 CURVE SMOOTH",
"755 660 LINE SMOOTH",
"750 660 OFFCURVE",
"745 657 OFFCURVE",
"745 652 CURVE SMOOTH",
"745 634 OFFCURVE",
"826 613 OFFCURVE",
"826 603 CURVE SMOOTH",
"826 597 OFFCURVE",
"826 593 OFFCURVE",
"825 588 CURVE SMOOTH",
"713 195 LINE SMOOTH",
"710 185 OFFCURVE",
"708 183 OFFCURVE",
"704 183 CURVE SMOOTH",
"699 183 OFFCURVE",
"697 185 OFFCURVE",
"694 193 CURVE SMOOTH",
"529 651 LINE SMOOTH",
"525 663 OFFCURVE",
"519 665 OFFCURVE",
"505 665 CURVE SMOOTH",
"492 665 OFFCURVE",
"486 662 OFFCURVE",
"482 651 CURVE SMOOTH",
"319 188 LINE SMOOTH",
"318 185 OFFCURVE",
"316 179 OFFCURVE",
"312 179 CURVE SMOOTH",
"308 179 OFFCURVE",
"306 184 OFFCURVE",
"305 188 CURVE SMOOTH",
"192 580 LINE SMOOTH",
"188 595 OFFCURVE",
"188 598 OFFCURVE",
"188 604 CURVE SMOOTH",
"188 613 OFFCURVE",
"269 634 OFFCURVE",
"269 650 CURVE SMOOTH",
"269 656 OFFCURVE",
"266 660 OFFCURVE",
"259 660 CURVE SMOOTH",
"26 660 LINE SMOOTH",
"18 660 OFFCURVE",
"15 656 OFFCURVE",
"15 650 CURVE SMOOTH",
"15 634 OFFCURVE",
"87 617 OFFCURVE",
"95 592 CURVE SMOOTH",
"274 -3 LINE SMOOTH",
"276 -10 OFFCURVE",
"283 -18 OFFCURVE",
"292 -18 CURVE SMOOTH"
);
}
);
width = 981;
},
{
anchors = (
{
name = top;
position = "{606, 710}";
}
);
layerId = m002;
paths = (
{
closed = 1;
nodes = (
"349 -18 OFFCURVE",
"355 -13 OFFCURVE",
"359 -5 CURVE SMOOTH",
"540 399 LINE SMOOTH",
"542 404 OFFCURVE",
"544 408 OFFCURVE",
"548 408 CURVE SMOOTH",
"552 408 OFFCURVE",
"555 405 OFFCURVE",
"557 399 CURVE SMOOTH",
"728 -5 LINE SMOOTH",
"730 -10 OFFCURVE",
"740 -16 OFFCURVE",
"765 -16 CURVE SMOOTH",
"794 -16 OFFCURVE",
"800 -13 OFFCURVE",
"803 -5 CURVE SMOOTH",
"1000 599 LINE SMOOTH",
"1006 618 OFFCURVE",
"1071 634 OFFCURVE",
"1071 652 CURVE SMOOTH",
"1071 657 OFFCURVE",
"1067 660 OFFCURVE",
"1061 660 CURVE SMOOTH",
"853 660 LINE SMOOTH",
"848 660 OFFCURVE",
"843 657 OFFCURVE",
"843 652 CURVE SMOOTH",
"843 634 OFFCURVE",
"926 613 OFFCURVE",
"926 603 CURVE SMOOTH",
"926 597 OFFCURVE",
"925 593 OFFCURVE",
"923 588 CURVE SMOOTH",
"823 266 LINE SMOOTH",
"820 256 OFFCURVE",
"820 255 OFFCURVE",
"816 255 CURVE SMOOTH",
"811 255 OFFCURVE",
"810 256 OFFCURVE",
"807 263 CURVE SMOOTH",
"648 651 LINE SMOOTH",
"643 663 OFFCURVE",
"632 665 OFFCURVE",
"603 665 CURVE SMOOTH",
"580 665 OFFCURVE",
"567 661 OFFCURVE",
"563 651 CURVE SMOOTH",
"397 255 LINE SMOOTH",
"396 252 OFFCURVE",
"397 250 OFFCURVE",
"393 250 CURVE SMOOTH",
"389 250 OFFCURVE",
"389 251 OFFCURVE",
"388 255 CURVE SMOOTH",
"287 580 LINE SMOOTH",
"282 595 OFFCURVE",
"283 598 OFFCURVE",
"283 604 CURVE SMOOTH",
"283 613 OFFCURVE",
"364 634 OFFCURVE",
"364 650 CURVE SMOOTH",
"364 656 OFFCURVE",
"361 660 OFFCURVE",
"354 660 CURVE SMOOTH",
"21 660 LINE SMOOTH",
"13 660 OFFCURVE",
"10 656 OFFCURVE",
"10 650 CURVE SMOOTH",
"10 634 OFFCURVE",
"83 616 OFFCURVE",
"91 591 CURVE SMOOTH",
"284 -3 LINE SMOOTH",
"286 -10 OFFCURVE",
"293 -18 OFFCURVE",
"322 -18 CURVE SMOOTH"
);
}
);
width = 1081;
}
);
leftKerningGroup = kern_W3;
rightKerningGroup = kern_W3;
unicode = 0057;
},
{
color = 5;
glyphname = X;
layers = (
{
layerId = m01;
paths = (
{
closed = 1;
nodes = (
"68 0 OFFCURVE",
"224 0 OFFCURVE",
"244 0 CURVE SMOOTH",
"255 0 OFFCURVE",
"260 5 OFFCURVE",
"260 14 CURVE SMOOTH",
"260 27 OFFCURVE",
"171 44 OFFCURVE",
"187 66 CURVE SMOOTH",
"332 258 LINE SMOOTH",
"341 270 OFFCURVE",
"345 274 OFFCURVE",
"353 274 CURVE SMOOTH",
"358 274 OFFCURVE",
"365 269 OFFCURVE",
"373 258 CURVE SMOOTH",
"516 66 LINE SMOOTH",
"535 40 OFFCURVE",
"450 24 OFFCURVE",
"450 12 CURVE SMOOTH",
"450 5 OFFCURVE",
"453 0 OFFCURVE",
"465 0 CURVE SMOOTH",
"687 0 LINE SMOOTH",
"699 0 OFFCURVE",
"705 3 OFFCURVE",
"705 10 CURVE SMOOTH",
"705 24 OFFCURVE",
"645 43 OFFCURVE",
"633 58 CURVE SMOOTH",
"436 317 LINE SMOOTH",
"426 330 OFFCURVE",
"420 339 OFFCURVE",
"420 346 CURVE SMOOTH",
"420 352 OFFCURVE",
"425 360 OFFCURVE",
"436 374 CURVE SMOOTH",
"608 596 LINE SMOOTH",
"620 612 OFFCURVE",
"680 636 OFFCURVE",
"680 652 CURVE SMOOTH",
"680 657 OFFCURVE",
"676 660 OFFCURVE",
"670 660 CURVE SMOOTH",
"480 660 LINE SMOOTH",
"473 660 OFFCURVE",
"470 657 OFFCURVE",
"470 652 CURVE SMOOTH",
"470 636 OFFCURVE",
"542 613 OFFCURVE",
"542 604 CURVE SMOOTH",
"542 600 OFFCURVE",
"540 595 OFFCURVE",
"536 590 CURVE SMOOTH",
"394 409 LINE SMOOTH",
"389 402 OFFCURVE",
"385 399 OFFCURVE",
"380 399 CURVE SMOOTH",
"375 399 OFFCURVE",
"371 403 OFFCURVE",
"368 407 CURVE SMOOTH",
"229 590 LINE SMOOTH",
"225 596 OFFCURVE",
"225 599 OFFCURVE",
"225 605 CURVE SMOOTH",
"225 612 OFFCURVE",
"300 639 OFFCURVE",
"300 649 CURVE SMOOTH",
"300 654 OFFCURVE",
"295 660 OFFCURVE",
"290 660 CURVE SMOOTH",
"60 660 LINE SMOOTH",
"55 660 OFFCURVE",
"50 658 OFFCURVE",
"50 651 CURVE SMOOTH",
"50 637 OFFCURVE",
"108 616 OFFCURVE",
"122 597 CURVE SMOOTH",
"305 346 LINE SMOOTH",
"309 340 OFFCURVE",
"318 335 OFFCURVE",
"318 328 CURVE SMOOTH",
"318 322 OFFCURVE",
"309 317 OFFCURVE",
"305 312 CURVE SMOOTH",
"115 62 LINE SMOOTH",
"101 44 OFFCURVE",
"35 28 OFFCURVE",
"35 9 CURVE SMOOTH",
"35 3 OFFCURVE",
"38 0 OFFCURVE",
"46 0 CURVE SMOOTH"
);
}
);
width = 740;
},
{
layerId = m002;
paths = (
{
closed = 1;
nodes = (
"53 0 OFFCURVE",
"234 0 OFFCURVE",
"254 0 CURVE SMOOTH",
"265 0 OFFCURVE",
"270 5 OFFCURVE",
"270 14 CURVE SMOOTH",
"270 27 OFFCURVE",
"184 45 OFFCURVE",
"201 66 CURVE SMOOTH",
"327 222 LINE SMOOTH",
"338 236 OFFCURVE",
"340 239 OFFCURVE",
"345 239 CURVE SMOOTH",
"348 239 OFFCURVE",
"351 235 OFFCURVE",
"360 222 CURVE SMOOTH",
"465 66 LINE SMOOTH",
"476 50 OFFCURVE",
"399 24 OFFCURVE",
"399 12 CURVE SMOOTH",
"399 5 OFFCURVE",
"402 0 OFFCURVE",
"414 0 CURVE SMOOTH",
"768 0 LINE SMOOTH",
"780 0 OFFCURVE",
"786 3 OFFCURVE",
"786 10 CURVE SMOOTH",
"786 24 OFFCURVE",
"725 43 OFFCURVE",
"714 58 CURVE SMOOTH",
"508 350 LINE SMOOTH",
"501 359 OFFCURVE",
"499 366 OFFCURVE",
"499 373 CURVE SMOOTH",
"499 379 OFFCURVE",
"501 384 OFFCURVE",
"511 395 CURVE SMOOTH",
"689 602 LINE SMOOTH",
"702 618 OFFCURVE",
"765 636 OFFCURVE",
"765 652 CURVE SMOOTH",
"765 657 OFFCURVE",
"761 660 OFFCURVE",
"755 660 CURVE SMOOTH",
"524 660 LINE SMOOTH",
"517 660 OFFCURVE",
"514 657 OFFCURVE",
"514 652 CURVE SMOOTH",
"514 632 OFFCURVE",
"591 608 OFFCURVE",
"591 599 CURVE SMOOTH",
"591 595 OFFCURVE",
"585 587 OFFCURVE",
"580 581 CURVE SMOOTH",
"468 441 LINE SMOOTH",
"462 433 OFFCURVE",
"459 431 OFFCURVE",
"454 431 CURVE SMOOTH",
"451 431 OFFCURVE",
"447 437 OFFCURVE",
"444 441 CURVE SMOOTH",
"347 579 LINE SMOOTH",
"342 587 OFFCURVE",
"337 594 OFFCURVE",
"337 600 CURVE SMOOTH",
"337 607 OFFCURVE",
"412 639 OFFCURVE",
"412 649 CURVE SMOOTH",
"412 654 OFFCURVE",
"407 660 OFFCURVE",
"402 660 CURVE SMOOTH",
"41 660 LINE SMOOTH",
"36 660 OFFCURVE",
"31 658 OFFCURVE",
"31 651 CURVE SMOOTH",
"31 637 OFFCURVE",
"90 616 OFFCURVE",
"103 597 CURVE SMOOTH",
"293 318 LINE SMOOTH",
"297 312 OFFCURVE",
"306 307 OFFCURVE",
"306 300 CURVE SMOOTH",
"306 294 OFFCURVE",
"297 289 OFFCURVE",
"293 284 CURVE SMOOTH",
"107 62 LINE SMOOTH",
"92 45 OFFCURVE",
"20 28 OFFCURVE",
"20 9 CURVE SMOOTH",
"20 3 OFFCURVE",
"23 0 OFFCURVE",
"31 0 CURVE SMOOTH"
);
}
);
width = 806;
}
);
leftKerningGroup = kern_X3;
rightKerningGroup = kern_X3;
unicode = 0058;
},
{
color = 5;
glyphname = Y;
layers = (
{
anchors = (
{
name = bottom;
position = "{363, 0}";
},
{
name = top;
position = "{374, 710}";
}
);
layerId = m01;
paths = (
{
closed = 1;
nodes = (
"484 0 LINE SMOOTH",
"493 0 OFFCURVE",
"498 3 OFFCURVE",
"498 10 CURVE SMOOTH",
"498 24 OFFCURVE",
"408 43 OFFCURVE",
"408 76 CURVE SMOOTH",
"408 299 LINE SMOOTH",
"408 305 OFFCURVE",
"411 314 OFFCURVE",
"417 323 CURVE SMOOTH",
"613 602 LINE SMOOTH",
"625 619 OFFCURVE",
"683 636 OFFCURVE",
"683 652 CURVE SMOOTH",
"683 657 OFFCURVE",
"679 660 OFFCURVE",
"673 660 CURVE SMOOTH",
"481 660 LINE SMOOTH",
"476 660 OFFCURVE",
"471 657 OFFCURVE",
"471 652 CURVE SMOOTH",
"471 636 OFFCURVE",
"538 618 OFFCURVE",
"538 603 CURVE SMOOTH",
"538 600 OFFCURVE",
"538 594 OFFCURVE",
"535 590 CURVE SMOOTH",
"395 378 LINE SMOOTH",
"392 373 OFFCURVE",
"389 369 OFFCURVE",
"383 369 CURVE SMOOTH",
"378 369 OFFCURVE",
"375 373 OFFCURVE",
"371 378 CURVE SMOOTH",
"217 587 LINE SMOOTH",
"211 595 OFFCURVE",
"208 601 OFFCURVE",
"208 607 CURVE SMOOTH",
"208 618 OFFCURVE",
"277 639 OFFCURVE",
"277 650 CURVE SMOOTH",
"277 656 OFFCURVE",
"272 660 OFFCURVE",
"267 660 CURVE SMOOTH",
"45 660 LINE SMOOTH",
"40 660 OFFCURVE",
"35 654 OFFCURVE",
"35 649 CURVE SMOOTH",
"35 638 OFFCURVE",
"91 618 OFFCURVE",
"109 593 CURVE SMOOTH",
"310 319 LINE SMOOTH",
"315 313 OFFCURVE",
"318 306 OFFCURVE",
"318 299 CURVE SMOOTH",
"318 76 LINE SMOOTH",
"318 43 OFFCURVE",
"228 24 OFFCURVE",
"228 10 CURVE SMOOTH",
"228 3 OFFCURVE",
"232 0 OFFCURVE",
"242 0 CURVE SMOOTH"
);
}
);
width = 718;
},
{
anchors = (
{
name = bottom;
position = "{393, 0}";
},
{
name = top;
position = "{442, 710}";
}
);
layerId = m002;
paths = (
{
closed = 1;
nodes = (
"564 0 LINE SMOOTH",
"573 0 OFFCURVE",
"578 3 OFFCURVE",
"578 10 CURVE SMOOTH",
"578 24 OFFCURVE",
"488 43 OFFCURVE",
"488 76 CURVE SMOOTH",
"488 299 LINE SMOOTH",
"488 305 OFFCURVE",
"491 313 OFFCURVE",
"498 323 CURVE SMOOTH",
"693 602 LINE SMOOTH",
"705 619 OFFCURVE",
"768 636 OFFCURVE",
"768 652 CURVE SMOOTH",
"768 657 OFFCURVE",
"764 660 OFFCURVE",
"758 660 CURVE SMOOTH",
"540 660 LINE SMOOTH",
"535 660 OFFCURVE",
"530 657 OFFCURVE",
"530 652 CURVE SMOOTH",
"530 636 OFFCURVE",
"606 614 OFFCURVE",
"606 600 CURVE SMOOTH",
"606 597 OFFCURVE",
"605 592 OFFCURVE",
"603 588 CURVE SMOOTH",
"467 386 LINE SMOOTH",
"464 381 OFFCURVE",
"460 379 OFFCURVE",
"457 379 CURVE SMOOTH",
"454 379 OFFCURVE",
"450 381 OFFCURVE",
"446 386 CURVE SMOOTH",
"298 585 LINE SMOOTH",
"292 593 OFFCURVE",
"290 596 OFFCURVE",
"290 602 CURVE SMOOTH",
"290 612 OFFCURVE",
"363 637 OFFCURVE",
"363 650 CURVE SMOOTH",
"363 656 OFFCURVE",
"358 660 OFFCURVE",
"353 660 CURVE SMOOTH",
"20 660 LINE SMOOTH",
"15 660 OFFCURVE",
"10 654 OFFCURVE",
"10 649 CURVE SMOOTH",
"10 638 OFFCURVE",
"70 618 OFFCURVE",
"88 593 CURVE SMOOTH",
"290 319 LINE SMOOTH",
"295 313 OFFCURVE",
"298 306 OFFCURVE",
"298 299 CURVE SMOOTH",
"298 76 LINE SMOOTH",
"298 43 OFFCURVE",
"208 24 OFFCURVE",
"208 10 CURVE SMOOTH",
"208 3 OFFCURVE",
"212 0 OFFCURVE",
"222 0 CURVE SMOOTH"
);
}
);
width = 778;
}
);
leftKerningGroup = kern_Y3;
rightKerningGroup = kern_Y3;
unicode = 0059;
},
{
color = 5;
glyphname = Z;
layers = (
{
anchors = (
{
name = bottom;
position = "{333, 0}";
},
{
name = top;
position = "{333, 710}";
}
);
layerId = m01;
paths = (
{
closed = 1;
nodes = (
"544 0 LINE SMOOTH",
"551 0 OFFCURVE",
"556 5 OFFCURVE",
"556 17 CURVE SMOOTH",
"556 178 LINE SMOOTH",
"556 190 OFFCURVE",
"551 192 OFFCURVE",
"544 192 CURVE SMOOTH",
"526 192 OFFCURVE",
"491 55 OFFCURVE",
"460 55 CURVE SMOOTH",
"237 55 LINE SMOOTH",
"229 55 OFFCURVE",
"211 52 OFFCURVE",
"211 61 CURVE SMOOTH",
"211 70 OFFCURVE",
"223 89 OFFCURVE",
"228 97 CURVE SMOOTH",
"522 596 LINE SMOOTH",
"537 622 OFFCURVE",
"546 635 OFFCURVE",
"546 645 CURVE SMOOTH",
"546 654 OFFCURVE",
"539 660 OFFCURVE",
"531 660 CURVE SMOOTH",
"126 660 LINE SMOOTH",
"112 660 OFFCURVE",
"102 656 OFFCURVE",
"102 640 CURVE SMOOTH",
"102 496 LINE SMOOTH",
"102 481 OFFCURVE",
"105 478 OFFCURVE",
"112 478 CURVE SMOOTH",
"136 478 OFFCURVE",
"159 605 OFFCURVE",
"213 605 CURVE SMOOTH",
"417 605 LINE SMOOTH",
"425 605 OFFCURVE",
"426 596 OFFCURVE",
"423 591 CURVE SMOOTH",
"94 32 LINE SMOOTH",
"86 18 OFFCURVE",
"86 13 OFFCURVE",
"86 11 CURVE SMOOTH",
"86 3 OFFCURVE",
"91 0 OFFCURVE",
"96 0 CURVE SMOOTH"
);
}
);
width = 646;
},
{
anchors = (
{
name = bottom;
position = "{369, 0}";
},
{
name = top;
position = "{369, 710}";
}
);
layerId = m002;
paths = (
{
closed = 1;
nodes = (
"644 0 LINE SMOOTH",
"651 0 OFFCURVE",
"656 5 OFFCURVE",
"656 17 CURVE SMOOTH",
"656 215 LINE SMOOTH",
"656 227 OFFCURVE",
"651 229 OFFCURVE",
"644 229 CURVE SMOOTH",
"626 229 OFFCURVE",
"571 55 OFFCURVE",
"520 55 CURVE SMOOTH",
"328 55 LINE SMOOTH",
"317 55 OFFCURVE",
"312 56 OFFCURVE",
"312 62 CURVE SMOOTH",
"312 71 OFFCURVE",
"323 89 OFFCURVE",
"328 97 CURVE SMOOTH",
"627 594 LINE SMOOTH",
"643 620 OFFCURVE",
"650 635 OFFCURVE",
"650 645 CURVE SMOOTH",
"650 651 OFFCURVE",
"646 660 OFFCURVE",
"632 660 CURVE SMOOTH",
"118 660 LINE SMOOTH",
"108 660 OFFCURVE",
"92 654 OFFCURVE",
"92 640 CURVE SMOOTH",
"92 459 LINE SMOOTH",
"92 444 OFFCURVE",
"95 441 OFFCURVE",
"102 441 CURVE SMOOTH",
"123 441 OFFCURVE",
"172 605 OFFCURVE",
"203 605 CURVE SMOOTH",
"408 605 LINE SMOOTH",
"416 605 OFFCURVE",
"417 596 OFFCURVE",
"414 591 CURVE SMOOTH",
"79 32 LINE SMOOTH",
"71 18 OFFCURVE",
"71 13 OFFCURVE",
"71 11 CURVE SMOOTH",
"71 3 OFFCURVE",
"76 0 OFFCURVE",
"81 0 CURVE SMOOTH"
);
}
);
width = 736;
}
);
leftKerningGroup = kern_Z3;
rightKerningGroup = kern_Z3;
unicode = 005A;
},
{
color = 5;
glyphname = a;
layers = (
{
anchors = (
{
name = bottom;
position = "{237, 0}";
},
{
name = right;
position = "{402, 0}";
},
{
name = top;
position = "{225, 510}";
}
);
layerId = m01;
paths = (
{
closed = 1;
nodes = (
"248 -10 OFFCURVE",
"290 50 OFFCURVE",
"301 50 CURVE SMOOTH",
"305 50 OFFCURVE",
"308 50 OFFCURVE",
"311 39 CURVE SMOOTH",
"314 28 OFFCURVE",
"333 -10 OFFCURVE",
"382 -10 CURVE SMOOTH",
"440 -10 OFFCURVE",
"478 32 OFFCURVE",
"478 50 CURVE SMOOTH",
"478 54 OFFCURVE",
"476 57 OFFCURVE",
"471 57 CURVE SMOOTH",
"465 57 OFFCURVE",
"445 44 OFFCURVE",
"418 44 CURVE SMOOTH",
"402 44 OFFCURVE",
"381 54 OFFCURVE",
"381 87 CURVE SMOOTH",
"381 351 LINE SMOOTH",
"381 435 OFFCURVE",
"308 460 OFFCURVE",
"237 460 CURVE SMOOTH",
"166 460 OFFCURVE",
"60 408 OFFCURVE",
"60 333 CURVE SMOOTH",
"60 309 OFFCURVE",
"77 289 OFFCURVE",
"102 289 CURVE SMOOTH",
"127 289 OFFCURVE",
"143 303 OFFCURVE",
"143 328 CURVE SMOOTH",
"143 385 OFFCURVE",
"158 413 OFFCURVE",
"211 413 CURVE SMOOTH",
"277 413 OFFCURVE",
"301 376 OFFCURVE",
"301 330 CURVE SMOOTH",
"301 267 LINE SMOOTH",
"301 262 OFFCURVE",
"301 257 OFFCURVE",
"291 255 CURVE SMOOTH",
"102 217 OFFCURVE",
"47 159 OFFCURVE",
"47 94 CURVE SMOOTH",
"47 29 OFFCURVE",
"93 -10 OFFCURVE",
"156 -10 CURVE SMOOTH"
);
},
{
closed = 1;
nodes = (
"152 52 OFFCURVE",
"125 73 OFFCURVE",
"125 114 CURVE SMOOTH",
"125 196 OFFCURVE",
"258 214 OFFCURVE",
"291 221 CURVE SMOOTH",
"301 223 OFFCURVE",
"301 218 OFFCURVE",
"301 213 CURVE SMOOTH",
"301 94 LINE SMOOTH",
"301 68 OFFCURVE",
"252 52 OFFCURVE",
"200 52 CURVE SMOOTH"
);
}
);
width = 489;
},
{
anchors = (
{
name = bottom;
position = "{248, 0}";
},
{
name = right;
position = "{459, 0}";
},
{
name = top;
position = "{258, 510}";
}
);
layerId = m002;
paths = (
{
closed = 1;
nodes = (
"228 -10 OFFCURVE",
"271 60 OFFCURVE",
"282 60 CURVE SMOOTH",
"288 60 OFFCURVE",
"294 44 OFFCURVE",
"311 28 CURVE SMOOTH",
"330 9 OFFCURVE",
"362 -10 OFFCURVE",
"423 -10 CURVE SMOOTH",
"484 -10 OFFCURVE",
"531 33 OFFCURVE",
"531 41 CURVE SMOOTH",
"531 52 OFFCURVE",
"528 60 OFFCURVE",
"520 60 CURVE SMOOTH",
"506 60 OFFCURVE",
"494 52 OFFCURVE",
"485 56 CURVE SMOOTH",
"470 62 OFFCURVE",
"462 83 OFFCURVE",
"462 97 CURVE",
"462 331 LINE",
"462 435 OFFCURVE",
"358 470 OFFCURVE",
"257 470 CURVE SMOOTH",
"166 470 OFFCURVE",
"44 406 OFFCURVE",
"44 343 CURVE SMOOTH",
"44 319 OFFCURVE",
"57 293 OFFCURVE",
"96 293 CURVE SMOOTH",
"143 293 OFFCURVE",
"149 344 OFFCURVE",
"149 359 CURVE SMOOTH",
"149 403 OFFCURVE",
"160 418 OFFCURVE",
"211 418 CURVE SMOOTH",
"257 418 OFFCURVE",
"281 386 OFFCURVE",
"281 330 CURVE",
"281 299 LINE",
"281 279 OFFCURVE",
"271 275 OFFCURVE",
"250 271 CURVE SMOOTH",
"62 235 OFFCURVE",
"26 189 OFFCURVE",
"26 104 CURVE SMOOTH",
"26 39 OFFCURVE",
"73 -10 OFFCURVE",
"156 -10 CURVE SMOOTH"
);
},
{
closed = 1;
nodes = (
"212 84 OFFCURVE",
"193 107 OFFCURVE",
"193 138 CURVE SMOOTH",
"193 210 OFFCURVE",
"243 228 OFFCURVE",
"271 228 CURVE SMOOTH",
"279 228 OFFCURVE",
"281 221 OFFCURVE",
"281 212 CURVE",
"281 107 LINE",
"281 94 OFFCURVE",
"276 84 OFFCURVE",
"260 84 CURVE SMOOTH"
);
}
);
width = 531;
},
{
anchors = (
{
name = bottom;
position = "{237, 0}";
},
{
name = right;
position = "{402, 0}";
},
{
name = top;
position = "{225, 510}";
}
);
associatedMasterId = m01;
layerId = "344BCC05-513F-4D7D-A023-FB4F83A665C0";
name = "Sep 8, 21, 10:28";
paths = (
{
closed = 1;
nodes = (
"124 289 OFFCURVE",
"143 308 OFFCURVE",
"143 331 CURVE SMOOTH",
"143 353 OFFCURVE",
"124 372 OFFCURVE",
"102 372 CURVE SMOOTH",
"79 372 OFFCURVE",
"60 353 OFFCURVE",
"60 331 CURVE SMOOTH",
"60 308 OFFCURVE",
"79 289 OFFCURVE",
"102 289 CURVE SMOOTH"
);
}
);
visible = 1;
width = 489;
},
{
anchors = (
{
name = bottom;
position = "{237, 0}";
},
{
name = right;
position = "{402, 0}";
},
{
name = top;
position = "{225, 510}";
}
);
associatedMasterId = m01;
layerId = "4D648A89-AAAD-4413-BB4C-08D49CE9414C";
name = "Sep 8, 21, 10:29";
paths = (
{
closed = 1;
nodes = (
"212 -10 OFFCURVE",
"266 16 OFFCURVE",
"301 50 CURVE",
"319 50 LINE",
"319 83 LINE",
"269 60 OFFCURVE",
"237 52 OFFCURVE",
"200 52 CURVE SMOOTH",
"152 52 OFFCURVE",
"125 73 OFFCURVE",
"125 114 CURVE SMOOTH",
"125 162 OFFCURVE",
"144 197 OFFCURVE",
"333 229 CURVE",
"333 265 LINE",
"206 235 LINE SMOOTH",
"91 208 OFFCURVE",
"47 159 OFFCURVE",
"47 94 CURVE",
"47 29 OFFCURVE",
"93 -10 OFFCURVE",
"156 -10 CURVE SMOOTH"
);
},
{
closed = 1;
nodes = (
"430 -10 OFFCURVE",
"462 16 OFFCURVE",
"478 45 CURVE",
"478 48 LINE",
"475 50 LINE",
"437 50 LINE SMOOTH",
"407 50 OFFCURVE",
"390 57 OFFCURVE",
"381 67 CURVE",
"381 351 LINE SMOOTH",
"381 435 OFFCURVE",
"308 460 OFFCURVE",
"237 460 CURVE SMOOTH",
"191 460 OFFCURVE",
"150 442 OFFCURVE",
"113 418 CURVE SMOOTH",
"77 395 OFFCURVE",
"60 362 OFFCURVE",
"60 333 CURVE SMOOTH",
"60 309 OFFCURVE",
"66 305 OFFCURVE",
"86 305 CURVE SMOOTH",
"138 305 LINE",
"143 310 LINE",
"143 338 LINE SMOOTH",
"143 384 OFFCURVE",
"160 413 OFFCURVE",
"211 413 CURVE SMOOTH",
"257 413 OFFCURVE",
"301 376 OFFCURVE",
"301 330 CURVE SMOOTH",
"301 71 LINE",
"303 71 LINE",
"309 23 OFFCURVE",
"336 -10 OFFCURVE",
"385 -10 CURVE SMOOTH"
);
}
);
visible = 1;
width = 489;
}
);
leftKerningGroup = kernLC_a2;
rightKerningGroup = kernLC_a1;
unicode = 0061;
},
{
color = 5;
glyphname = b;
layers = (
{
layerId = m01;
paths = (
{
closed = 1;
nodes = (
"123 -10 OFFCURVE",
"132 16 OFFCURVE",
"144 16 CURVE SMOOTH",
"158 16 OFFCURVE",
"182 -10 OFFCURVE",
"277 -10 CURVE SMOOTH",
"409 -10 OFFCURVE",
"511 83 OFFCURVE",
"511 247 CURVE SMOOTH",
"511 379 OFFCURVE",
"438 460 OFFCURVE",
"337 460 CURVE SMOOTH",
"243 460 OFFCURVE",
"212 408 OFFCURVE",
"194 408 CURVE SMOOTH",
"183 408 OFFCURVE",
"183 416 OFFCURVE",
"183 432 CURVE",
"183 715 LINE SMOOTH",
"183 736 OFFCURVE",
"180 747 OFFCURVE",
"167 747 CURVE SMOOTH",
"148 747 OFFCURVE",
"43 703 OFFCURVE",
"43 686 CURVE SMOOTH",
"43 665 OFFCURVE",
"103 655 OFFCURVE",
"103 616 CURVE SMOOTH",
"103 10 LINE",
"103 0 OFFCURVE",
"104 -10 OFFCURVE",
"111 -10 CURVE SMOOTH"
);
},
{
closed = 1;
nodes = (
"256 38 OFFCURVE",
"183 51 OFFCURVE",
"183 99 CURVE",
"183 338 LINE",
"183 376 OFFCURVE",
"246 391 OFFCURVE",
"282 391 CURVE SMOOTH",
"364 391 OFFCURVE",
"431 340 OFFCURVE",
"431 224 CURVE SMOOTH",
"431 90 OFFCURVE",
"372 38 OFFCURVE",
"303 38 CURVE SMOOTH"
);
}
);
width = 560;
},
{
layerId = m002;
paths = (
{
closed = 1;
nodes = (
"104 -10 OFFCURVE",
"179 31 OFFCURVE",
"191 31 CURVE SMOOTH",
"203 31 OFFCURVE",
"233 -10 OFFCURVE",
"338 -10 CURVE SMOOTH",
"482 -10 OFFCURVE",
"571 114 OFFCURVE",
"571 247 CURVE SMOOTH",
"571 371 OFFCURVE",
"501 470 OFFCURVE",
"405 470 CURVE SMOOTH",
"321 470 OFFCURVE",
"290 421 OFFCURVE",
"272 421 CURVE SMOOTH",
"261 421 OFFCURVE",
"261 426 OFFCURVE",
"261 442 CURVE",
"261 722 LINE SMOOTH",
"261 743 OFFCURVE",
"258 750 OFFCURVE",
"245 750 CURVE SMOOTH",
"216 750 OFFCURVE",
"15 704 OFFCURVE",
"15 686 CURVE SMOOTH",
"15 665 OFFCURVE",
"81 655 OFFCURVE",
"81 616 CURVE SMOOTH",
"81 7 LINE",
"81 -5 OFFCURVE",
"84 -10 OFFCURVE",
"91 -10 CURVE SMOOTH"
);
},
{
closed = 1;
nodes = (
"281 45 OFFCURVE",
"261 61 OFFCURVE",
"261 79 CURVE",
"261 338 LINE",
"261 371 OFFCURVE",
"285 379 OFFCURVE",
"301 379 CURVE SMOOTH",
"348 379 OFFCURVE",
"391 329 OFFCURVE",
"391 224 CURVE SMOOTH",
"391 90 OFFCURVE",
"354 45 OFFCURVE",
"308 45 CURVE SMOOTH"
);
}
);
width = 596;
}
);
leftKerningGroup = kern_b2;
rightKerningGroup = kernLC_o1;
unicode = 0062;
},
{
color = 5;
glyphname = c;
layers = (
{
anchors = (
{
name = bottom;
position = "{260, 0}";
},
{
name = top;
position = "{264, 510}";
}
);
layerId = m01;
paths = (
{
closed = 1;
nodes = (
"370 -10 OFFCURVE",
"434 80 OFFCURVE",
"434 94 CURVE SMOOTH",
"434 99 OFFCURVE",
"431 102 OFFCURVE",
"426 102 CURVE SMOOTH",
"416 102 OFFCURVE",
"369 65 OFFCURVE",
"302 65 CURVE SMOOTH",
"171 65 OFFCURVE",
"129 155 OFFCURVE",
"129 251 CURVE SMOOTH",
"129 355 OFFCURVE",
"174 416 OFFCURVE",
"247 416 CURVE SMOOTH",
"340 416 OFFCURVE",
"340 325 OFFCURVE",
"378 325 CURVE SMOOTH",
"413 325 OFFCURVE",
"432 362 OFFCURVE",
"432 381 CURVE SMOOTH",
"432 417 OFFCURVE",
"363 460 OFFCURVE",
"280 460 CURVE SMOOTH",
"150 460 OFFCURVE",
"50 354 OFFCURVE",
"50 205 CURVE SMOOTH",
"50 75 OFFCURVE",
"130 -10 OFFCURVE",
"259 -10 CURVE SMOOTH"
);
}
);
width = 479;
},
{
anchors = (
{
name = bottom;
position = "{273, 0}";
},
{
name = top;
position = "{274, 510}";
}
);
layerId = m002;
paths = (
{
closed = 1;
nodes = (
"390 -10 OFFCURVE",
"458 108 OFFCURVE",
"458 129 CURVE SMOOTH",
"458 136 OFFCURVE",
"454 140 OFFCURVE",
"448 140 CURVE SMOOTH",
"436 140 OFFCURVE",
"406 119 OFFCURVE",
"339 119 CURVE SMOOTH",
"258 119 OFFCURVE",
"203 155 OFFCURVE",
"203 251 CURVE SMOOTH",
"203 355 OFFCURVE",
"224 426 OFFCURVE",
"277 426 CURVE SMOOTH",
"344 426 OFFCURVE",
"340 324 OFFCURVE",
"398 324 CURVE SMOOTH",
"435 324 OFFCURVE",
"456 348 OFFCURVE",
"456 391 CURVE SMOOTH",
"456 427 OFFCURVE",
"396 470 OFFCURVE",
"280 470 CURVE SMOOTH",
"130 470 OFFCURVE",
"30 358 OFFCURVE",
"30 205 CURVE SMOOTH",
"30 75 OFFCURVE",
"130 -10 OFFCURVE",
"259 -10 CURVE SMOOTH"
);
}
);
width = 488;
}
);
leftKerningGroup = kernLC_o2;
rightKerningGroup = kernLC_c1;
unicode = 0063;
},
{
color = 5;
glyphname = d;
layers = (
{
anchors = (
{
name = bottom;
position = "{271, 0}";
},
{
name = right;
position = "{577, 740}";
}
);
layerId = m01;
paths = (
{
closed = 1;
nodes = (
"312 -10 OFFCURVE",
"347 44 OFFCURVE",
"364 44 CURVE SMOOTH",
"375 44 OFFCURVE",
"377 0 OFFCURVE",
"393 0 CURVE SMOOTH",
"429 0 OFFCURVE",
"476 -5 OFFCURVE",
"501 -5 CURVE SMOOTH",
"515 -5 OFFCURVE",
"523 0 OFFCURVE",
"523 11 CURVE SMOOTH",
"523 28 OFFCURVE",
"452 30 OFFCURVE",
"452 62 CURVE",
"452 730 LINE SMOOTH",
"452 746 OFFCURVE",
"446 750 OFFCURVE",
"437 750 CURVE SMOOTH",
"424 750 OFFCURVE",
"307 708 OFFCURVE",
"307 690 CURVE SMOOTH",
"307 672 OFFCURVE",
"372 652 OFFCURVE",
"372 626 CURVE SMOOTH",
"372 469 LINE SMOOTH",
"372 459 OFFCURVE",
"369 454 OFFCURVE",
"362 454 CURVE SMOOTH",
"354 454 OFFCURVE",
"329 460 OFFCURVE",
"285 460 CURVE SMOOTH",
"155 460 OFFCURVE",
"44 364 OFFCURVE",
"44 194 CURVE SMOOTH",
"44 68 OFFCURVE",
"117 -10 OFFCURVE",
"218 -10 CURVE SMOOTH"
);
},
{
closed = 1;
nodes = (
"191 59 OFFCURVE",
"124 107 OFFCURVE",
"124 217 CURVE SMOOTH",
"124 357 OFFCURVE",
"192 411 OFFCURVE",
"272 411 CURVE SMOOTH",
"311 411 OFFCURVE",
"372 385 OFFCURVE",
"372 351 CURVE SMOOTH",
"372 109 LINE SMOOTH",
"372 71 OFFCURVE",
"306 59 OFFCURVE",
"273 59 CURVE SMOOTH"
);
}
);
width = 559;
},
{
anchors = (
{
name = bottom;
position = "{303, 0}";
},
{
name = right;
position = "{635, 740}";
}
);
layerId = m002;
paths = (
{
closed = 1;
nodes = (
"271 -10 OFFCURVE",
"312 44 OFFCURVE",
"332 44 CURVE SMOOTH",
"343 44 OFFCURVE",
"344 0 OFFCURVE",
"360 0 CURVE SMOOTH",
"396 0 OFFCURVE",
"539 -5 OFFCURVE",
"564 -5 CURVE SMOOTH",
"578 -5 OFFCURVE",
"586 0 OFFCURVE",
"586 11 CURVE SMOOTH",
"586 28 OFFCURVE",
"515 30 OFFCURVE",
"515 62 CURVE",
"515 730 LINE SMOOTH",
"515 746 OFFCURVE",
"509 750 OFFCURVE",
"500 750 CURVE SMOOTH",
"487 750 OFFCURVE",
"265 706 OFFCURVE",
"265 688 CURVE SMOOTH",
"265 670 OFFCURVE",
"335 652 OFFCURVE",
"335 626 CURVE SMOOTH",
"335 475 LINE SMOOTH",
"335 465 OFFCURVE",
"332 460 OFFCURVE",
"325 460 CURVE SMOOTH",
"317 460 OFFCURVE",
"289 470 OFFCURVE",
"255 470 CURVE SMOOTH",
"125 470 OFFCURVE",
"24 371 OFFCURVE",
"24 194 CURVE SMOOTH",
"24 68 OFFCURVE",
"101 -10 OFFCURVE",
"211 -10 CURVE SMOOTH"
);
},
{
closed = 1;
nodes = (
"246 82 OFFCURVE",
"205 127 OFFCURVE",
"205 237 CURVE SMOOTH",
"205 377 OFFCURVE",
"241 415 OFFCURVE",
"287 415 CURVE SMOOTH",
"326 415 OFFCURVE",
"336 396 OFFCURVE",
"336 362 CURVE SMOOTH",
"336 114 LINE SMOOTH",
"336 92 OFFCURVE",
"314 82 OFFCURVE",
"288 82 CURVE SMOOTH"
);
}
);
width = 599;
}
);
leftKerningGroup = kernLC_o2;
rightKerningGroup = kernLC_l1;
unicode = 0064;
},
{
color = 5;
glyphname = e;
layers = (
{
anchors = (
{
name = bottom;
position = "{264, 0}";
},
{
name = right;
position = "{358, 0}";
},
{
name = top;
position = "{260, 510}";
}
);
layerId = m01;
paths = (
{
closed = 1;
nodes = (
"362 -10 OFFCURVE",
"425 67 OFFCURVE",
"425 83 CURVE SMOOTH",
"425 92 OFFCURVE",
"422 95 OFFCURVE",
"415 95 CURVE SMOOTH",
"400 95 OFFCURVE",
"363 65 OFFCURVE",
"307 65 CURVE SMOOTH",
"177 65 OFFCURVE",
"130 153 OFFCURVE",
"130 223 CURVE SMOOTH",
"130 234 OFFCURVE",
"137 242 OFFCURVE",
"149 242 CURVE SMOOTH",
"409 242 LINE SMOOTH",
"422 242 OFFCURVE",
"431 252 OFFCURVE",
"431 267 CURVE SMOOTH",
"431 375 OFFCURVE",
"371 460 OFFCURVE",
"261 460 CURVE SMOOTH",
"159 460 OFFCURVE",
"50 362 OFFCURVE",
"50 209 CURVE SMOOTH",
"50 77 OFFCURVE",
"118 -10 OFFCURVE",
"261 -10 CURVE SMOOTH"
);
},
{
closed = 1;
nodes = (
"139 288 OFFCURVE",
"134 294 OFFCURVE",
"134 304 CURVE SMOOTH",
"134 344 OFFCURVE",
"175 416 OFFCURVE",
"247 416 CURVE SMOOTH",
"314 416 OFFCURVE",
"352 350 OFFCURVE",
"352 304 CURVE SMOOTH",
"352 294 OFFCURVE",
"345 288 OFFCURVE",
"335 288 CURVE SMOOTH",
"150 288 LINE SMOOTH"
);
}
);
width = 484;
},
{
anchors = (
{
name = bottom;
position = "{269, 0}";
},
{
name = right;
position = "{389, 0}";
},
{
name = top;
position = "{260, 510}";
}
);
layerId = m002;
paths = (
{
closed = 1;
nodes = (
"382 -10 OFFCURVE",
"463 97 OFFCURVE",
"463 122 CURVE SMOOTH",
"463 133 OFFCURVE",
"457 138 OFFCURVE",
"447 138 CURVE SMOOTH",
"426 138 OFFCURVE",
"412 119 OFFCURVE",
"336 119 CURVE SMOOTH",
"238 119 OFFCURVE",
"192 173 OFFCURVE",
"192 243 CURVE SMOOTH",
"192 254 OFFCURVE",
"199 262 OFFCURVE",
"211 262 CURVE SMOOTH",
"439 262 LINE SMOOTH",
"452 262 OFFCURVE",
"461 272 OFFCURVE",
"461 287 CURVE SMOOTH",
"461 385 OFFCURVE",
"399 470 OFFCURVE",
"289 470 CURVE SMOOTH",
"137 470 OFFCURVE",
"20 362 OFFCURVE",
"20 209 CURVE SMOOTH",
"20 77 OFFCURVE",
"108 -10 OFFCURVE",
"251 -10 CURVE SMOOTH"
);
},
{
closed = 1;
nodes = (
"200 306 OFFCURVE",
"195 312 OFFCURVE",
"195 322 CURVE SMOOTH",
"195 362 OFFCURVE",
"225 425 OFFCURVE",
"261 425 CURVE SMOOTH",
"305 425 OFFCURVE",
"327 372 OFFCURVE",
"327 322 CURVE SMOOTH",
"327 312 OFFCURVE",
"320 306 OFFCURVE",
"310 306 CURVE SMOOTH",
"211 306 LINE SMOOTH"
);
}
);
width = 493;
}
);
leftKerningGroup = kernLC_o2;
rightKerningGroup = kernLC_e1;
unicode = 0065;
},
{
color = 5;
glyphname = f;
layers = (
{
layerId = m01;
paths = (
{
closed = 1;
nodes = (
"109 -4 OFFCURVE",
"135 0 OFFCURVE",
"160 0 CURVE SMOOTH",
"186 0 OFFCURVE",
"211 -4 OFFCURVE",
"248 -4 CURVE SMOOTH",
"262 -4 OFFCURVE",
"268 1 OFFCURVE",
"268 10 CURVE SMOOTH",
"268 30 OFFCURVE",
"197 30 OFFCURVE",
"197 63 CURVE",
"197 388 LINE",
"197 403 OFFCURVE",
"200 403 OFFCURVE",
"313 403 CURVE SMOOTH",
"327 403 OFFCURVE",
"329 409 OFFCURVE",
"329 426 CURVE SMOOTH",
"329 444 OFFCURVE",
"327 450 OFFCURVE",
"313 450 CURVE SMOOTH",
"200 450 OFFCURVE",
"197 451 OFFCURVE",
"197 460 CURVE SMOOTH",
"197 617 OFFCURVE",
"206 668 OFFCURVE",
"249 668 CURVE SMOOTH",
"306 668 OFFCURVE",
"309 646 OFFCURVE",
"342 646 CURVE SMOOTH",
"355 646 OFFCURVE",
"382 658 OFFCURVE",
"382 702 CURVE SMOOTH",
"382 734 OFFCURVE",
"345 750 OFFCURVE",
"306 750 CURVE SMOOTH",
"152 750 OFFCURVE",
"117 561 OFFCURVE",
"117 460 CURVE SMOOTH",
"117 452 OFFCURVE",
"113 450 OFFCURVE",
"51 450 CURVE SMOOTH",
"42 450 OFFCURVE",
"39 443 OFFCURVE",
"39 427 CURVE SMOOTH",
"39 411 OFFCURVE",
"44 403 OFFCURVE",
"50 403 CURVE SMOOTH",
"109 403 OFFCURVE",
"117 407 OFFCURVE",
"117 383 CURVE",
"117 63 LINE",
"117 30 OFFCURVE",
"54 30 OFFCURVE",
"54 10 CURVE SMOOTH",
"54 1 OFFCURVE",
"59 -4 OFFCURVE",
"74 -4 CURVE SMOOTH"
);
}
);
width = 342;
},
{
layerId = m002;
paths = (
{
closed = 1;
nodes = (
"70 -4 OFFCURVE",
"125 0 OFFCURVE",
"190 0 CURVE SMOOTH",
"256 0 OFFCURVE",
"309 -4 OFFCURVE",
"336 -4 CURVE SMOOTH",
"350 -4 OFFCURVE",
"356 1 OFFCURVE",
"356 10 CURVE SMOOTH",
"356 30 OFFCURVE",
"274 30 OFFCURVE",
"274 63 CURVE",
"274 398 LINE",
"274 413 OFFCURVE",
"285 413 OFFCURVE",
"368 413 CURVE SMOOTH",
"382 413 OFFCURVE",
"384 419 OFFCURVE",
"384 436 CURVE SMOOTH",
"384 454 OFFCURVE",
"382 460 OFFCURVE",
"368 460 CURVE SMOOTH",
"285 460 OFFCURVE",
"274 461 OFFCURVE",
"274 470 CURVE SMOOTH",
"274 627 OFFCURVE",
"276 665 OFFCURVE",
"329 665 CURVE SMOOTH",
"367 665 OFFCURVE",
"375 638 OFFCURVE",
"408 638 CURVE SMOOTH",
"441 638 OFFCURVE",
"462 658 OFFCURVE",
"462 703 CURVE SMOOTH",
"462 734 OFFCURVE",
"425 750 OFFCURVE",
"386 750 CURVE SMOOTH",
"242 750 OFFCURVE",
"94 581 OFFCURVE",
"94 470 CURVE SMOOTH",
"94 462 OFFCURVE",
"93 460 OFFCURVE",
"31 460 CURVE SMOOTH",
"22 460 OFFCURVE",
"19 453 OFFCURVE",
"19 437 CURVE SMOOTH",
"19 421 OFFCURVE",
"24 413 OFFCURVE",
"30 413 CURVE SMOOTH",
"89 413 OFFCURVE",
"94 417 OFFCURVE",
"94 393 CURVE",
"94 63 LINE",
"94 30 OFFCURVE",
"25 30 OFFCURVE",
"25 10 CURVE SMOOTH",
"25 1 OFFCURVE",
"30 -4 OFFCURVE",
"45 -4 CURVE SMOOTH"
);
}
);
width = 389;
}
);
leftKerningGroup = kernLC_f2;
rightKerningGroup = kernLC_f1;
unicode = 0066;
},
{
color = 5;
glyphname = g;
layers = (
{
anchors = (
{
name = top;
position = "{263, 510}";
}
);
layerId = m01;
paths = (
{
closed = 1;
nodes = (
"360 142 OFFCURVE",
"436 210 OFFCURVE",
"436 301 CURVE SMOOTH",
"436 377 OFFCURVE",
"399 387 OFFCURVE",
"399 398 CURVE SMOOTH",
"399 402 OFFCURVE",
"402 403 OFFCURVE",
"412 406 CURVE SMOOTH",
"470 425 OFFCURVE",
"487 428 OFFCURVE",
"487 442 CURVE SMOOTH",
"487 455 OFFCURVE",
"478 460 OFFCURVE",
"461 460 CURVE SMOOTH",
"258 460 LINE SMOOTH",
"156 460 OFFCURVE",
"80 391 OFFCURVE",
"80 301 CURVE SMOOTH",
"80 201 OFFCURVE",
"145 190 OFFCURVE",
"145 170 CURVE SMOOTH",
"145 153 OFFCURVE",
"70 150 OFFCURVE",
"70 75 CURVE SMOOTH",
"70 4 OFFCURVE",
"138 4 OFFCURVE",
"138 -11 CURVE SMOOTH",
"138 -29 OFFCURVE",
"61 -46 OFFCURVE",
"61 -121 CURVE SMOOTH",
"61 -188 OFFCURVE",
"112 -240 OFFCURVE",
"239 -240 CURVE SMOOTH",
"383 -240 OFFCURVE",
"473 -154 OFFCURVE",
"473 -68 CURVE SMOOTH",
"473 21 OFFCURVE",
"428 59 OFFCURVE",
"263 59 CURVE SMOOTH",
"154 59 OFFCURVE",
"140 74 OFFCURVE",
"140 109 CURVE SMOOTH",
"140 131 OFFCURVE",
"162 156 OFFCURVE",
"177 156 CURVE SMOOTH",
"189 156 OFFCURVE",
"208 142 OFFCURVE",
"258 142 CURVE SMOOTH"
);
},
{
closed = 1;
nodes = (
"132 -64 OFFCURVE",
"154 -10 OFFCURVE",
"219 -10 CURVE SMOOTH",
"383 -10 OFFCURVE",
"400 -29 OFFCURVE",
"400 -88 CURVE SMOOTH",
"400 -152 OFFCURVE",
"340 -212 OFFCURVE",
"251 -212 CURVE SMOOTH",
"184 -212 OFFCURVE",
"132 -169 OFFCURVE",
"132 -110 CURVE SMOOTH"
);
},
{
closed = 1;
nodes = (
"206 183 OFFCURVE",
"162 234 OFFCURVE",
"162 304 CURVE SMOOTH",
"162 367 OFFCURVE",
"194 420 OFFCURVE",
"251 420 CURVE SMOOTH",
"309 420 OFFCURVE",
"354 371 OFFCURVE",
"354 298 CURVE SMOOTH",
"354 236 OFFCURVE",
"321 183 OFFCURVE",
"268 183 CURVE SMOOTH"
);
}
);
width = 546;
},
{
anchors = (
{
name = top;
position = "{255, 510}";
}
);
layerId = m002;
paths = (
{
closed = 1;
nodes = (
"360 158 OFFCURVE",
"456 220 OFFCURVE",
"456 311 CURVE SMOOTH",
"456 367 OFFCURVE",
"419 387 OFFCURVE",
"419 398 CURVE SMOOTH",
"419 402 OFFCURVE",
"431 406 OFFCURVE",
"444 412 CURVE SMOOTH",
"498 436 OFFCURVE",
"509 439 OFFCURVE",
"509 450 CURVE SMOOTH",
"509 462 OFFCURVE",
"498 469 OFFCURVE",
"482 469 CURVE SMOOTH",
"258 469 LINE SMOOTH",
"156 469 OFFCURVE",
"56 400 OFFCURVE",
"56 310 CURVE SMOOTH",
"56 210 OFFCURVE",
"125 211 OFFCURVE",
"125 191 CURVE SMOOTH",
"125 174 OFFCURVE",
"36 159 OFFCURVE",
"36 75 CURVE SMOOTH",
"36 4 OFFCURVE",
"106 -28 OFFCURVE",
"106 -43 CURVE SMOOTH",
"106 -61 OFFCURVE",
"35 -62 OFFCURVE",
"35 -137 CURVE SMOOTH",
"35 -204 OFFCURVE",
"92 -240 OFFCURVE",
"239 -240 CURVE SMOOTH",
"383 -240 OFFCURVE",
"498 -146 OFFCURVE",
"498 -44 CURVE SMOOTH",
"498 45 OFFCURVE",
"458 95 OFFCURVE",
"313 95 CURVE SMOOTH",
"184 95 OFFCURVE",
"154 104 OFFCURVE",
"154 139 CURVE SMOOTH",
"154 161 OFFCURVE",
"159 174 OFFCURVE",
"167 174 CURVE SMOOTH",
"179 174 OFFCURVE",
"208 158 OFFCURVE",
"258 158 CURVE SMOOTH"
);
},
{
closed = 1;
nodes = (
"127 -74 OFFCURVE",
"149 -52 OFFCURVE",
"184 -52 CURVE SMOOTH",
"328 -52 OFFCURVE",
"356 -59 OFFCURVE",
"356 -114 CURVE SMOOTH",
"356 -173 OFFCURVE",
"294 -199 OFFCURVE",
"235 -199 CURVE SMOOTH",
"168 -199 OFFCURVE",
"127 -175 OFFCURVE",
"127 -120 CURVE SMOOTH"
);
},
{
closed = 1;
nodes = (
"225 202 OFFCURVE",
"202 234 OFFCURVE",
"202 304 CURVE SMOOTH",
"202 377 OFFCURVE",
"210 426 OFFCURVE",
"254 426 CURVE SMOOTH",
"302 426 OFFCURVE",
"314 371 OFFCURVE",
"314 298 CURVE SMOOTH",
"314 236 OFFCURVE",
"294 202 OFFCURVE",
"261 202 CURVE SMOOTH"
);
}
);
width = 529;
}
);
leftKerningGroup = kernLC_g3;
rightKerningGroup = kernLC_g3;
unicode = 0067;
},
{
color = 5;
glyphname = h;
layers = (
{
anchors = (
{
name = bottom;
position = "{296, 0}";
},
{
name = top;
position = "{296, 765}";
}
);
layerId = m01;
paths = (
{
closed = 1;
nodes = (
"79 -5 OFFCURVE",
"103 0 OFFCURVE",
"146 0 CURVE SMOOTH",
"185 0 OFFCURVE",
"204 -5 OFFCURVE",
"243 -5 CURVE SMOOTH",
"258 -5 OFFCURVE",
"262 -1 OFFCURVE",
"262 8 CURVE SMOOTH",
"262 28 OFFCURVE",
"191 31 OFFCURVE",
"191 58 CURVE SMOOTH",
"191 316 LINE SMOOTH",
"191 360 OFFCURVE",
"247 385 OFFCURVE",
"299 385 CURVE SMOOTH",
"372 385 OFFCURVE",
"401 347 OFFCURVE",
"401 285 CURVE SMOOTH",
"401 58 LINE SMOOTH",
"401 34 OFFCURVE",
"330 27 OFFCURVE",
"330 8 CURVE SMOOTH",
"330 0 OFFCURVE",
"334 -5 OFFCURVE",
"348 -5 CURVE SMOOTH",
"361 -5 OFFCURVE",
"393 0 OFFCURVE",
"436 0 CURVE SMOOTH",
"475 0 OFFCURVE",
"486 -5 OFFCURVE",
"525 -5 CURVE SMOOTH",
"540 -5 OFFCURVE",
"544 -1 OFFCURVE",
"544 8 CURVE SMOOTH",
"544 28 OFFCURVE",
"481 28 OFFCURVE",
"481 58 CURVE SMOOTH",
"481 329 LINE SMOOTH",
"481 400 OFFCURVE",
"432 460 OFFCURVE",
"344 460 CURVE SMOOTH",
"260 460 OFFCURVE",
"209 395 OFFCURVE",
"198 395 CURVE SMOOTH",
"192 395 OFFCURVE",
"191 400 OFFCURVE",
"191 407 CURVE SMOOTH",
"191 730 LINE SMOOTH",
"191 738 OFFCURVE",
"191 747 OFFCURVE",
"184 747 CURVE SMOOTH",
"176 747 OFFCURVE",
"168 743 OFFCURVE",
"156 738 CURVE SMOOTH",
"76 705 LINE SMOOTH",
"59 698 OFFCURVE",
"54 696 OFFCURVE",
"54 691 CURVE SMOOTH",
"54 687 OFFCURVE",
"56 684 OFFCURVE",
"61 679 CURVE SMOOTH",
"102 644 LINE SMOOTH",
"109 638 OFFCURVE",
"111 634 OFFCURVE",
"111 625 CURVE SMOOTH",
"111 58 LINE SMOOTH",
"111 37 OFFCURVE",
"48 27 OFFCURVE",
"48 8 CURVE SMOOTH",
"48 0 OFFCURVE",
"52 -5 OFFCURVE",
"66 -5 CURVE SMOOTH"
);
}
);
width = 582;
},
{
anchors = (
{
name = bottom;
position = "{326, 0}";
},
{
name = top;
position = "{326, 765}";
}
);
layerId = m002;
paths = (
{
closed = 1;
nodes = (
"57 -5 OFFCURVE",
"110 0 OFFCURVE",
"175 0 CURVE SMOOTH",
"214 0 OFFCURVE",
"243 -5 OFFCURVE",
"282 -5 CURVE SMOOTH",
"297 -5 OFFCURVE",
"301 -1 OFFCURVE",
"301 8 CURVE SMOOTH",
"301 28 OFFCURVE",
"270 31 OFFCURVE",
"270 58 CURVE SMOOTH",
"270 316 LINE SMOOTH",
"270 360 OFFCURVE",
"300 369 OFFCURVE",
"322 369 CURVE SMOOTH",
"360 369 OFFCURVE",
"383 347 OFFCURVE",
"383 285 CURVE SMOOTH",
"383 58 LINE SMOOTH",
"383 34 OFFCURVE",
"346 27 OFFCURVE",
"346 8 CURVE SMOOTH",
"346 0 OFFCURVE",
"350 -5 OFFCURVE",
"364 -5 CURVE SMOOTH",
"377 -5 OFFCURVE",
"442 0 OFFCURVE",
"485 0 CURVE SMOOTH",
"524 0 OFFCURVE",
"565 -5 OFFCURVE",
"604 -5 CURVE SMOOTH",
"619 -5 OFFCURVE",
"623 -1 OFFCURVE",
"623 8 CURVE SMOOTH",
"623 28 OFFCURVE",
"560 35 OFFCURVE",
"560 65 CURVE SMOOTH",
"560 339 LINE SMOOTH",
"560 403 OFFCURVE",
"531 470 OFFCURVE",
"423 470 CURVE SMOOTH",
"329 470 OFFCURVE",
"288 395 OFFCURVE",
"277 395 CURVE SMOOTH",
"271 395 OFFCURVE",
"270 400 OFFCURVE",
"270 407 CURVE SMOOTH",
"270 738 LINE SMOOTH",
"270 746 OFFCURVE",
"267 752 OFFCURVE",
"260 752 CURVE SMOOTH",
"252 752 OFFCURVE",
"237 749 OFFCURVE",
"226 746 CURVE SMOOTH",
"45 700 LINE SMOOTH",
"28 696 OFFCURVE",
"23 692 OFFCURVE",
"23 687 CURVE SMOOTH",
"23 683 OFFCURVE",
"25 677 OFFCURVE",
"30 674 CURVE SMOOTH",
"80 642 LINE SMOOTH",
"87 638 OFFCURVE",
"89 631 OFFCURVE",
"89 622 CURVE SMOOTH",
"89 58 LINE SMOOTH",
"89 37 OFFCURVE",
"26 27 OFFCURVE",
"26 8 CURVE SMOOTH",
"26 0 OFFCURVE",
"30 -5 OFFCURVE",
"44 -5 CURVE SMOOTH"
);
}
);
width = 641;
}
);
leftKerningGroup = kernLC_l2;
rightKerningGroup = kernLC_n1;
unicode = 0068;
},
{
color = 5;
glyphname = i;
layers = (
{
anchors = (
{
name = bottom;
position = "{157, 0}";
},
{
name = right;
position = "{175, 0}";
},
{
name = top;
position = "{157, 510}";
}
);
layerId = m01;
paths = (
{
closed = 1;
nodes = (
"84 0 OFFCURVE",
"108 0 OFFCURVE",
"151 0 CURVE SMOOTH",
"190 0 OFFCURVE",
"202 0 OFFCURVE",
"241 0 CURVE SMOOTH",
"256 0 OFFCURVE",
"260 3 OFFCURVE",
"260 12 CURVE SMOOTH",
"260 31 OFFCURVE",
"197 40 OFFCURVE",
"197 62 CURVE SMOOTH",
"197 441 LINE SMOOTH",
"197 449 OFFCURVE",
"196 456 OFFCURVE",
"187 456 CURVE SMOOTH",
"182 456 OFFCURVE",
"174 453 OFFCURVE",
"167 450 CURVE SMOOTH",
"81 415 LINE SMOOTH",
"65 408 OFFCURVE",
"62 404 OFFCURVE",
"62 400 CURVE SMOOTH",
"62 395 OFFCURVE",
"64 391 OFFCURVE",
"70 386 CURVE SMOOTH",
"107 357 LINE SMOOTH",
"114 352 OFFCURVE",
"117 347 OFFCURVE",
"117 338 CURVE SMOOTH",
"117 62 LINE SMOOTH",
"117 41 OFFCURVE",
"53 31 OFFCURVE",
"53 12 CURVE SMOOTH",
"53 4 OFFCURVE",
"57 0 OFFCURVE",
"71 0 CURVE SMOOTH"
);
},
{
closed = 1;
nodes = (
"188 581 OFFCURVE",
"214 607 OFFCURVE",
"214 641 CURVE SMOOTH",
"214 676 OFFCURVE",
"188 701 OFFCURVE",
"154 701 CURVE SMOOTH",
"119 701 OFFCURVE",
"94 676 OFFCURVE",
"94 641 CURVE SMOOTH",
"94 607 OFFCURVE",
"119 581 OFFCURVE",
"154 581 CURVE SMOOTH"
);
}
);
width = 313;
},
{
anchors = (
{
name = bottom;
position = "{179, 0}";
},
{
name = right;
position = "{210, 0}";
},
{
name = top;
position = "{179, 510}";
}
);
layerId = m002;
paths = (
{
closed = 1;
nodes = (
"51 -4 OFFCURVE",
"88 0 OFFCURVE",
"191 0 CURVE SMOOTH",
"232 0 OFFCURVE",
"268 -4 OFFCURVE",
"307 -4 CURVE SMOOTH",
"322 -4 OFFCURVE",
"326 -1 OFFCURVE",
"326 8 CURVE SMOOTH",
"326 27 OFFCURVE",
"269 36 OFFCURVE",
"269 58 CURVE",
"269 455 LINE",
"269 463 OFFCURVE",
"265 470 OFFCURVE",
"258 470 CURVE SMOOTH",
"250 470 OFFCURVE",
"243 468 OFFCURVE",
"198 457 CURVE SMOOTH",
"42 420 LINE SMOOTH",
"26 416 OFFCURVE",
"23 412 OFFCURVE",
"23 408 CURVE SMOOTH",
"23 403 OFFCURVE",
"24 398 OFFCURVE",
"31 394 CURVE SMOOTH",
"79 363 LINE SMOOTH",
"87 358 OFFCURVE",
"89 353 OFFCURVE",
"89 344 CURVE",
"89 58 LINE",
"89 37 OFFCURVE",
"20 27 OFFCURVE",
"20 8 CURVE SMOOTH",
"20 0 OFFCURVE",
"24 -4 OFFCURVE",
"38 -4 CURVE SMOOTH"
);
},
{
closed = 1;
nodes = (
"224 554 OFFCURVE",
"258 588 OFFCURVE",
"258 635 CURVE SMOOTH",
"258 682 OFFCURVE",
"224 716 OFFCURVE",
"177 716 CURVE SMOOTH",
"130 716 OFFCURVE",
"96 682 OFFCURVE",
"96 635 CURVE SMOOTH",
"96 588 OFFCURVE",
"130 554 OFFCURVE",
"177 554 CURVE SMOOTH"
);
}
);
width = 346;
}
);
leftKerningGroup = kernLC_i2;
rightKerningGroup = kernLC_i1;
unicode = 0069;
},
{
color = 5;
glyphname = j;
layers = (
{
anchors = (
{
name = top;
position = "{157, 510}";
}
);
layerId = m01;
paths = (
{
closed = 1;
nodes = (
"96 -230 OFFCURVE",
"197 -142 OFFCURVE",
"197 0 CURVE",
"197 441 LINE",
"197 449 OFFCURVE",
"196 456 OFFCURVE",
"187 456 CURVE SMOOTH",
"182 456 OFFCURVE",
"174 453 OFFCURVE",
"167 450 CURVE SMOOTH",
"81 415 LINE SMOOTH",
"65 408 OFFCURVE",
"62 404 OFFCURVE",
"62 400 CURVE SMOOTH",
"62 395 OFFCURVE",
"64 391 OFFCURVE",
"70 386 CURVE SMOOTH",
"107 357 LINE SMOOTH",
"114 352 OFFCURVE",
"117 347 OFFCURVE",
"117 338 CURVE",
"117 -32 LINE",
"117 -182 OFFCURVE",
"54 -203 OFFCURVE",
"54 -216 CURVE SMOOTH",
"54 -224 OFFCURVE",
"58 -230 OFFCURVE",
"67 -230 CURVE SMOOTH"
);
},
{
closed = 1;
nodes = (
"188 581 OFFCURVE",
"214 607 OFFCURVE",
"214 641 CURVE SMOOTH",
"214 676 OFFCURVE",
"188 701 OFFCURVE",
"154 701 CURVE SMOOTH",
"119 701 OFFCURVE",
"94 676 OFFCURVE",
"94 641 CURVE SMOOTH",
"94 607 OFFCURVE",
"119 581 OFFCURVE",
"154 581 CURVE SMOOTH"
);
}
);
width = 314;
},
{
anchors = (
{
name = top;
position = "{176, 510}";
}
);
layerId = m002;
paths = (
{
closed = 1;
nodes = (
"66 -230 OFFCURVE",
"267 -142 OFFCURVE",
"267 0 CURVE",
"267 457 LINE",
"267 465 OFFCURVE",
"266 472 OFFCURVE",
"259 472 CURVE SMOOTH",
"252 472 OFFCURVE",
"240 469 OFFCURVE",
"233 467 CURVE SMOOTH",
"39 421 LINE SMOOTH",
"23 417 OFFCURVE",
"20 410 OFFCURVE",
"20 406 CURVE SMOOTH",
"20 401 OFFCURVE",
"22 396 OFFCURVE",
"28 392 CURVE SMOOTH",
"77 357 LINE SMOOTH",
"85 352 OFFCURVE",
"87 347 OFFCURVE",
"87 338 CURVE",
"87 -62 LINE",
"87 -182 OFFCURVE",
"24 -203 OFFCURVE",
"24 -216 CURVE SMOOTH",
"24 -224 OFFCURVE",
"28 -230 OFFCURVE",
"37 -230 CURVE SMOOTH"
);
},
{
closed = 1;
nodes = (
"221 554 OFFCURVE",
"255 588 OFFCURVE",
"255 635 CURVE SMOOTH",
"255 682 OFFCURVE",
"221 716 OFFCURVE",
"174 716 CURVE SMOOTH",
"127 716 OFFCURVE",
"93 682 OFFCURVE",
"93 635 CURVE SMOOTH",
"93 588 OFFCURVE",
"127 554 OFFCURVE",
"174 554 CURVE SMOOTH"
);
}
);
width = 341;
}
);
leftKerningGroup = kernLC_j2;
rightKerningGroup = kernLC_i1;
unicode = 006A;
},
{
color = 5;
glyphname = k;
layers = (
{
anchors = (
{
name = bottom;
position = "{295, 0}";
}
);
layerId = m01;
paths = (
{
closed = 1;
nodes = (
"79 -5 OFFCURVE",
"103 0 OFFCURVE",
"146 0 CURVE SMOOTH",
"185 0 OFFCURVE",
"204 -5 OFFCURVE",
"243 -5 CURVE SMOOTH",
"258 -5 OFFCURVE",
"262 -1 OFFCURVE",
"262 8 CURVE SMOOTH",
"262 28 OFFCURVE",
"191 28 OFFCURVE",
"191 58 CURVE SMOOTH",
"191 220 LINE SMOOTH",
"191 229 OFFCURVE",
"191 232 OFFCURVE",
"194 232 CURVE SMOOTH",
"197 232 OFFCURVE",
"202 228 OFFCURVE",
"210 219 CURVE SMOOTH",
"377 29 LINE SMOOTH",
"396 8 OFFCURVE",
"423 -5 OFFCURVE",
"448 -5 CURVE SMOOTH",
"526 -5 OFFCURVE",
"530 -2 OFFCURVE",
"530 7 CURVE SMOOTH",
"530 24 OFFCURVE",
"473 43 OFFCURVE",
"446 72 CURVE SMOOTH",
"289 246 LINE SMOOTH",
"284 252 OFFCURVE",
"272 264 OFFCURVE",
"272 272 CURVE SMOOTH",
"272 275 OFFCURVE",
"272 278 OFFCURVE",
"280 284 CURVE SMOOTH",
"429 399 LINE SMOOTH",
"453 418 OFFCURVE",
"493 427 OFFCURVE",
"493 443 CURVE SMOOTH",
"493 450 OFFCURVE",
"490 454 OFFCURVE",
"473 454 CURVE SMOOTH",
"459 454 OFFCURVE",
"444 450 OFFCURVE",
"400 450 CURVE SMOOTH",
"347 450 OFFCURVE",
"335 454 OFFCURVE",
"323 454 CURVE SMOOTH",
"307 454 OFFCURVE",
"303 450 OFFCURVE",
"303 443 CURVE SMOOTH",
"303 435 OFFCURVE",
"310 430 OFFCURVE",
"343 405 CURVE SMOOTH",
"348 401 OFFCURVE",
"352 399 OFFCURVE",
"352 396 CURVE SMOOTH",
"352 393 OFFCURVE",
"349 389 OFFCURVE",
"345 386 CURVE SMOOTH",
"208 270 LINE SMOOTH",
"201 264 OFFCURVE",
"198 262 OFFCURVE",
"195 262 CURVE SMOOTH",
"191 262 OFFCURVE",
"191 264 OFFCURVE",
"191 270 CURVE SMOOTH",
"191 734 LINE SMOOTH",
"191 742 OFFCURVE",
"188 746 OFFCURVE",
"183 746 CURVE SMOOTH",
"178 746 OFFCURVE",
"173 745 OFFCURVE",
"161 740 CURVE SMOOTH",
"76 705 LINE SMOOTH",
"59 698 OFFCURVE",
"54 696 OFFCURVE",
"54 691 CURVE SMOOTH",
"54 687 OFFCURVE",
"56 684 OFFCURVE",
"61 679 CURVE SMOOTH",
"102 644 LINE SMOOTH",
"109 638 OFFCURVE",
"111 634 OFFCURVE",
"111 625 CURVE SMOOTH",
"111 58 LINE SMOOTH",
"111 34 OFFCURVE",
"48 27 OFFCURVE",
"48 8 CURVE SMOOTH",
"48 0 OFFCURVE",
"52 -5 OFFCURVE",
"66 -5 CURVE SMOOTH"
);
}
);
width = 558;
},
{
anchors = (
{
name = bottom;
position = "{369, 0}";
}
);
layerId = m002;
paths = (
{
closed = 1;
nodes = (
"57 -5 OFFCURVE",
"181 0 OFFCURVE",
"224 0 CURVE SMOOTH",
"263 0 OFFCURVE",
"282 -5 OFFCURVE",
"321 -5 CURVE SMOOTH",
"336 -5 OFFCURVE",
"340 -1 OFFCURVE",
"340 8 CURVE SMOOTH",
"340 28 OFFCURVE",
"269 28 OFFCURVE",
"269 58 CURVE SMOOTH",
"269 200 LINE SMOOTH",
"269 209 OFFCURVE",
"269 219 OFFCURVE",
"274 219 CURVE SMOOTH",
"278 219 OFFCURVE",
"280 217 OFFCURVE",
"286 207 CURVE SMOOTH",
"392 29 LINE SMOOTH",
"407 4 OFFCURVE",
"438 -5 OFFCURVE",
"463 -5 CURVE SMOOTH",
"626 -5 OFFCURVE",
"643 -2 OFFCURVE",
"643 7 CURVE SMOOTH",
"643 24 OFFCURVE",
"585 39 OFFCURVE",
"564 72 CURVE SMOOTH",
"426 283 LINE SMOOTH",
"422 290 OFFCURVE",
"409 301 OFFCURVE",
"409 309 CURVE SMOOTH",
"409 312 OFFCURVE",
"409 315 OFFCURVE",
"417 321 CURVE SMOOTH",
"520 405 LINE SMOOTH",
"543 424 OFFCURVE",
"584 433 OFFCURVE",
"584 449 CURVE SMOOTH",
"584 456 OFFCURVE",
"581 460 OFFCURVE",
"564 460 CURVE SMOOTH",
"550 460 OFFCURVE",
"535 456 OFFCURVE",
"478 456 CURVE SMOOTH",
"411 456 OFFCURVE",
"399 460 OFFCURVE",
"387 460 CURVE SMOOTH",
"371 460 OFFCURVE",
"367 456 OFFCURVE",
"367 449 CURVE SMOOTH",
"367 441 OFFCURVE",
"387 429 OFFCURVE",
"406 415 CURVE SMOOTH",
"411 411 OFFCURVE",
"415 409 OFFCURVE",
"415 406 CURVE SMOOTH",
"415 403 OFFCURVE",
"412 400 OFFCURVE",
"408 396 CURVE SMOOTH",
"286 282 LINE SMOOTH",
"279 275 OFFCURVE",
"276 274 OFFCURVE",
"273 274 CURVE SMOOTH",
"269 274 OFFCURVE",
"269 276 OFFCURVE",
"269 282 CURVE SMOOTH",
"269 742 LINE SMOOTH",
"269 750 OFFCURVE",
"266 754 OFFCURVE",
"261 754 CURVE SMOOTH",
"256 754 OFFCURVE",
"251 751 OFFCURVE",
"239 748 CURVE SMOOTH",
"49 699 LINE SMOOTH",
"32 695 OFFCURVE",
"27 690 OFFCURVE",
"27 685 CURVE SMOOTH",
"27 681 OFFCURVE",
"28 677 OFFCURVE",
"34 673 CURVE SMOOTH",
"80 644 LINE SMOOTH",
"87 639 OFFCURVE",
"89 634 OFFCURVE",
"89 625 CURVE SMOOTH",
"89 58 LINE SMOOTH",
"89 34 OFFCURVE",
"26 27 OFFCURVE",
"26 8 CURVE SMOOTH",
"26 0 OFFCURVE",
"30 -5 OFFCURVE",
"44 -5 CURVE SMOOTH"
);
}
);
width = 632;
}
);
leftKerningGroup = kernLC_l2;
rightKerningGroup = kernLC_k1;
unicode = 006B;
},
{
color = 5;
glyphname = l;
layers = (
{
anchors = (
{
name = bottom;
position = "{147, 0}";
},
{
name = mid;
position = "{295, 300}";
},
{
name = right;
position = "{313, 740}";
},
{
name = top;
position = "{147, 765}";
}
);
layerId = m01;
paths = (
{
closed = 1;
nodes = (
"75 -4 OFFCURVE",
"98 0 OFFCURVE",
"141 0 CURVE SMOOTH",
"180 0 OFFCURVE",
"192 -4 OFFCURVE",
"231 -4 CURVE SMOOTH",
"246 -4 OFFCURVE",
"250 -1 OFFCURVE",
"250 8 CURVE SMOOTH",
"250 27 OFFCURVE",
"187 36 OFFCURVE",
"187 58 CURVE",
"187 731 LINE",
"187 739 OFFCURVE",
"186 746 OFFCURVE",
"177 746 CURVE SMOOTH",
"169 746 OFFCURVE",
"164 743 OFFCURVE",
"71 705 CURVE SMOOTH",
"55 698 OFFCURVE",
"52 695 OFFCURVE",
"52 691 CURVE SMOOTH",
"52 686 OFFCURVE",
"54 681 OFFCURVE",
"60 676 CURVE SMOOTH",
"104 642 OFFCURVE",
"107 635 OFFCURVE",
"107 624 CURVE",
"107 58 LINE",
"107 37 OFFCURVE",
"44 27 OFFCURVE",
"44 8 CURVE SMOOTH",
"44 0 OFFCURVE",
"48 -4 OFFCURVE",
"62 -4 CURVE SMOOTH"
);
}
);
width = 294;
},
{
anchors = (
{
name = bottom;
position = "{179, 0}";
},
{
name = mid;
position = "{397, 300}";
},
{
name = right;
position = "{389, 740}";
},
{
name = top;
position = "{179, 765}";
}
);
layerId = m002;
paths = (
{
closed = 1;
nodes = (
"51 -4 OFFCURVE",
"125 0 OFFCURVE",
"168 0 CURVE SMOOTH",
"207 0 OFFCURVE",
"268 -4 OFFCURVE",
"307 -4 CURVE SMOOTH",
"322 -4 OFFCURVE",
"326 -1 OFFCURVE",
"326 8 CURVE SMOOTH",
"326 27 OFFCURVE",
"269 36 OFFCURVE",
"269 58 CURVE",
"269 725 LINE",
"269 738 OFFCURVE",
"263 746 OFFCURVE",
"252 746 CURVE SMOOTH",
"241 746 OFFCURVE",
"234 748 OFFCURVE",
"42 702 CURVE SMOOTH",
"26 698 OFFCURVE",
"23 692 OFFCURVE",
"23 688 CURVE SMOOTH",
"23 683 OFFCURVE",
"25 677 OFFCURVE",
"31 673 CURVE SMOOTH",
"86 639 OFFCURVE",
"89 633 OFFCURVE",
"89 624 CURVE",
"89 58 LINE",
"89 37 OFFCURVE",
"20 27 OFFCURVE",
"20 8 CURVE SMOOTH",
"20 0 OFFCURVE",
"24 -4 OFFCURVE",
"38 -4 CURVE SMOOTH"
);
}
);
width = 346;
}
);
leftKerningGroup = kernLC_l2;
rightKerningGroup = kernLC_l1;
unicode = 006C;
},
{
color = 5;
glyphname = m;
layers = (
{
anchors = (
{
name = bottom;
position = "{431, 0}";
}
);
layerId = m01;
paths = (
{
closed = 1;
nodes = (
"79 -5 OFFCURVE",
"103 0 OFFCURVE",
"146 0 CURVE SMOOTH",
"185 0 OFFCURVE",
"198 -5 OFFCURVE",
"237 -5 CURVE SMOOTH",
"252 -5 OFFCURVE",
"256 -1 OFFCURVE",
"256 8 CURVE SMOOTH",
"256 28 OFFCURVE",
"191 31 OFFCURVE",
"191 58 CURVE SMOOTH",
"191 329 LINE SMOOTH",
"191 362 OFFCURVE",
"237 386 OFFCURVE",
"299 386 CURVE SMOOTH",
"362 386 OFFCURVE",
"391 348 OFFCURVE",
"391 285 CURVE SMOOTH",
"391 58 LINE SMOOTH",
"391 34 OFFCURVE",
"324 27 OFFCURVE",
"324 8 CURVE SMOOTH",
"324 0 OFFCURVE",
"328 -5 OFFCURVE",
"342 -5 CURVE SMOOTH",
"355 -5 OFFCURVE",
"393 0 OFFCURVE",
"436 0 CURVE SMOOTH",
"475 0 OFFCURVE",
"482 -5 OFFCURVE",
"521 -5 CURVE SMOOTH",
"536 -5 OFFCURVE",
"540 -1 OFFCURVE",
"540 8 CURVE SMOOTH",
"540 28 OFFCURVE",
"471 28 OFFCURVE",
"471 58 CURVE SMOOTH",
"471 329 LINE SMOOTH",
"471 362 OFFCURVE",
"533 386 OFFCURVE",
"578 386 CURVE SMOOTH",
"651 386 OFFCURVE",
"680 348 OFFCURVE",
"680 285 CURVE SMOOTH",
"680 58 LINE SMOOTH",
"680 34 OFFCURVE",
"608 27 OFFCURVE",
"608 8 CURVE SMOOTH",
"608 0 OFFCURVE",
"612 -5 OFFCURVE",
"626 -5 CURVE SMOOTH",
"639 -5 OFFCURVE",
"672 0 OFFCURVE",
"715 0 CURVE SMOOTH",
"754 0 OFFCURVE",
"764 -5 OFFCURVE",
"803 -5 CURVE SMOOTH",
"818 -5 OFFCURVE",
"822 -1 OFFCURVE",
"822 8 CURVE SMOOTH",
"822 28 OFFCURVE",
"760 28 OFFCURVE",
"760 58 CURVE SMOOTH",
"760 329 LINE SMOOTH",
"760 421 OFFCURVE",
"711 460 OFFCURVE",
"623 460 CURVE SMOOTH",
"534 460 OFFCURVE",
"494 383 OFFCURVE",
"471 383 CURVE SMOOTH",
"454 383 OFFCURVE",
"454 460 OFFCURVE",
"344 460 CURVE SMOOTH",
"257 460 OFFCURVE",
"205 392 OFFCURVE",
"196 392 CURVE SMOOTH",
"192 392 OFFCURVE",
"189 395 OFFCURVE",
"188 404 CURVE SMOOTH",
"183 445 LINE SMOOTH",
"182 453 OFFCURVE",
"179 456 OFFCURVE",
"172 456 CURVE SMOOTH",
"164 456 OFFCURVE",
"144 446 OFFCURVE",
"83 419 CURVE SMOOTH",
"63 410 OFFCURVE",
"54 406 OFFCURVE",
"54 401 CURVE SMOOTH",
"54 397 OFFCURVE",
"56 393 OFFCURVE",
"65 386 CURVE SMOOTH",
"103 353 OFFCURVE",
"111 345 OFFCURVE",
"111 334 CURVE SMOOTH",
"111 58 LINE SMOOTH",
"111 37 OFFCURVE",
"48 27 OFFCURVE",
"48 8 CURVE SMOOTH",
"48 0 OFFCURVE",
"52 -5 OFFCURVE",
"66 -5 CURVE SMOOTH"
);
}
);
width = 860;
},
{
anchors = (
{
name = bottom;
position = "{468, 0}";
}
);
layerId = m002;
paths = (
{
closed = 1;
nodes = (
"51 -5 OFFCURVE",
"105 0 OFFCURVE",
"156 0 CURVE SMOOTH",
"210 0 OFFCURVE",
"263 -5 OFFCURVE",
"287 -5 CURVE SMOOTH",
"302 -5 OFFCURVE",
"306 -1 OFFCURVE",
"306 8 CURVE SMOOTH",
"306 28 OFFCURVE",
"269 35 OFFCURVE",
"269 58 CURVE SMOOTH",
"269 316 LINE SMOOTH",
"269 360 OFFCURVE",
"297 366 OFFCURVE",
"329 366 CURVE SMOOTH",
"360 366 OFFCURVE",
"378 341 OFFCURVE",
"378 295 CURVE SMOOTH",
"378 58 LINE SMOOTH",
"378 34 OFFCURVE",
"341 27 OFFCURVE",
"341 8 CURVE SMOOTH",
"341 0 OFFCURVE",
"345 -5 OFFCURVE",
"359 -5 CURVE SMOOTH",
"372 -5 OFFCURVE",
"433 0 OFFCURVE",
"476 0 CURVE SMOOTH",
"515 0 OFFCURVE",
"538 -5 OFFCURVE",
"577 -5 CURVE SMOOTH",
"592 -5 OFFCURVE",
"596 -1 OFFCURVE",
"596 8 CURVE SMOOTH",
"596 26 OFFCURVE",
"558 37 OFFCURVE",
"558 58 CURVE SMOOTH",
"558 335 LINE SMOOTH",
"558 349 OFFCURVE",
"577 366 OFFCURVE",
"619 366 CURVE SMOOTH",
"652 366 OFFCURVE",
"669 348 OFFCURVE",
"669 295 CURVE SMOOTH",
"669 58 LINE SMOOTH",
"669 34 OFFCURVE",
"631 27 OFFCURVE",
"631 8 CURVE SMOOTH",
"631 0 OFFCURVE",
"635 -5 OFFCURVE",
"649 -5 CURVE SMOOTH",
"662 -5 OFFCURVE",
"723 0 OFFCURVE",
"766 0 CURVE SMOOTH",
"805 0 OFFCURVE",
"860 -5 OFFCURVE",
"899 -5 CURVE SMOOTH",
"914 -5 OFFCURVE",
"918 -1 OFFCURVE",
"918 8 CURVE SMOOTH",
"918 26 OFFCURVE",
"849 37 OFFCURVE",
"849 58 CURVE SMOOTH",
"849 335 LINE SMOOTH",
"849 424 OFFCURVE",
"803 471 OFFCURVE",
"715 471 CURVE SMOOTH",
"610 471 OFFCURVE",
"576 393 OFFCURVE",
"560 393 CURVE SMOOTH",
"537 393 OFFCURVE",
"543 471 OFFCURVE",
"425 471 CURVE SMOOTH",
"316 471 OFFCURVE",
"288 397 OFFCURVE",
"274 397 CURVE SMOOTH",
"269 397 OFFCURVE",
"267 402 OFFCURVE",
"266 411 CURVE SMOOTH",
"262 450 LINE SMOOTH",
"261 461 OFFCURVE",
"252 467 OFFCURVE",
"242 467 CURVE SMOOTH",
"234 467 OFFCURVE",
"220 464 OFFCURVE",
"56 415 CURVE SMOOTH",
"40 410 OFFCURVE",
"31 405 OFFCURVE",
"31 397 CURVE SMOOTH",
"31 388 OFFCURVE",
"35 382 OFFCURVE",
"48 376 CURVE SMOOTH",
"74 364 OFFCURVE",
"89 356 OFFCURVE",
"89 339 CURVE SMOOTH",
"89 58 LINE SMOOTH",
"89 37 OFFCURVE",
"20 27 OFFCURVE",
"20 8 CURVE SMOOTH",
"20 0 OFFCURVE",
"24 -5 OFFCURVE",
"38 -5 CURVE SMOOTH"
);
}
);
width = 928;
}
);
leftKerningGroup = kernLC_n2;
rightKerningGroup = kernLC_n1;
unicode = 006D;
},
{
color = 5;
glyphname = n;
layers = (
{
anchors = (
{
name = bottom;
position = "{296, 0}";
},
{
name = top;
position = "{296, 510}";
}
);
layerId = m01;
paths = (
{
closed = 1;
nodes = (
"79 0 OFFCURVE",
"103 0 OFFCURVE",
"146 0 CURVE SMOOTH",
"185 0 OFFCURVE",
"204 0 OFFCURVE",
"243 0 CURVE SMOOTH",
"258 0 OFFCURVE",
"262 4 OFFCURVE",
"262 13 CURVE SMOOTH",
"262 30 OFFCURVE",
"191 40 OFFCURVE",
"191 60 CURVE SMOOTH",
"191 316 LINE SMOOTH",
"191 360 OFFCURVE",
"237 386 OFFCURVE",
"299 386 CURVE SMOOTH",
"372 386 OFFCURVE",
"401 348 OFFCURVE",
"401 285 CURVE SMOOTH",
"401 58 LINE SMOOTH",
"401 34 OFFCURVE",
"330 27 OFFCURVE",
"330 8 CURVE SMOOTH",
"330 0 OFFCURVE",
"334 -5 OFFCURVE",
"348 -5 CURVE SMOOTH",
"361 -5 OFFCURVE",
"393 0 OFFCURVE",
"436 0 CURVE SMOOTH",
"475 0 OFFCURVE",
"486 -5 OFFCURVE",
"525 -5 CURVE SMOOTH",
"540 -5 OFFCURVE",
"544 -1 OFFCURVE",
"544 8 CURVE SMOOTH",
"544 28 OFFCURVE",
"481 28 OFFCURVE",
"481 58 CURVE SMOOTH",
"481 329 LINE SMOOTH",
"481 404 OFFCURVE",
"432 460 OFFCURVE",
"344 460 CURVE SMOOTH",
"257 460 OFFCURVE",
"205 392 OFFCURVE",
"196 392 CURVE SMOOTH",
"192 392 OFFCURVE",
"189 395 OFFCURVE",
"188 404 CURVE SMOOTH",
"183 445 LINE SMOOTH",
"182 453 OFFCURVE",
"179 456 OFFCURVE",
"172 456 CURVE SMOOTH",
"164 456 OFFCURVE",
"144 446 OFFCURVE",
"83 419 CURVE SMOOTH",
"63 410 OFFCURVE",
"54 406 OFFCURVE",
"54 401 CURVE SMOOTH",
"54 397 OFFCURVE",
"56 393 OFFCURVE",
"65 386 CURVE SMOOTH",
"103 353 OFFCURVE",
"111 345 OFFCURVE",
"111 334 CURVE SMOOTH",
"111 60 LINE SMOOTH",
"111 40 OFFCURVE",
"48 30 OFFCURVE",
"48 13 CURVE SMOOTH",
"48 5 OFFCURVE",
"52 0 OFFCURVE",
"66 0 CURVE SMOOTH"
);
}
);
width = 582;
},
{
anchors = (
{
name = bottom;
position = "{326, 0}";
},
{
name = top;
position = "{326, 510}";
}
);
layerId = m002;
paths = (
{
closed = 1;
nodes = (
"51 -5 OFFCURVE",
"105 0 OFFCURVE",
"156 0 CURVE SMOOTH",
"210 0 OFFCURVE",
"263 -5 OFFCURVE",
"287 -5 CURVE SMOOTH",
"302 -5 OFFCURVE",
"306 -1 OFFCURVE",
"306 8 CURVE SMOOTH",
"306 28 OFFCURVE",
"269 35 OFFCURVE",
"269 58 CURVE SMOOTH",
"269 316 LINE SMOOTH",
"269 360 OFFCURVE",
"297 366 OFFCURVE",
"329 366 CURVE SMOOTH",
"362 366 OFFCURVE",
"382 348 OFFCURVE",
"382 295 CURVE SMOOTH",
"382 58 LINE SMOOTH",
"382 34 OFFCURVE",
"345 27 OFFCURVE",
"345 8 CURVE SMOOTH",
"345 0 OFFCURVE",
"349 -5 OFFCURVE",
"363 -5 CURVE SMOOTH",
"376 -5 OFFCURVE",
"433 0 OFFCURVE",
"476 0 CURVE SMOOTH",
"515 0 OFFCURVE",
"573 -5 OFFCURVE",
"612 -5 CURVE SMOOTH",
"627 -5 OFFCURVE",
"631 -1 OFFCURVE",
"631 8 CURVE SMOOTH",
"631 26 OFFCURVE",
"562 37 OFFCURVE",
"562 58 CURVE SMOOTH",
"562 335 LINE SMOOTH",
"562 424 OFFCURVE",
"513 470 OFFCURVE",
"425 470 CURVE SMOOTH",
"328 470 OFFCURVE",
"290 397 OFFCURVE",
"274 397 CURVE SMOOTH",
"269 397 OFFCURVE",
"267 402 OFFCURVE",
"266 411 CURVE SMOOTH",
"262 450 LINE SMOOTH",
"261 461 OFFCURVE",
"252 467 OFFCURVE",
"242 467 CURVE SMOOTH",
"234 467 OFFCURVE",
"220 464 OFFCURVE",
"56 415 CURVE SMOOTH",
"40 410 OFFCURVE",
"31 405 OFFCURVE",
"31 397 CURVE SMOOTH",
"31 388 OFFCURVE",
"35 382 OFFCURVE",
"48 376 CURVE SMOOTH",
"74 364 OFFCURVE",
"89 356 OFFCURVE",
"89 339 CURVE SMOOTH",
"89 58 LINE SMOOTH",
"89 37 OFFCURVE",
"20 27 OFFCURVE",
"20 8 CURVE SMOOTH",
"20 0 OFFCURVE",
"24 -5 OFFCURVE",
"38 -5 CURVE SMOOTH"
);
}
);
width = 641;
}
);
leftKerningGroup = kernLC_n2;
rightKerningGroup = kernLC_n1;
unicode = 006E;
},
{
color = 5;
glyphname = o;
layers = (
{
anchors = (
{
name = bottom;
position = "{276, 0}";
},
{
name = right;
position = "{306, 0}";
},
{
name = top;
position = "{267, 510}";
}
);
layerId = m01;
paths = (
{
closed = 1;
nodes = (
"401 -10 OFFCURVE",
"490 91 OFFCURVE",
"490 225 CURVE SMOOTH",
"490 359 OFFCURVE",
"401 460 OFFCURVE",
"270 460 CURVE SMOOTH",
"139 460 OFFCURVE",
"50 359 OFFCURVE",
"50 225 CURVE SMOOTH",
"50 91 OFFCURVE",
"139 -10 OFFCURVE",
"270 -10 CURVE SMOOTH"
);
},
{
closed = 1;
nodes = (
"182.703 33 OFFCURVE",
"140 140 OFFCURVE",
"140 246 CURVE SMOOTH",
"140 333 OFFCURVE",
"176 418 OFFCURVE",
"258 418 CURVE SMOOTH",
"359 418 OFFCURVE",
"400 311 OFFCURVE",
"400 205 CURVE SMOOTH",
"400 119 OFFCURVE",
"365.299 33 OFFCURVE",
"284 33 CURVE SMOOTH"
);
}
);
width = 540;
},
{
anchors = (
{
name = bottom;
position = "{276, 0}";
},
{
name = right;
position = "{318, 0}";
},
{
name = top;
position = "{276, 510}";
}
);
layerId = m002;
paths = (
{
closed = 1;
nodes = (
"425 -10 OFFCURVE",
"527 102 OFFCURVE",
"527 230 CURVE SMOOTH",
"527 359 OFFCURVE",
"425 470 OFFCURVE",
"276 470 CURVE SMOOTH",
"127 470 OFFCURVE",
"25 359 OFFCURVE",
"25 230 CURVE SMOOTH",
"25 102 OFFCURVE",
"127 -10 OFFCURVE",
"276 -10 CURVE SMOOTH"
);
},
{
closed = 1;
nodes = (
"229 43 OFFCURVE",
"205 139.646 OFFCURVE",
"205 251 CURVE SMOOTH",
"205 343.541 OFFCURVE",
"224 418 OFFCURVE",
"269 418 CURVE SMOOTH",
"324 418 OFFCURVE",
"347 321.354 OFFCURVE",
"347 210 CURVE SMOOTH",
"347 118.522 OFFCURVE",
"328 43 OFFCURVE",
"285 43 CURVE SMOOTH"
);
}
);
width = 552;
}
);
leftKerningGroup = kernLC_o2;
rightKerningGroup = kernLC_o1;
unicode = 006F;
},
{
color = 5;
glyphname = p;
layers = (
{
layerId = m01;
paths = (
{
closed = 1;
nodes = (
"79 -235 OFFCURVE",
"103 -230 OFFCURVE",
"146 -230 CURVE SMOOTH",
"185 -230 OFFCURVE",
"204 -235 OFFCURVE",
"243 -235 CURVE SMOOTH",
"258 -235 OFFCURVE",
"262 -231 OFFCURVE",
"262 -222 CURVE SMOOTH",
"262 -202 OFFCURVE",
"191 -199 OFFCURVE",
"191 -172 CURVE SMOOTH",
"191 -24 LINE SMOOTH",
"191 -9 OFFCURVE",
"198 0 OFFCURVE",
"216 0 CURVE SMOOTH",
"240 0 OFFCURVE",
"257 -10 OFFCURVE",
"292 -10 CURVE SMOOTH",
"438 -10 OFFCURVE",
"520 105 OFFCURVE",
"520 244 CURVE SMOOTH",
"520 395 OFFCURVE",
"432 460 OFFCURVE",
"344 460 CURVE SMOOTH",
"250 460 OFFCURVE",
"203 399 OFFCURVE",
"195 399 CURVE SMOOTH",
"189 399 OFFCURVE",
"189 404 OFFCURVE",
"188 411 CURVE SMOOTH",
"184 440 LINE SMOOTH",
"183 448 OFFCURVE",
"181 456 OFFCURVE",
"174 456 CURVE SMOOTH",
"166 456 OFFCURVE",
"161 453 OFFCURVE",
"76 416 CURVE SMOOTH",
"59 409 OFFCURVE",
"54 406 OFFCURVE",
"54 401 CURVE SMOOTH",
"54 397 OFFCURVE",
"56 394 OFFCURVE",
"61 389 CURVE SMOOTH",
"102 354 LINE SMOOTH",
"109 348 OFFCURVE",
"111 344 OFFCURVE",
"111 335 CURVE SMOOTH",
"111 -172 LINE SMOOTH",
"111 -193 OFFCURVE",
"48 -203 OFFCURVE",
"48 -222 CURVE SMOOTH",
"48 -230 OFFCURVE",
"52 -235 OFFCURVE",
"66 -235 CURVE SMOOTH"
);
},
{
closed = 1;
nodes = (
"244 37 OFFCURVE",
"191 59 OFFCURVE",
"191 102 CURVE",
"191 334 LINE",
"191 369 OFFCURVE",
"237 391 OFFCURVE",
"289 391 CURVE SMOOTH",
"362 391 OFFCURVE",
"438 348 OFFCURVE",
"438 218 CURVE SMOOTH",
"438 107 OFFCURVE",
"402 37 OFFCURVE",
"318 37 CURVE SMOOTH"
);
}
);
width = 567;
},
{
layerId = m002;
paths = (
{
closed = 1;
nodes = (
"51 -235 OFFCURVE",
"139 -230 OFFCURVE",
"184 -230 CURVE SMOOTH",
"219 -230 OFFCURVE",
"305 -235 OFFCURVE",
"332 -235 CURVE SMOOTH",
"347 -235 OFFCURVE",
"351 -231 OFFCURVE",
"351 -222 CURVE SMOOTH",
"351 -202 OFFCURVE",
"269 -199 OFFCURVE",
"269 -172 CURVE SMOOTH",
"269 -27 LINE SMOOTH",
"269 -15 OFFCURVE",
"272 -7 OFFCURVE",
"284 -7 CURVE SMOOTH",
"301 -7 OFFCURVE",
"318 -10 OFFCURVE",
"340 -10 CURVE SMOOTH",
"486 -10 OFFCURVE",
"579 105 OFFCURVE",
"579 244 CURVE SMOOTH",
"579 375 OFFCURVE",
"503 470 OFFCURVE",
"415 470 CURVE SMOOTH",
"327 470 OFFCURVE",
"280 412 OFFCURVE",
"273 412 CURVE SMOOTH",
"267 412 OFFCURVE",
"266 417 OFFCURVE",
"265 424 CURVE SMOOTH",
"261 454 LINE SMOOTH",
"260 463 OFFCURVE",
"258 469 OFFCURVE",
"251 469 CURVE SMOOTH",
"237 469 OFFCURVE",
"226 465 OFFCURVE",
"45 412 CURVE SMOOTH",
"28 407 OFFCURVE",
"23 401 OFFCURVE",
"23 396 CURVE SMOOTH",
"23 392 OFFCURVE",
"24 388 OFFCURVE",
"30 384 CURVE SMOOTH",
"80 352 LINE SMOOTH",
"88 347 OFFCURVE",
"89 342 OFFCURVE",
"89 333 CURVE SMOOTH",
"89 -172 LINE SMOOTH",
"89 -193 OFFCURVE",
"20 -203 OFFCURVE",
"20 -222 CURVE SMOOTH",
"20 -230 OFFCURVE",
"24 -235 OFFCURVE",
"38 -235 CURVE SMOOTH"
);
},
{
closed = 1;
nodes = (
"283 45 OFFCURVE",
"269 63 OFFCURVE",
"269 82 CURVE",
"269 334 LINE",
"269 369 OFFCURVE",
"282 379 OFFCURVE",
"314 379 CURVE SMOOTH",
"355 379 OFFCURVE",
"399 336 OFFCURVE",
"399 206 CURVE SMOOTH",
"399 95 OFFCURVE",
"362 45 OFFCURVE",
"318 45 CURVE SMOOTH"
);
}
);
width = 604;
}
);
leftKerningGroup = kernLC_n2;
rightKerningGroup = kernLC_o1;
unicode = 0070;
},
{
color = 5;
glyphname = q;
layers = (
{
layerId = m01;
paths = (
{
closed = 1;
nodes = (
"502 -230 LINE",
"511 -230 OFFCURVE",
"519 -229 OFFCURVE",
"519 -220 CURVE SMOOTH",
"519 -202 OFFCURVE",
"456 -195 OFFCURVE",
"456 -165 CURVE SMOOTH",
"456 38 OFFCURVE",
"456 236 OFFCURVE",
"456 439 CURVE SMOOTH",
"456 449 OFFCURVE",
"454 460 OFFCURVE",
"442 460 CURVE SMOOTH",
"431 460 OFFCURVE",
"417 439 OFFCURVE",
"404 439 CURVE SMOOTH",
"393 439 OFFCURVE",
"368 460 OFFCURVE",
"285 460 CURVE SMOOTH",
"158 460 OFFCURVE",
"48 363 OFFCURVE",
"48 194 CURVE SMOOTH",
"48 47 OFFCURVE",
"145 -10 OFFCURVE",
"215 -10 CURVE SMOOTH",
"305 -10 OFFCURVE",
"333 31 OFFCURVE",
"364 34 CURVE SMOOTH",
"374 34 OFFCURVE",
"376 28 OFFCURVE",
"376 18 CURVE SMOOTH",
"376 -159 LINE SMOOTH",
"376 -193 OFFCURVE",
"305 -202 OFFCURVE",
"305 -220 CURVE SMOOTH",
"305 -228 OFFCURVE",
"312 -230 OFFCURVE",
"325 -230 CURVE"
);
},
{
closed = 1;
nodes = (
"184 59 OFFCURVE",
"128 117 OFFCURVE",
"128 217 CURVE SMOOTH",
"128 366 OFFCURVE",
"197 411 OFFCURVE",
"271 411 CURVE SMOOTH",
"325 411 OFFCURVE",
"376 387 OFFCURVE",
"376 356 CURVE SMOOTH",
"376 113 LINE SMOOTH",
"376 92 OFFCURVE",
"314 59 OFFCURVE",
"279 59 CURVE SMOOTH"
);
}
);
width = 558;
},
{
layerId = m002;
paths = (
{
closed = 1;
nodes = (
"567 -230 LINE",
"576 -230 OFFCURVE",
"584 -229 OFFCURVE",
"584 -220 CURVE SMOOTH",
"584 -202 OFFCURVE",
"515 -195 OFFCURVE",
"515 -165 CURVE SMOOTH",
"515 38 OFFCURVE",
"515 223 OFFCURVE",
"515 426 CURVE SMOOTH",
"515 452 OFFCURVE",
"502 470 OFFCURVE",
"480 470 CURVE SMOOTH",
"446 470 OFFCURVE",
"420 442 OFFCURVE",
"393 442 CURVE SMOOTH",
"378 442 OFFCURVE",
"362 470 OFFCURVE",
"275 470 CURVE SMOOTH",
"125 470 OFFCURVE",
"25 363 OFFCURVE",
"25 194 CURVE SMOOTH",
"25 67 OFFCURVE",
"112 -10 OFFCURVE",
"182 -10 CURVE SMOOTH",
"272 -10 OFFCURVE",
"292 31 OFFCURVE",
"323 34 CURVE SMOOTH",
"333 34 OFFCURVE",
"335 28 OFFCURVE",
"335 18 CURVE SMOOTH",
"335 -159 LINE SMOOTH",
"335 -193 OFFCURVE",
"253 -202 OFFCURVE",
"253 -220 CURVE SMOOTH",
"253 -228 OFFCURVE",
"260 -230 OFFCURVE",
"273 -230 CURVE"
);
},
{
closed = 1;
nodes = (
"247 81 OFFCURVE",
"205 133 OFFCURVE",
"205 223 CURVE SMOOTH",
"205 372 OFFCURVE",
"235 415 OFFCURVE",
"286 415 CURVE SMOOTH",
"324 415 OFFCURVE",
"335 403 OFFCURVE",
"335 372 CURVE SMOOTH",
"335 123 LINE SMOOTH",
"335 102 OFFCURVE",
"327 81 OFFCURVE",
"292 81 CURVE SMOOTH"
);
}
);
width = 594;
}
);
leftKerningGroup = kernLC_o2;
rightKerningGroup = kernLC_q1;
unicode = 0071;
},
{
color = 5;
glyphname = r;
layers = (
{
anchors = (
{
name = bottom;
position = "{155, 0}";
},
{
name = top;
position = "{222, 510}";
}
);
layerId = m01;
paths = (
{
closed = 1;
nodes = (
"97 -5 OFFCURVE",
"124 0 OFFCURVE",
"154 0 CURVE SMOOTH",
"179 0 OFFCURVE",
"222 -5 OFFCURVE",
"251 -5 CURVE SMOOTH",
"260 -5 OFFCURVE",
"268 -3 OFFCURVE",
"268 6 CURVE SMOOTH",
"268 25 OFFCURVE",
"195 29 OFFCURVE",
"195 67 CURVE SMOOTH",
"195 305 LINE SMOOTH",
"195 339 OFFCURVE",
"222 378 OFFCURVE",
"261 378 CURVE SMOOTH",
"295 378 OFFCURVE",
"319 355 OFFCURVE",
"343 355 CURVE SMOOTH",
"360 355 OFFCURVE",
"376 398 OFFCURVE",
"376 418 CURVE SMOOTH",
"376 443 OFFCURVE",
"339 460 OFFCURVE",
"317 460 CURVE SMOOTH",
"271 460 OFFCURVE",
"254 450 OFFCURVE",
"230 419 CURVE SMOOTH",
"212 395 OFFCURVE",
"206 377 OFFCURVE",
"199 377 CURVE SMOOTH",
"188 377 OFFCURVE",
"189 389 OFFCURVE",
"189 420 CURVE SMOOTH",
"189 450 OFFCURVE",
"186 460 OFFCURVE",
"173 460 CURVE SMOOTH",
"156 460 OFFCURVE",
"138 442 OFFCURVE",
"107 427 CURVE SMOOTH",
"75 411 OFFCURVE",
"59 407 OFFCURVE",
"59 395 CURVE SMOOTH",
"59 381 OFFCURVE",
"115 365 OFFCURVE",
"115 331 CURVE SMOOTH",
"115 61 LINE SMOOTH",
"115 33 OFFCURVE",
"50 30 OFFCURVE",
"50 6 CURVE SMOOTH",
"50 -3 OFFCURVE",
"55 -5 OFFCURVE",
"70 -5 CURVE SMOOTH"
);
}
);
width = 397;
},
{
anchors = (
{
name = bottom;
position = "{179, 0}";
},
{
name = top;
position = "{264, 510}";
}
);
layerId = m002;
paths = (
{
closed = 1;
nodes = (
"67 -5 OFFCURVE",
"138 0 OFFCURVE",
"188 0 CURVE SMOOTH",
"277 0 OFFCURVE",
"310 -5 OFFCURVE",
"339 -5 CURVE SMOOTH",
"348 -5 OFFCURVE",
"356 -3 OFFCURVE",
"356 6 CURVE SMOOTH",
"356 31 OFFCURVE",
"269 33 OFFCURVE",
"269 71 CURVE SMOOTH",
"269 294 LINE SMOOTH",
"269 333 OFFCURVE",
"296 359 OFFCURVE",
"335 359 CURVE SMOOTH",
"361 359 OFFCURVE",
"379 340 OFFCURVE",
"413 340 CURVE SMOOTH",
"446 340 OFFCURVE",
"459 368 OFFCURVE",
"459 418 CURVE SMOOTH",
"459 463 OFFCURVE",
"413 470 OFFCURVE",
"391 470 CURVE SMOOTH",
"345 470 OFFCURVE",
"328 450 OFFCURVE",
"304 419 CURVE SMOOTH",
"286 395 OFFCURVE",
"280 377 OFFCURVE",
"273 377 CURVE SMOOTH",
"262 377 OFFCURVE",
"263 389 OFFCURVE",
"263 420 CURVE SMOOTH",
"263 448 OFFCURVE",
"261 465 OFFCURVE",
"241 465 CURVE SMOOTH",
"220 465 OFFCURVE",
"201 458 OFFCURVE",
"84 424 CURVE SMOOTH",
"51 414 OFFCURVE",
"23 403 OFFCURVE",
"23 391 CURVE SMOOTH",
"23 377 OFFCURVE",
"89 359 OFFCURVE",
"89 325 CURVE SMOOTH",
"89 61 LINE SMOOTH",
"89 33 OFFCURVE",
"20 30 OFFCURVE",
"20 6 CURVE SMOOTH",
"20 -3 OFFCURVE",
"25 -5 OFFCURVE",
"40 -5 CURVE SMOOTH"
);
}
);
width = 443;
}
);
leftKerningGroup = kernLC_n2;
rightKerningGroup = kernLC_r1;
unicode = 0072;
},
{
color = 5;
glyphname = s;
layers = (
{
anchors = (
{
name = bottom;
position = "{215, 0}";
},
{
name = top;
position = "{215, 510}";
}
);
layerId = m01;
paths = (
{
closed = 1;
nodes = (
"279 -10 OFFCURVE",
"364 37 OFFCURVE",
"364 126 CURVE SMOOTH",
"364 220 OFFCURVE",
"299 239 OFFCURVE",
"242 266 CURVE SMOOTH",
"179 295 OFFCURVE",
"146 312 OFFCURVE",
"146 357 CURVE SMOOTH",
"146 397 OFFCURVE",
"176.224 421 OFFCURVE",
"221 421 CURVE SMOOTH",
"300 421 OFFCURVE",
"300 327 OFFCURVE",
"327 327 CURVE SMOOTH",
"339 327 OFFCURVE",
"348 333 OFFCURVE",
"348 395 CURVE SMOOTH",
"348 444 OFFCURVE",
"288 460 OFFCURVE",
"217 460 CURVE SMOOTH",
"147 460 OFFCURVE",
"75 401 OFFCURVE",
"75 327 CURVE SMOOTH",
"75 260 OFFCURVE",
"113 230 OFFCURVE",
"181 199 CURVE SMOOTH",
"250 167 OFFCURVE",
"295 154 OFFCURVE",
"295 97 CURVE SMOOTH",
"295 53 OFFCURVE",
"264 26 OFFCURVE",
"210 26 CURVE SMOOTH",
"110 26 OFFCURVE",
"110 126 OFFCURVE",
"82 126 CURVE SMOOTH",
"67 126 OFFCURVE",
"63 101 OFFCURVE",
"63 62 CURVE SMOOTH",
"63 1 OFFCURVE",
"150 -10 OFFCURVE",
"213 -10 CURVE SMOOTH"
);
}
);
width = 432;
},
{
anchors = (
{
name = bottom;
position = "{221, 0}";
},
{
name = top;
position = "{222, 510}";
}
);
layerId = m002;
paths = (
{
closed = 1;
nodes = (
"310 -10 OFFCURVE",
"396 53 OFFCURVE",
"396 151 CURVE SMOOTH",
"396 245 OFFCURVE",
"332 271 OFFCURVE",
"276 291 CURVE SMOOTH",
"183 325 OFFCURVE",
"171 340 OFFCURVE",
"171 369 CURVE SMOOTH",
"171 402.191 OFFCURVE",
"195 421 OFFCURVE",
"232 421 CURVE SMOOTH",
"320 421 OFFCURVE",
"329 317 OFFCURVE",
"352 317 CURVE SMOOTH",
"364 317 OFFCURVE",
"370 323 OFFCURVE",
"370 366 CURVE SMOOTH",
"370 459 OFFCURVE",
"309 470 OFFCURVE",
"240 470 CURVE SMOOTH",
"123 470 OFFCURVE",
"49 395 OFFCURVE",
"49 300 CURVE SMOOTH",
"49 243 OFFCURVE",
"81 199 OFFCURVE",
"161 168 CURVE SMOOTH",
"257 131 OFFCURVE",
"275 119 OFFCURVE",
"275 87 CURVE SMOOTH",
"275 56.786 OFFCURVE",
"250 40 OFFCURVE",
"202 40 CURVE SMOOTH",
"100 40 OFFCURVE",
"100 146 OFFCURVE",
"65 146 CURVE SMOOTH",
"46 146 OFFCURVE",
"45 127 OFFCURVE",
"45 82 CURVE SMOOTH",
"45 26 OFFCURVE",
"89 -10 OFFCURVE",
"207 -10 CURVE SMOOTH"
);
}
);
width = 441;
}
);
leftKerningGroup = kernLC_s2;
rightKerningGroup = kernLC_s1;
unicode = 0073;
},
{
color = 5;
glyphname = t;
layers = (
{
anchors = (
{
name = bottom;
position = "{212, 0}";
},
{
name = right;
position = "{309, 740}";
},
{
name = top;
position = "{155, 610}";
}
);
layerId = m01;
paths = (
{
closed = 1;
nodes = (
"271 -10 OFFCURVE",
"324 26 OFFCURVE",
"324 53 CURVE SMOOTH",
"324 58 OFFCURVE",
"319 63 OFFCURVE",
"311 63 CURVE SMOOTH",
"290 63 OFFCURVE",
"277 56 OFFCURVE",
"257 56 CURVE SMOOTH",
"215 56 OFFCURVE",
"180 72 OFFCURVE",
"180 106 CURVE SMOOTH",
"180 395 LINE SMOOTH",
"180 403 OFFCURVE",
"192 403 OFFCURVE",
"200 403 CURVE SMOOTH",
"298 403 LINE SMOOTH",
"306 403 OFFCURVE",
"312 409 OFFCURVE",
"312 416 CURVE SMOOTH",
"312 433 LINE SMOOTH",
"312 441 OFFCURVE",
"309 450 OFFCURVE",
"301 450 CURVE SMOOTH",
"190 450 LINE SMOOTH",
"184 450 OFFCURVE",
"180 454 OFFCURVE",
"180 460 CURVE SMOOTH",
"180 542 LINE SMOOTH",
"180 550 OFFCURVE",
"178 554 OFFCURVE",
"172 554 CURVE SMOOTH",
"162 554 OFFCURVE",
"24 430 OFFCURVE",
"24 410 CURVE SMOOTH",
"24 404 OFFCURVE",
"29 403 OFFCURVE",
"35 403 CURVE SMOOTH",
"80 403 LINE SMOOTH",
"88 403 OFFCURVE",
"100 403 OFFCURVE",
"100 395 CURVE SMOOTH",
"100 89 LINE SMOOTH",
"100 26 OFFCURVE",
"149 -10 OFFCURVE",
"208 -10 CURVE SMOOTH"
);
}
);
width = 354;
},
{
anchors = (
{
name = bottom;
position = "{230, 0}";
},
{
name = right;
position = "{382, 740}";
},
{
name = top;
position = "{231, 610}";
}
);
layerId = m002;
paths = (
{
closed = 1;
nodes = (
"291 -10 OFFCURVE",
"394 33 OFFCURVE",
"394 63 CURVE SMOOTH",
"394 68 OFFCURVE",
"389 73 OFFCURVE",
"381 73 CURVE SMOOTH",
"360 73 OFFCURVE",
"347 66 OFFCURVE",
"327 66 CURVE SMOOTH",
"285 66 OFFCURVE",
"250 82 OFFCURVE",
"250 116 CURVE SMOOTH",
"250 405 LINE SMOOTH",
"250 413 OFFCURVE",
"262 413 OFFCURVE",
"270 413 CURVE SMOOTH",
"377 413 LINE SMOOTH",
"385 413 OFFCURVE",
"391 419 OFFCURVE",
"391 426 CURVE SMOOTH",
"391 443 LINE SMOOTH",
"391 451 OFFCURVE",
"388 460 OFFCURVE",
"380 460 CURVE SMOOTH",
"260 460 LINE SMOOTH",
"253 460 OFFCURVE",
"250 465 OFFCURVE",
"250 474 CURVE SMOOTH",
"250 562 LINE SMOOTH",
"250 570 OFFCURVE",
"247 574 OFFCURVE",
"241 574 CURVE SMOOTH",
"226 574 OFFCURVE",
"-6 453 OFFCURVE",
"-6 424 CURVE SMOOTH",
"-6 417 OFFCURVE",
"0 414 OFFCURVE",
"15 414 CURVE SMOOTH",
"50 414 LINE SMOOTH",
"58 414 OFFCURVE",
"70 414 OFFCURVE",
"70 406 CURVE SMOOTH",
"70 89 LINE SMOOTH",
"70 26 OFFCURVE",
"139 -10 OFFCURVE",
"208 -10 CURVE SMOOTH"
);
}
);
width = 407;
}
);
leftKerningGroup = kernLC_t2;
rightKerningGroup = kernLC_t1;
unicode = 0074;
},
{
color = 5;
glyphname = u;
layers = (
{
anchors = (
{
name = bottom;
position = "{270, 0}";
},
{
name = right;
position = "{457, 0}";
},
{
name = top;
position = "{270, 510}";
}
);
layerId = m01;
paths = (
{
closed = 1;
nodes = (
"322 -10 OFFCURVE",
"367 63 OFFCURVE",
"377 63 CURVE SMOOTH",
"380 63 OFFCURVE",
"381 61 OFFCURVE",
"381 57 CURVE SMOOTH",
"381 19 LINE SMOOTH",
"381 0 OFFCURVE",
"392 0 OFFCURVE",
"404 0 CURVE SMOOTH",
"517 0 LINE SMOOTH",
"528 0 OFFCURVE",
"532 3 OFFCURVE",
"532 10 CURVE SMOOTH",
"532 26 OFFCURVE",
"461 37 OFFCURVE",
"461 62 CURVE SMOOTH",
"461 430 LINE SMOOTH",
"461 443 OFFCURVE",
"453 450 OFFCURVE",
"441 450 CURVE SMOOTH",
"330 450 LINE SMOOTH",
"318 450 OFFCURVE",
"310 450 OFFCURVE",
"310 440 CURVE SMOOTH",
"310 421 OFFCURVE",
"381 415 OFFCURVE",
"381 383 CURVE SMOOTH",
"381 154 LINE SMOOTH",
"381 95 OFFCURVE",
"354 64 OFFCURVE",
"270 64 CURVE SMOOTH",
"212 64 OFFCURVE",
"171 95 OFFCURVE",
"171 154 CURVE SMOOTH",
"171 430 LINE SMOOTH",
"171 444 OFFCURVE",
"168 450 OFFCURVE",
"152 450 CURVE SMOOTH",
"48 450 LINE SMOOTH",
"36 450 OFFCURVE",
"28 450 OFFCURVE",
"28 440 CURVE SMOOTH",
"28 421 OFFCURVE",
"91 415 OFFCURVE",
"91 383 CURVE SMOOTH",
"91 107 LINE SMOOTH",
"91 30 OFFCURVE",
"147 -10 OFFCURVE",
"225 -10 CURVE SMOOTH"
);
}
);
width = 561;
},
{
anchors = (
{
name = bottom;
position = "{309, 0}";
},
{
name = right;
position = "{465, 0}";
},
{
name = top;
position = "{309, 510}";
}
);
layerId = m002;
paths = (
{
closed = 1;
nodes = (
"323 -10 OFFCURVE",
"348 63 OFFCURVE",
"358 63 CURVE SMOOTH",
"361 63 OFFCURVE",
"362 61 OFFCURVE",
"362 57 CURVE SMOOTH",
"362 19 LINE SMOOTH",
"362 0 OFFCURVE",
"373 0 OFFCURVE",
"385 0 CURVE SMOOTH",
"584 0 LINE SMOOTH",
"595 0 OFFCURVE",
"599 3 OFFCURVE",
"599 10 CURVE SMOOTH",
"599 26 OFFCURVE",
"542 37 OFFCURVE",
"542 62 CURVE SMOOTH",
"542 440 LINE SMOOTH",
"542 453 OFFCURVE",
"534 460 OFFCURVE",
"522 460 CURVE SMOOTH",
"328 460 LINE SMOOTH",
"316 460 OFFCURVE",
"308 460 OFFCURVE",
"308 450 CURVE SMOOTH",
"308 431 OFFCURVE",
"362 425 OFFCURVE",
"362 393 CURVE SMOOTH",
"362 154 LINE SMOOTH",
"362 118 OFFCURVE",
"346 94 OFFCURVE",
"310 94 CURVE SMOOTH",
"272 94 OFFCURVE",
"255 118 OFFCURVE",
"255 154 CURVE SMOOTH",
"255 440 LINE SMOOTH",
"255 454 OFFCURVE",
"252 460 OFFCURVE",
"236 460 CURVE SMOOTH",
"26 460 LINE SMOOTH",
"14 460 OFFCURVE",
"6 460 OFFCURVE",
"6 450 CURVE SMOOTH",
"6 431 OFFCURVE",
"75 425 OFFCURVE",
"75 393 CURVE SMOOTH",
"75 107 LINE SMOOTH",
"75 30 OFFCURVE",
"137 -10 OFFCURVE",
"225 -10 CURVE SMOOTH"
);
}
);
width = 609;
}
);
leftKerningGroup = kernLC_u2;
rightKerningGroup = kernLC_u1;
unicode = 0075;
},
{
color = 5;
glyphname = v;
layers = (
{
layerId = m01;
paths = (
{
closed = 1;
nodes = (
"246 -5 OFFCURVE",
"248 0 OFFCURVE",
"256 18 CURVE SMOOTH",
"420 378 LINE SMOOTH",
"431 403 OFFCURVE",
"503 425 OFFCURVE",
"503 440 CURVE SMOOTH",
"503 445 OFFCURVE",
"499 450 OFFCURVE",
"493 450 CURVE SMOOTH",
"317 450 LINE SMOOTH",
"311 450 OFFCURVE",
"307 447 OFFCURVE",
"307 440 CURVE SMOOTH",
"307 425 OFFCURVE",
"387 412 OFFCURVE",
"373 378 CURVE SMOOTH",
"275 141 LINE SMOOTH",
"273 136 OFFCURVE",
"268 125 OFFCURVE",
"264 125 CURVE SMOOTH",
"260 125 OFFCURVE",
"255 134 OFFCURVE",
"252 141 CURVE SMOOTH",
"140 385 LINE SMOOTH",
"123 422 OFFCURVE",
"216 420 OFFCURVE",
"216 440 CURVE SMOOTH",
"216 445 OFFCURVE",
"214 450 OFFCURVE",
"203 450 CURVE SMOOTH",
"-10 450 LINE SMOOTH",
"-21 450 OFFCURVE",
"-23 445 OFFCURVE",
"-23 440 CURVE SMOOTH",
"-23 422 OFFCURVE",
"40 412 OFFCURVE",
"50 390 CURVE SMOOTH",
"219 18 LINE SMOOTH",
"227 0 OFFCURVE",
"230 -5 OFFCURVE",
"238 -5 CURVE SMOOTH"
);
}
);
width = 480;
},
{
layerId = m002;
paths = (
{
closed = 1;
nodes = (
"251 -5 OFFCURVE",
"259 0 OFFCURVE",
"267 18 CURVE SMOOTH",
"440 393 LINE SMOOTH",
"452 418 OFFCURVE",
"503 435 OFFCURVE",
"503 450 CURVE SMOOTH",
"503 455 OFFCURVE",
"499 460 OFFCURVE",
"493 460 CURVE SMOOTH",
"330 460 LINE SMOOTH",
"324 460 OFFCURVE",
"320 457 OFFCURVE",
"320 450 CURVE SMOOTH",
"320 430 OFFCURVE",
"382 422 OFFCURVE",
"368 388 CURVE SMOOTH",
"308 246 LINE SMOOTH",
"304 236 OFFCURVE",
"301 234 OFFCURVE",
"297 234 CURVE SMOOTH",
"293 234 OFFCURVE",
"289 240 OFFCURVE",
"286 247 CURVE SMOOTH",
"214 400 LINE SMOOTH",
"202 425 OFFCURVE",
"267 430 OFFCURVE",
"267 450 CURVE SMOOTH",
"267 455 OFFCURVE",
"265 460 OFFCURVE",
"254 460 CURVE SMOOTH",
"-31 460 LINE SMOOTH",
"-42 460 OFFCURVE",
"-44 455 OFFCURVE",
"-44 450 CURVE SMOOTH",
"-44 432 OFFCURVE",
"12 426 OFFCURVE",
"22 404 CURVE SMOOTH",
"197 18 LINE SMOOTH",
"205 0 OFFCURVE",
"215 -5 OFFCURVE",
"233 -5 CURVE SMOOTH"
);
}
);
width = 473;
}
);
leftKerningGroup = kernLC_v3;
rightKerningGroup = kernLC_v3;
unicode = 0076;
},
{
color = 5;
glyphname = w;
layers = (
{
anchors = (
{
name = top;
position = "{395, 510}";
}
);
layerId = m01;
paths = (
{
closed = 1;
nodes = (
"221 -5 OFFCURVE",
"223 0 OFFCURVE",
"231 18 CURVE SMOOTH",
"362 308 LINE SMOOTH",
"364 313 OFFCURVE",
"367 314 OFFCURVE",
"370 314 CURVE SMOOTH",
"373 314 OFFCURVE",
"376 313 OFFCURVE",
"378 308 CURVE SMOOTH",
"506 17 LINE SMOOTH",
"512 3 OFFCURVE",
"516 -3 OFFCURVE",
"524 -3 CURVE SMOOTH",
"532 -3 OFFCURVE",
"536 3 OFFCURVE",
"542 18 CURVE SMOOTH",
"694 378 LINE SMOOTH",
"705 403 OFFCURVE",
"776 425 OFFCURVE",
"776 440 CURVE SMOOTH",
"776 445 OFFCURVE",
"772 450 OFFCURVE",
"766 450 CURVE SMOOTH",
"590 450 LINE SMOOTH",
"584 450 OFFCURVE",
"580 447 OFFCURVE",
"580 440 CURVE SMOOTH",
"580 425 OFFCURVE",
"660 412 OFFCURVE",
"647 378 CURVE SMOOTH",
"558 143 LINE SMOOTH",
"556 138 OFFCURVE",
"553 131 OFFCURVE",
"549 131 CURVE SMOOTH",
"545 131 OFFCURVE",
"542 136 OFFCURVE",
"539 143 CURVE",
"409 441 LINE SMOOTH",
"405 450 OFFCURVE",
"402 454 OFFCURVE",
"395 454 CURVE SMOOTH",
"387 454 OFFCURVE",
"384 450 OFFCURVE",
"380 441 CURVE SMOOTH",
"251 142 LINE",
"249 137 OFFCURVE",
"246 131 OFFCURVE",
"240 131 CURVE SMOOTH",
"235 131 OFFCURVE",
"233 135 OFFCURVE",
"230 142 CURVE SMOOTH",
"140 385 LINE SMOOTH",
"125 424 OFFCURVE",
"216 420 OFFCURVE",
"216 440 CURVE SMOOTH",
"216 445 OFFCURVE",
"214 450 OFFCURVE",
"203 450 CURVE SMOOTH",
"-10 450 LINE SMOOTH",
"-21 450 OFFCURVE",
"-23 445 OFFCURVE",
"-23 440 CURVE SMOOTH",
"-23 422 OFFCURVE",
"42 412 OFFCURVE",
"50 390 CURVE SMOOTH",
"194 18 LINE SMOOTH",
"201 0 OFFCURVE",
"205 -5 OFFCURVE",
"213 -5 CURVE SMOOTH"
);
}
);
width = 753;
},
{
anchors = (
{
name = top;
position = "{406, 510}";
}
);
layerId = m002;
paths = (
{
closed = 1;
nodes = (
"225 -5 OFFCURVE",
"232 0 OFFCURVE",
"241 18 CURVE SMOOTH",
"339 222 LINE SMOOTH",
"342 227 OFFCURVE",
"344 228 OFFCURVE",
"347 228 CURVE SMOOTH",
"350 228 OFFCURVE",
"353 226 OFFCURVE",
"355 222 CURVE SMOOTH",
"449 18 LINE SMOOTH",
"456 2 OFFCURVE",
"462 -3 OFFCURVE",
"480 -3 CURVE SMOOTH",
"501 -3 OFFCURVE",
"507 2 OFFCURVE",
"514 18 CURVE SMOOTH",
"677 388 LINE SMOOTH",
"690 418 OFFCURVE",
"755 435 OFFCURVE",
"755 450 CURVE SMOOTH",
"755 455 OFFCURVE",
"751 460 OFFCURVE",
"745 460 CURVE SMOOTH",
"570 460 LINE SMOOTH",
"564 460 OFFCURVE",
"560 457 OFFCURVE",
"560 450 CURVE SMOOTH",
"560 431 OFFCURVE",
"621 426 OFFCURVE",
"610 398 CURVE SMOOTH",
"547 241 LINE SMOOTH",
"545 237 OFFCURVE",
"542 229 OFFCURVE",
"538 229 CURVE SMOOTH",
"534 229 OFFCURVE",
"531 234 OFFCURVE",
"528 241 CURVE SMOOTH",
"434 451 LINE SMOOTH",
"430 460 OFFCURVE",
"422 464 OFFCURVE",
"405 464 CURVE SMOOTH",
"387 464 OFFCURVE",
"382 460 OFFCURVE",
"378 451 CURVE SMOOTH",
"290 250 LINE SMOOTH",
"288 245 OFFCURVE",
"285 239 OFFCURVE",
"279 239 CURVE SMOOTH",
"274 239 OFFCURVE",
"271 244 OFFCURVE",
"269 250 CURVE SMOOTH",
"214 395 LINE SMOOTH",
"199 435 OFFCURVE",
"267 430 OFFCURVE",
"267 450 CURVE SMOOTH",
"267 455 OFFCURVE",
"265 460 OFFCURVE",
"254 460 CURVE SMOOTH",
"-31 460 LINE SMOOTH",
"-42 460 OFFCURVE",
"-44 455 OFFCURVE",
"-44 450 CURVE SMOOTH",
"-44 432 OFFCURVE",
"14 422 OFFCURVE",
"23 400 CURVE SMOOTH",
"176 18 LINE SMOOTH",
"183 0 OFFCURVE",
"190 -5 OFFCURVE",
"207 -5 CURVE SMOOTH"
);
}
);
width = 711;
}
);
leftKerningGroup = kernLC_w3;
rightKerningGroup = kernLC_w3;
unicode = 0077;
},
{
color = 5;
glyphname = x;
layers = (
{
layerId = m01;
paths = (
{
closed = 1;
nodes = (
"351 0 OFFCURVE",
"395 0 OFFCURVE",
"460 0 CURVE SMOOTH",
"465 0 OFFCURVE",
"470 3 OFFCURVE",
"470 10 CURVE SMOOTH",
"470 20 OFFCURVE",
"445 26 OFFCURVE",
"419 61 CURVE SMOOTH",
"295 229 LINE SMOOTH",
"291 234 OFFCURVE",
"287 239 OFFCURVE",
"287 245 CURVE SMOOTH",
"287 251 OFFCURVE",
"289 254 OFFCURVE",
"293 259 CURVE SMOOTH",
"395 392 LINE SMOOTH",
"409 410 OFFCURVE",
"453 427 OFFCURVE",
"453 440 CURVE SMOOTH",
"453 445 OFFCURVE",
"450 450 OFFCURVE",
"443 450 CURVE SMOOTH",
"297 450 LINE SMOOTH",
"292 450 OFFCURVE",
"287 445 OFFCURVE",
"287 440 CURVE SMOOTH",
"287 425 OFFCURVE",
"352 405 OFFCURVE",
"341 388 CURVE SMOOTH",
"275 290 LINE SMOOTH",
"271 284 OFFCURVE",
"267 277 OFFCURVE",
"263 277 CURVE SMOOTH",
"259 277 OFFCURVE",
"256 281 OFFCURVE",
"253 286 CURVE SMOOTH",
"172 396 LINE SMOOTH",
"162 409 OFFCURVE",
"238 426 OFFCURVE",
"238 440 CURVE SMOOTH",
"238 445 OFFCURVE",
"234 450 OFFCURVE",
"228 450 CURVE SMOOTH",
"41 450 LINE SMOOTH",
"36 450 OFFCURVE",
"31 447 OFFCURVE",
"31 440 CURVE SMOOTH",
"31 427 OFFCURVE",
"70 414 OFFCURVE",
"83 396 CURVE SMOOTH",
"197 242 LINE SMOOTH",
"201 236 OFFCURVE",
"208 230 OFFCURVE",
"208 223 CURVE SMOOTH",
"208 218 OFFCURVE",
"204 213 OFFCURVE",
"200 208 CURVE SMOOTH",
"88 61 LINE SMOOTH",
"70 38 OFFCURVE",
"26 22 OFFCURVE",
"26 10 CURVE SMOOTH",
"26 3 OFFCURVE",
"31 0 OFFCURVE",
"36 0 CURVE SMOOTH",
"191 0 LINE",
"196 0 OFFCURVE",
"201 3 OFFCURVE",
"201 10 CURVE SMOOTH",
"201 25 OFFCURVE",
"128 42 OFFCURVE",
"143 64 CURVE SMOOTH",
"221 180 LINE SMOOTH",
"224 185 OFFCURVE",
"227 189 OFFCURVE",
"231 189 CURVE SMOOTH",
"235 189 OFFCURVE",
"239 184 OFFCURVE",
"242 180 CURVE SMOOTH",
"330 61 LINE SMOOTH",
"348 37 OFFCURVE",
"276 25 OFFCURVE",
"276 10 CURVE SMOOTH",
"276 5 OFFCURVE",
"279 0 OFFCURVE",
"286 0 CURVE SMOOTH"
);
}
);
width = 496;
},
{
layerId = m002;
paths = (
{
closed = 1;
nodes = (
"336 0 OFFCURVE",
"499 0 OFFCURVE",
"564 0 CURVE SMOOTH",
"569 0 OFFCURVE",
"574 3 OFFCURVE",
"574 10 CURVE SMOOTH",
"574 20 OFFCURVE",
"548 26 OFFCURVE",
"523 61 CURVE SMOOTH",
"384 256 LINE SMOOTH",
"380 261 OFFCURVE",
"376 265 OFFCURVE",
"376 271 CURVE SMOOTH",
"376 277 OFFCURVE",
"378 278 OFFCURVE",
"383 283 CURVE SMOOTH",
"504 412 LINE SMOOTH",
"520 429 OFFCURVE",
"557 437 OFFCURVE",
"557 450 CURVE SMOOTH",
"557 455 OFFCURVE",
"554 460 OFFCURVE",
"547 460 CURVE SMOOTH",
"380 460 LINE SMOOTH",
"375 460 OFFCURVE",
"370 455 OFFCURVE",
"370 450 CURVE SMOOTH",
"370 435 OFFCURVE",
"427 419 OFFCURVE",
"413 402 CURVE SMOOTH",
"354 332 LINE SMOOTH",
"349 326 OFFCURVE",
"347 322 OFFCURVE",
"343 322 CURVE SMOOTH",
"339 322 OFFCURVE",
"338 324 OFFCURVE",
"334 329 CURVE SMOOTH",
"277 410 LINE SMOOTH",
"267 425 OFFCURVE",
"323 436 OFFCURVE",
"323 450 CURVE SMOOTH",
"323 455 OFFCURVE",
"319 460 OFFCURVE",
"313 460 CURVE SMOOTH",
"20 460 LINE SMOOTH",
"15 460 OFFCURVE",
"10 457 OFFCURVE",
"10 450 CURVE SMOOTH",
"10 437 OFFCURVE",
"49 425 OFFCURVE",
"62 406 CURVE SMOOTH",
"189 222 LINE SMOOTH",
"193 216 OFFCURVE",
"200 210 OFFCURVE",
"200 203 CURVE SMOOTH",
"200 198 OFFCURVE",
"196 193 OFFCURVE",
"192 188 CURVE SMOOTH",
"77 61 LINE SMOOTH",
"58 40 OFFCURVE",
"12 22 OFFCURVE",
"12 10 CURVE SMOOTH",
"12 3 OFFCURVE",
"17 0 OFFCURVE",
"22 0 CURVE SMOOTH",
"195 0 LINE SMOOTH",
"200 0 OFFCURVE",
"205 3 OFFCURVE",
"205 10 CURVE SMOOTH",
"205 25 OFFCURVE",
"143 40 OFFCURVE",
"158 59 CURVE SMOOTH",
"223 140 LINE SMOOTH",
"227 145 OFFCURVE",
"232 149 OFFCURVE",
"236 149 CURVE SMOOTH",
"240 149 OFFCURVE",
"244 145 OFFCURVE",
"247 140 CURVE SMOOTH",
"304 58 LINE SMOOTH",
"322 32 OFFCURVE",
"261 25 OFFCURVE",
"261 10 CURVE SMOOTH",
"261 5 OFFCURVE",
"264 0 OFFCURVE",
"271 0 CURVE SMOOTH"
);
}
);
width = 584;
}
);
leftKerningGroup = kernLC_x3;
rightKerningGroup = kernLC_x3;
unicode = 0078;
},
{
color = 5;
glyphname = y;
layers = (
{
anchors = (
{
name = bottom;
position = "{298, -28}";
},
{
name = top;
position = "{264, 510}";
}
);
layerId = m01;
paths = (
{
closed = 1;
nodes = (
"122 -241 OFFCURVE",
"178 -207 OFFCURVE",
"216 -116 CURVE SMOOTH",
"420 378 LINE SMOOTH",
"430 403 OFFCURVE",
"503 425 OFFCURVE",
"503 440 CURVE SMOOTH",
"503 445 OFFCURVE",
"499 450 OFFCURVE",
"493 450 CURVE SMOOTH",
"317 450 LINE SMOOTH",
"311 450 OFFCURVE",
"307 447 OFFCURVE",
"307 440 CURVE SMOOTH",
"307 425 OFFCURVE",
"389 412 OFFCURVE",
"376 378 CURVE SMOOTH",
"280 131 LINE SMOOTH",
"278 126 OFFCURVE",
"273 115 OFFCURVE",
"269 115 CURVE SMOOTH",
"265 115 OFFCURVE",
"260 124 OFFCURVE",
"257 131 CURVE SMOOTH",
"140 385 LINE SMOOTH",
"123 422 OFFCURVE",
"216 420 OFFCURVE",
"216 440 CURVE SMOOTH",
"216 445 OFFCURVE",
"214 450 OFFCURVE",
"203 450 CURVE SMOOTH",
"-10 450 LINE SMOOTH",
"-21 450 OFFCURVE",
"-23 445 OFFCURVE",
"-23 440 CURVE SMOOTH",
"-23 422 OFFCURVE",
"40 412 OFFCURVE",
"50 390 CURVE SMOOTH",
"217 31 LINE SMOOTH",
"219 27 OFFCURVE",
"224 16 OFFCURVE",
"224 8 CURVE SMOOTH",
"224 -5 OFFCURVE",
"217 -14 OFFCURVE",
"212 -26 CURVE SMOOTH",
"162 -152 OFFCURVE",
"143 -158 OFFCURVE",
"121 -158 CURVE SMOOTH",
"108 -158 OFFCURVE",
"98 -148 OFFCURVE",
"75 -148 CURVE SMOOTH",
"55 -148 OFFCURVE",
"35 -166 OFFCURVE",
"35 -191 CURVE SMOOTH",
"35 -212 OFFCURVE",
"45 -241 OFFCURVE",
"94 -241 CURVE SMOOTH"
);
}
);
width = 480;
},
{
anchors = (
{
name = bottom;
position = "{349, -10}";
},
{
name = top;
position = "{291, 510}";
}
);
layerId = m002;
paths = (
{
closed = 1;
nodes = (
"142 -241 OFFCURVE",
"196 -206 OFFCURVE",
"233 -116 CURVE SMOOTH",
"440 388 LINE SMOOTH",
"452 418 OFFCURVE",
"517 435 OFFCURVE",
"517 450 CURVE SMOOTH",
"517 455 OFFCURVE",
"513 460 OFFCURVE",
"507 460 CURVE SMOOTH",
"341 460 LINE SMOOTH",
"335 460 OFFCURVE",
"331 457 OFFCURVE",
"331 450 CURVE SMOOTH",
"331 435 OFFCURVE",
"383 423 OFFCURVE",
"370 388 CURVE SMOOTH",
"317 239 LINE SMOOTH",
"315 234 OFFCURVE",
"310 223 OFFCURVE",
"306 223 CURVE SMOOTH",
"302 223 OFFCURVE",
"297 233 OFFCURVE",
"294 239 CURVE SMOOTH",
"216 395 LINE SMOOTH",
"197 433 OFFCURVE",
"256 430 OFFCURVE",
"256 450 CURVE SMOOTH",
"256 455 OFFCURVE",
"254 460 OFFCURVE",
"243 460 CURVE SMOOTH",
"-32 460 LINE SMOOTH",
"-43 460 OFFCURVE",
"-45 455 OFFCURVE",
"-45 450 CURVE SMOOTH",
"-45 432 OFFCURVE",
"12 422 OFFCURVE",
"23 400 CURVE SMOOTH",
"212 13 LINE SMOOTH",
"214 9 OFFCURVE",
"219 -2 OFFCURVE",
"219 -10 CURVE SMOOTH",
"219 -23 OFFCURVE",
"214 -32 OFFCURVE",
"209 -45 CURVE SMOOTH",
"174 -131 OFFCURVE",
"143 -158 OFFCURVE",
"121 -158 CURVE SMOOTH",
"105 -158 OFFCURVE",
"88 -138 OFFCURVE",
"65 -138 CURVE SMOOTH",
"35 -138 OFFCURVE",
"17 -164 OFFCURVE",
"17 -189 CURVE SMOOTH",
"17 -210 OFFCURVE",
"35 -241 OFFCURVE",
"84 -241 CURVE SMOOTH"
);
}
);
width = 473;
}
);
leftKerningGroup = kernLC_y3;
rightKerningGroup = kernLC_y3;
unicode = 0079;
},
{
color = 5;
glyphname = z;
layers = (
{
anchors = (
{
name = bottom;
position = "{243, 0}";
},
{
name = top;
position = "{243, 510}";
}
);
layerId = m01;
paths = (
{
closed = 1;
nodes = (
"188 0 OFFCURVE",
"287 0 OFFCURVE",
"395 0 CURVE SMOOTH",
"402 0 OFFCURVE",
"407 5 OFFCURVE",
"407 17 CURVE SMOOTH",
"407 134 LINE SMOOTH",
"407 146 OFFCURVE",
"402 151 OFFCURVE",
"395 151 CURVE SMOOTH",
"377 151 OFFCURVE",
"362 44 OFFCURVE",
"331 44 CURVE SMOOTH",
"207 44 LINE SMOOTH",
"199 44 OFFCURVE",
"181 41 OFFCURVE",
"181 50 CURVE SMOOTH",
"181 59 OFFCURVE",
"193 78 OFFCURVE",
"198 86 CURVE SMOOTH",
"373 386 LINE SMOOTH",
"388 412 OFFCURVE",
"397 431 OFFCURVE",
"397 435 CURVE SMOOTH",
"397 441 OFFCURVE",
"397 450 OFFCURVE",
"389 450 CURVE SMOOTH",
"304 450 OFFCURVE",
"232 450 OFFCURVE",
"148 450 CURVE SMOOTH",
"122 450 OFFCURVE",
"112 460 OFFCURVE",
"94 460 CURVE SMOOTH",
"84 460 OFFCURVE",
"79 454 OFFCURVE",
"78 440 CURVE SMOOTH",
"71 333 LINE SMOOTH",
"70 318 OFFCURVE",
"74 306 OFFCURVE",
"81 306 CURVE SMOOTH",
"105 306 OFFCURVE",
"111 406 OFFCURVE",
"165 406 CURVE SMOOTH",
"281 406 LINE SMOOTH",
"289 406 OFFCURVE",
"290 397 OFFCURVE",
"287 392 CURVE SMOOTH",
"78 32 LINE SMOOTH",
"70 18 OFFCURVE",
"70 13 OFFCURVE",
"70 11 CURVE SMOOTH",
"70 3 OFFCURVE",
"75 0 OFFCURVE",
"80 0 CURVE SMOOTH"
);
}
);
width = 482;
},
{
anchors = (
{
name = bottom;
position = "{267, 0}";
},
{
name = top;
position = "{267, 510}";
}
);
layerId = m002;
paths = (
{
closed = 1;
nodes = (
"159 0 OFFCURVE",
"355 0 OFFCURVE",
"463 0 CURVE SMOOTH",
"470 0 OFFCURVE",
"475 5 OFFCURVE",
"475 17 CURVE SMOOTH",
"475 154 LINE SMOOTH",
"475 166 OFFCURVE",
"470 171 OFFCURVE",
"463 171 CURVE SMOOTH",
"445 171 OFFCURVE",
"414 49 OFFCURVE",
"383 49 CURVE SMOOTH",
"286 49 LINE SMOOTH",
"278 49 OFFCURVE",
"263 46 OFFCURVE",
"263 55 CURVE SMOOTH",
"263 60 OFFCURVE",
"265 63 OFFCURVE",
"269 71 CURVE SMOOTH",
"445 396 LINE SMOOTH",
"459 422 OFFCURVE",
"469 441 OFFCURVE",
"469 445 CURVE SMOOTH",
"469 451 OFFCURVE",
"464 460 OFFCURVE",
"451 460 CURVE SMOOTH",
"366 460 OFFCURVE",
"204 460 OFFCURVE",
"120 460 CURVE SMOOTH",
"94 460 OFFCURVE",
"84 470 OFFCURVE",
"66 470 CURVE SMOOTH",
"56 470 OFFCURVE",
"51 464 OFFCURVE",
"50 450 CURVE SMOOTH",
"43 323 LINE SMOOTH",
"42 308 OFFCURVE",
"46 296 OFFCURVE",
"53 296 CURVE SMOOTH",
"77 296 OFFCURVE",
"103 411 OFFCURVE",
"137 411 CURVE SMOOTH",
"236 411 LINE SMOOTH",
"244 411 OFFCURVE",
"245 402 OFFCURVE",
"242 397 CURVE SMOOTH",
"49 35 LINE SMOOTH",
"42 21 OFFCURVE",
"41 13 OFFCURVE",
"41 11 CURVE SMOOTH",
"41 3 OFFCURVE",
"46 0 OFFCURVE",
"51 0 CURVE SMOOTH"
);
}
);
width = 515;
}
);
leftKerningGroup = kernLC_z3;
rightKerningGroup = kernLC_z3;
unicode = 007A;
},
{
color = 5;
glyphname = "alef-hb";
layers = (
{
anchors = (
{
name = bottom;
position = "{245, 0}";
},
{
name = bottomleft;
position = "{15, 0}";
},
{
name = center;
position = "{285, 324}";
},
{
name = top;
position = "{367, 800}";
},
{
name = topleft;
position = "{7, 604}";
}
);
layerId = m01;
paths = (
{
closed = 1;
nodes = (
"70 -29 OFFCURVE",
"61 -8 OFFCURVE",
"61 11 CURVE SMOOTH",
"61 40 OFFCURVE",
"68 76 OFFCURVE",
"68 105 CURVE SMOOTH",
"68 146 OFFCURVE",
"60 216 OFFCURVE",
"60 261 CURVE SMOOTH",
"60 402 OFFCURVE",
"118 418 OFFCURVE",
"118 441 CURVE SMOOTH",
"118 449 OFFCURVE",
"113 456 OFFCURVE",
"95 458 CURVE SMOOTH",
"43 463 OFFCURVE",
"32 510 OFFCURVE",
"32 560 CURVE SMOOTH",
"32 612 OFFCURVE",
"35 632 OFFCURVE",
"64 632 CURVE SMOOTH",
"74 632 OFFCURVE",
"81 630 OFFCURVE",
"93 630 CURVE SMOOTH",
"103 630 OFFCURVE",
"107 635 OFFCURVE",
"109 644 CURVE SMOOTH",
"124 710 OFFCURVE",
"170 888 OFFCURVE",
"252 888 CURVE SMOOTH",
"299 888 OFFCURVE",
"336 870 OFFCURVE",
"336 833 CURVE SMOOTH",
"336 758 OFFCURVE",
"158 706 OFFCURVE",
"158 644 CURVE SMOOTH",
"158 635 OFFCURVE",
"160 629 OFFCURVE",
"178 629 CURVE SMOOTH",
"209 629 OFFCURVE",
"230 636 OFFCURVE",
"285 636 CURVE SMOOTH",
"467 637 OFFCURVE",
"500 478 OFFCURVE",
"500 362 CURVE SMOOTH",
"500 245 OFFCURVE",
"430 21 OFFCURVE",
"326 21 CURVE SMOOTH",
"293 21 OFFCURVE",
"274 35 OFFCURVE",
"274 64 CURVE SMOOTH",
"274 128 OFFCURVE",
"442 188 OFFCURVE",
"442 309 CURVE SMOOTH",
"442 361 OFFCURVE",
"432 460 OFFCURVE",
"256 460 CURVE SMOOTH",
"183 460 OFFCURVE",
"137 433 OFFCURVE",
"137 364 CURVE SMOOTH",
"137 299 OFFCURVE",
"189 192 OFFCURVE",
"189 86 CURVE SMOOTH",
"189 28 OFFCURVE",
"122 -29 OFFCURVE",
"89 -29 CURVE SMOOTH"
);
}
);
width = 541;
},
{
anchors = (
{
name = bottom;
position = "{285, 0}";
},
{
name = bottomleft;
position = "{15, 0}";
},
{
name = center;
position = "{345, 324}";
},
{
name = top;
position = "{467, 800}";
},
{
name = topleft;
position = "{7, 604}";
}
);
layerId = m002;
paths = (
{
closed = 1;
nodes = (
"80 -29 OFFCURVE",
"61 -12 OFFCURVE",
"61 11 CURVE SMOOTH",
"61 40 OFFCURVE",
"67 77 OFFCURVE",
"67 106 CURVE SMOOTH",
"67 147 OFFCURVE",
"61 249 OFFCURVE",
"61 291 CURVE SMOOTH",
"61 401 OFFCURVE",
"118 418 OFFCURVE",
"118 435 CURVE SMOOTH",
"118 441 OFFCURVE",
"113 448 OFFCURVE",
"95 450 CURVE SMOOTH",
"44 455 OFFCURVE",
"32 498 OFFCURVE",
"32 550 CURVE SMOOTH",
"32 616 OFFCURVE",
"36 637 OFFCURVE",
"61 637 CURVE SMOOTH",
"73 637 OFFCURVE",
"80 635 OFFCURVE",
"90 635 CURVE SMOOTH",
"99 635 OFFCURVE",
"107 640 OFFCURVE",
"109 649 CURVE SMOOTH",
"122 707 OFFCURVE",
"178 888 OFFCURVE",
"284 888 CURVE SMOOTH",
"386 888 OFFCURVE",
"413 850 OFFCURVE",
"413 808 CURVE SMOOTH",
"413 720 OFFCURVE",
"227 698 OFFCURVE",
"227 653 CURVE SMOOTH",
"227 646 OFFCURVE",
"231 643 OFFCURVE",
"239 643 CURVE SMOOTH",
"260 643 OFFCURVE",
"284 650 OFFCURVE",
"343 650 CURVE SMOOTH",
"535 650 OFFCURVE",
"584 516 OFFCURVE",
"584 360 CURVE SMOOTH",
"584 153 OFFCURVE",
"483 5 OFFCURVE",
"379 5 CURVE SMOOTH",
"338 5 OFFCURVE",
"297 21 OFFCURVE",
"297 64 CURVE SMOOTH",
"297 162 OFFCURVE",
"486 149 OFFCURVE",
"486 330 CURVE SMOOTH",
"486 385 OFFCURVE",
"455 444 OFFCURVE",
"309 444 CURVE SMOOTH",
"245 444 OFFCURVE",
"188 431 OFFCURVE",
"188 367 CURVE SMOOTH",
"188 318 OFFCURVE",
"248 202 OFFCURVE",
"248 86 CURVE SMOOTH",
"248 35 OFFCURVE",
"156 -29 OFFCURVE",
"109 -29 CURVE SMOOTH"
);
}
);
width = 625;
}
);
unicode = 05D0;
},
{
color = 5;
glyphname = "bet-hb";
layers = (
{
anchors = (
{
name = bottom;
position = "{233, 0}";
},
{
name = center;
position = "{129, 322}";
}
);
layerId = m01;
paths = (
{
closed = 1;
nodes = (
"33 -27 OFFCURVE",
"24 -20 OFFCURVE",
"24 27 CURVE SMOOTH",
"24 108 OFFCURVE",
"40 141 OFFCURVE",
"71 141 CURVE SMOOTH",
"218 141 OFFCURVE",
"347 147 OFFCURVE",
"347 196 CURVE SMOOTH",
"347 252 OFFCURVE",
"247 287 OFFCURVE",
"247 322 CURVE SMOOTH",
"247 361 OFFCURVE",
"292 431 OFFCURVE",
"292 461 CURVE SMOOTH",
"292 476 OFFCURVE",
"285 480 OFFCURVE",
"267 480 CURVE SMOOTH",
"211 480 OFFCURVE",
"181 473 OFFCURVE",
"149 473 CURVE SMOOTH",
"85 473 OFFCURVE",
"52 488 OFFCURVE",
"52 556 CURVE SMOOTH",
"52 597 OFFCURVE",
"58 624 OFFCURVE",
"58 665 CURVE SMOOTH",
"58 687 OFFCURVE",
"75 699 OFFCURVE",
"98 699 CURVE SMOOTH",
"107 699 OFFCURVE",
"112 694 OFFCURVE",
"115 683 CURVE SMOOTH",
"121 662 OFFCURVE",
"141 637 OFFCURVE",
"180 637 CURVE SMOOTH",
"225 637 OFFCURVE",
"341 645 OFFCURVE",
"376 645 CURVE SMOOTH",
"392 645 OFFCURVE",
"400 634 OFFCURVE",
"400 619 CURVE SMOOTH",
"400 571 OFFCURVE",
"351 483 OFFCURVE",
"351 457 CURVE SMOOTH",
"351 410 OFFCURVE",
"426 338 OFFCURVE",
"426 254 CURVE SMOOTH",
"426 98 OFFCURVE",
"241 -27 OFFCURVE",
"65 -27 CURVE SMOOTH"
);
}
);
width = 465;
},
{
anchors = (
{
name = bottom;
position = "{303, 0}";
},
{
name = center;
position = "{148, 307}";
}
);
layerId = m002;
paths = (
{
closed = 1;
nodes = (
"42 -27 OFFCURVE",
"24 -18 OFFCURVE",
"24 27 CURVE SMOOTH",
"24 131 OFFCURVE",
"46 175 OFFCURVE",
"85 175 CURVE SMOOTH",
"372 175 OFFCURVE",
"388 189 OFFCURVE",
"388 206 CURVE SMOOTH",
"388 243 OFFCURVE",
"278 284 OFFCURVE",
"278 322 CURVE SMOOTH",
"278 361 OFFCURVE",
"315 427 OFFCURVE",
"315 444 CURVE SMOOTH",
"315 451 OFFCURVE",
"312 457 OFFCURVE",
"296 457 CURVE SMOOTH",
"245 457 OFFCURVE",
"202 450 OFFCURVE",
"150 450 CURVE SMOOTH",
"92 450 OFFCURVE",
"50 466 OFFCURVE",
"50 534 CURVE SMOOTH",
"50 565 OFFCURVE",
"59 603 OFFCURVE",
"59 640 CURVE SMOOTH",
"59 676 OFFCURVE",
"77 706 OFFCURVE",
"139 706 CURVE SMOOTH",
"152 706 OFFCURVE",
"161 698 OFFCURVE",
"164 684 CURVE SMOOTH",
"169 663 OFFCURVE",
"182 641 OFFCURVE",
"221 641 CURVE SMOOTH",
"346 641 OFFCURVE",
"406 651 OFFCURVE",
"461 651 CURVE SMOOTH",
"477 651 OFFCURVE",
"485 643 OFFCURVE",
"485 626 CURVE SMOOTH",
"485 591 OFFCURVE",
"437 493 OFFCURVE",
"437 457 CURVE SMOOTH",
"437 412 OFFCURVE",
"510 353 OFFCURVE",
"510 259 CURVE SMOOTH",
"510 73 OFFCURVE",
"260 -27 OFFCURVE",
"84 -27 CURVE SMOOTH"
);
}
);
width = 549;
}
);
unicode = 05D1;
},
{
color = 5;
glyphname = "gimel-hb";
layers = (
{
anchors = (
{
name = bottom;
position = "{208, 0}";
},
{
name = center;
position = "{150, 315}";
}
);
layerId = m01;
paths = (
{
closed = 1;
nodes = (
"58 -15 OFFCURVE",
"-6 8 OFFCURVE",
"-6 37 CURVE SMOOTH",
"-6 56 OFFCURVE",
"39 56 OFFCURVE",
"54 111 CURVE SMOOTH",
"65 150 OFFCURVE",
"91 195 OFFCURVE",
"156 195 CURVE SMOOTH",
"225 195 OFFCURVE",
"271 147 OFFCURVE",
"286 147 CURVE SMOOTH",
"294 147 OFFCURVE",
"299 149 OFFCURVE",
"299 162 CURVE SMOOTH",
"299 213 OFFCURVE",
"289 329 OFFCURVE",
"253 397 CURVE SMOOTH",
"203 490 OFFCURVE",
"111 493 OFFCURVE",
"111 533 CURVE SMOOTH",
"111 575 OFFCURVE",
"149 660 OFFCURVE",
"191 660 CURVE SMOOTH",
"253 660 OFFCURVE",
"317 602 OFFCURVE",
"333 552 CURVE SMOOTH",
"367 445 OFFCURVE",
"356 206 OFFCURVE",
"356 32 CURVE SMOOTH",
"356 1 OFFCURVE",
"342 -7 OFFCURVE",
"323 -7 CURVE SMOOTH",
"300 -7 OFFCURVE",
"297 3 OFFCURVE",
"297 16 CURVE SMOOTH",
"297 48 OFFCURVE",
"300 65 OFFCURVE",
"300 79 CURVE SMOOTH",
"300 100 OFFCURVE",
"287 108 OFFCURVE",
"261 108 CURVE SMOOTH",
"198 108 OFFCURVE",
"200 -15 OFFCURVE",
"98 -15 CURVE SMOOTH"
);
}
);
width = 426;
},
{
anchors = (
{
name = bottom;
position = "{254, 0}";
},
{
name = center;
position = "{170, 357}";
}
);
layerId = m002;
paths = (
{
closed = 1;
nodes = (
"42 -15 OFFCURVE",
"-6 32 OFFCURVE",
"-6 60 CURVE SMOOTH",
"-6 82 OFFCURVE",
"35 94 OFFCURVE",
"54 131 CURVE SMOOTH",
"77 177 OFFCURVE",
"108 237 OFFCURVE",
"187 237 CURVE SMOOTH",
"267 237 OFFCURVE",
"316 202 OFFCURVE",
"328 202 CURVE SMOOTH",
"339 202 OFFCURVE",
"343 205 OFFCURVE",
"343 219 CURVE SMOOTH",
"343 269 OFFCURVE",
"330 337 OFFCURVE",
"301 397 CURVE SMOOTH",
"253 496 OFFCURVE",
"122 489 OFFCURVE",
"122 545 CURVE SMOOTH",
"122 599 OFFCURVE",
"177 704 OFFCURVE",
"239 704 CURVE SMOOTH",
"345 704 OFFCURVE",
"444 601 OFFCURVE",
"444 450 CURVE SMOOTH",
"444 337 OFFCURVE",
"440 206 OFFCURVE",
"440 32 CURVE SMOOTH",
"440 0 OFFCURVE",
"400 -7 OFFCURVE",
"372 -7 CURVE SMOOTH",
"346 -7 OFFCURVE",
"341 4 OFFCURVE",
"341 19 CURVE SMOOTH",
"341 51 OFFCURVE",
"345 65 OFFCURVE",
"345 85 CURVE SMOOTH",
"345 100 OFFCURVE",
"341 104 OFFCURVE",
"323 104 CURVE SMOOTH",
"254 104 OFFCURVE",
"254 -15 OFFCURVE",
"98 -15 CURVE SMOOTH"
);
}
);
width = 510;
}
);
unicode = 05D2;
},
{
color = 5;
glyphname = "dalet-hb";
layers = (
{
anchors = (
{
name = bottom;
position = "{288, 0}";
},
{
name = center;
position = "{182, 348}";
}
);
layerId = m01;
paths = (
{
closed = 1;
nodes = (
"251 -29 OFFCURVE",
"199 37 OFFCURVE",
"199 71 CURVE SMOOTH",
"199 156 OFFCURVE",
"371 380 OFFCURVE",
"371 455 CURVE SMOOTH",
"371 470 OFFCURVE",
"363 476 OFFCURVE",
"347 476 CURVE SMOOTH",
"276 476 OFFCURVE",
"197 464 OFFCURVE",
"125 464 CURVE SMOOTH",
"68 464 OFFCURVE",
"30 480 OFFCURVE",
"30 545 CURVE SMOOTH",
"30 660 OFFCURVE",
"40 694 OFFCURVE",
"79 694 CURVE SMOOTH",
"88 694 OFFCURVE",
"92 690 OFFCURVE",
"95 680 CURVE SMOOTH",
"101 660 OFFCURVE",
"111 633 OFFCURVE",
"167 633 CURVE SMOOTH",
"319 633 OFFCURVE",
"384 652 OFFCURVE",
"434 652 CURVE SMOOTH",
"469 652 OFFCURVE",
"479 620 OFFCURVE",
"479 585 CURVE SMOOTH",
"479 515 OFFCURVE",
"426 515 OFFCURVE",
"426 450 CURVE SMOOTH",
"426 354 OFFCURVE",
"348 -29 OFFCURVE",
"290 -29 CURVE SMOOTH"
);
}
);
width = 501;
},
{
anchors = (
{
name = bottom;
position = "{288, 0}";
},
{
name = center;
position = "{182, 318}";
}
);
layerId = m002;
paths = (
{
closed = 1;
nodes = (
"278 -29 OFFCURVE",
"210 38 OFFCURVE",
"210 82 CURVE SMOOTH",
"210 174 OFFCURVE",
"400 394 OFFCURVE",
"400 431 CURVE SMOOTH",
"400 444 OFFCURVE",
"392 450 OFFCURVE",
"376 450 CURVE SMOOTH",
"305 450 OFFCURVE",
"215 440 OFFCURVE",
"143 440 CURVE SMOOTH",
"54 440 OFFCURVE",
"30 480 OFFCURVE",
"30 545 CURVE SMOOTH",
"30 670 OFFCURVE",
"42 694 OFFCURVE",
"107 694 CURVE SMOOTH",
"123 694 OFFCURVE",
"129 689 OFFCURVE",
"137 673 CURVE SMOOTH",
"146 656 OFFCURVE",
"158 648 OFFCURVE",
"205 648 CURVE SMOOTH",
"367 648 OFFCURVE",
"451 660 OFFCURVE",
"518 660 CURVE SMOOTH",
"546 660 OFFCURVE",
"563 633 OFFCURVE",
"563 583 CURVE SMOOTH",
"563 507 OFFCURVE",
"511 497 OFFCURVE",
"511 460 CURVE SMOOTH",
"511 365 OFFCURVE",
"447 -29 OFFCURVE",
"352 -29 CURVE SMOOTH"
);
}
);
width = 585;
}
);
unicode = 05D3;
},
{
color = 5;
glyphname = "he-hb";
layers = (
{
anchors = (
{
name = bottom;
position = "{291, 0}";
},
{
name = center;
position = "{309, 328}";
}
);
layerId = m01;
paths = (
{
closed = 1;
nodes = (
"133 -29 OFFCURVE",
"57 121 OFFCURVE",
"57 282 CURVE SMOOTH",
"57 347 OFFCURVE",
"64 355 OFFCURVE",
"81 355 CURVE SMOOTH",
"103 355 OFFCURVE",
"106 348 OFFCURVE",
"108 336 CURVE SMOOTH",
"124 259 OFFCURVE",
"159 199 OFFCURVE",
"218 181 CURVE SMOOTH",
"312 152 OFFCURVE",
"321 139 OFFCURVE",
"321 68 CURVE SMOOTH",
"321 -6 OFFCURVE",
"314 -29 OFFCURVE",
"274 -29 CURVE SMOOTH"
);
},
{
closed = 1;
nodes = (
"444 105 OFFCURVE",
"422 119 OFFCURVE",
"422 145 CURVE SMOOTH",
"422 191 OFFCURVE",
"483 222 OFFCURVE",
"483 324 CURVE SMOOTH",
"483 435 OFFCURVE",
"396 468 OFFCURVE",
"283 468 CURVE SMOOTH",
"245 468 OFFCURVE",
"184 462 OFFCURVE",
"144 462 CURVE SMOOTH",
"47 462 OFFCURVE",
"46 520 OFFCURVE",
"46 568 CURVE SMOOTH",
"46 633 OFFCURVE",
"58 692 OFFCURVE",
"81 692 CURVE SMOOTH",
"101 692 OFFCURVE",
"112 687 OFFCURVE",
"114 676 CURVE SMOOTH",
"122 636 OFFCURVE",
"172 628 OFFCURVE",
"208 628 CURVE SMOOTH",
"242 628 OFFCURVE",
"281 634 OFFCURVE",
"316 634 CURVE SMOOTH",
"483 634 OFFCURVE",
"538 495 OFFCURVE",
"538 333 CURVE SMOOTH",
"538 265 OFFCURVE",
"519 105 OFFCURVE",
"470 105 CURVE SMOOTH"
);
}
);
width = 580;
},
{
anchors = (
{
name = bottom;
position = "{331, 0}";
},
{
name = center;
position = "{349, 318}";
}
);
layerId = m002;
paths = (
{
closed = 1;
nodes = (
"141 -29 OFFCURVE",
"57 131 OFFCURVE",
"57 272 CURVE SMOOTH",
"57 379 OFFCURVE",
"66 400 OFFCURVE",
"93 400 CURVE SMOOTH",
"133 400 OFFCURVE",
"144 393 OFFCURVE",
"148 375 CURVE SMOOTH",
"171 273 OFFCURVE",
"213 231 OFFCURVE",
"270 217 CURVE SMOOTH",
"361 195 OFFCURVE",
"388 172 OFFCURVE",
"388 98 CURVE SMOOTH",
"388 4 OFFCURVE",
"366 -29 OFFCURVE",
"326 -29 CURVE SMOOTH"
);
},
{
closed = 1;
nodes = (
"490 84 OFFCURVE",
"456 119 OFFCURVE",
"456 155 CURVE SMOOTH",
"456 201 OFFCURVE",
"523 227 OFFCURVE",
"523 329 CURVE SMOOTH",
"523 400 OFFCURVE",
"471 450 OFFCURVE",
"368 450 CURVE SMOOTH",
"320 450 OFFCURVE",
"242 442 OFFCURVE",
"166 442 CURVE SMOOTH",
"69 442 OFFCURVE",
"46 520 OFFCURVE",
"46 568 CURVE SMOOTH",
"46 660 OFFCURVE",
"66 710 OFFCURVE",
"106 710 CURVE SMOOTH",
"134 710 OFFCURVE",
"147 707 OFFCURVE",
"158 680 CURVE SMOOTH",
"169 653 OFFCURVE",
"206 650 OFFCURVE",
"232 650 CURVE SMOOTH",
"266 650 OFFCURVE",
"321 660 OFFCURVE",
"376 660 CURVE SMOOTH",
"543 660 OFFCURVE",
"622 532 OFFCURVE",
"622 361 CURVE SMOOTH",
"622 193 OFFCURVE",
"591 84 OFFCURVE",
"539 84 CURVE SMOOTH"
);
}
);
width = 664;
}
);
unicode = 05D4;
},
{
color = 5;
glyphname = "vav-hb";
layers = (
{
anchors = (
{
name = bottom;
position = "{184, 0}";
},
{
name = bottomleft;
position = "{100, 0}";
},
{
name = center;
position = "{77, 270}";
},
{
name = top;
position = "{115, 610}";
},
{
name = topleft;
position = "{106, 630}";
}
);
layerId = m01;
paths = (
{
closed = 1;
nodes = (
"176 -17 OFFCURVE",
"171 -7 OFFCURVE",
"171 8 CURVE SMOOTH",
"171 67 OFFCURVE",
"178 110 OFFCURVE",
"178 203 CURVE SMOOTH",
"178 459 OFFCURVE",
"22 466 OFFCURVE",
"22 513 CURVE SMOOTH",
"22 561 OFFCURVE",
"59 656 OFFCURVE",
"106 656 CURVE SMOOTH",
"194 656 OFFCURVE",
"248 530 OFFCURVE",
"248 460 CURVE SMOOTH",
"248 286 OFFCURVE",
"227 21 OFFCURVE",
"223 4 CURVE SMOOTH",
"219 -12 OFFCURVE",
"202 -17 OFFCURVE",
"190 -17 CURVE SMOOTH"
);
}
);
width = 308;
},
{
anchors = (
{
name = bottom;
position = "{234, 0}";
},
{
name = bottomleft;
position = "{150, 0}";
},
{
name = center;
position = "{97, 270}";
},
{
name = top;
position = "{135, 610}";
},
{
name = topleft;
position = "{126, 660}";
}
);
layerId = m002;
paths = (
{
closed = 1;
nodes = (
"215 -17 OFFCURVE",
"202 -9 OFFCURVE",
"202 10 CURVE SMOOTH",
"202 89 OFFCURVE",
"218 166 OFFCURVE",
"218 242 CURVE SMOOTH",
"218 438 OFFCURVE",
"22 465 OFFCURVE",
"22 525 CURVE SMOOTH",
"22 602 OFFCURVE",
"71 691 OFFCURVE",
"126 691 CURVE SMOOTH",
"268 691 OFFCURVE",
"332 592 OFFCURVE",
"332 450 CURVE SMOOTH",
"332 276 OFFCURVE",
"308 31 OFFCURVE",
"300 10 CURVE SMOOTH",
"293 -8 OFFCURVE",
"278 -17 OFFCURVE",
"225 -17 CURVE SMOOTH"
);
}
);
width = 392;
}
);
unicode = 05D5;
},
{
color = 5;
glyphname = "zayin-hb";
layers = (
{
anchors = (
{
name = bottom;
position = "{117, 0}";
},
{
name = bottomleft;
position = "{7, 0}";
},
{
name = center;
position = "{0, 254}";
},
{
name = top;
position = "{194, 690}";
},
{
name = topleft;
position = "{67, 690}";
}
);
layerId = m01;
paths = (
{
closed = 1;
nodes = (
"91 -28 OFFCURVE",
"81 -24 OFFCURVE",
"81 -12 CURVE SMOOTH",
"81 15 OFFCURVE",
"92 116 OFFCURVE",
"92 165 CURVE SMOOTH",
"92 411 OFFCURVE",
"45 483 OFFCURVE",
"45 542 CURVE SMOOTH",
"45 587 OFFCURVE",
"138 652 OFFCURVE",
"198 652 CURVE SMOOTH",
"217 652 OFFCURVE",
"242 561 OFFCURVE",
"242 530 CURVE SMOOTH",
"242 457 OFFCURVE",
"148 425 OFFCURVE",
"148 370 CURVE SMOOTH",
"148 344 OFFCURVE",
"175 300 OFFCURVE",
"175 211 CURVE SMOOTH",
"175 167 OFFCURVE",
"153 -28 OFFCURVE",
"106 -28 CURVE SMOOTH"
);
}
);
width = 270;
},
{
anchors = (
{
name = bottom;
position = "{197, 0}";
},
{
name = bottomleft;
position = "{87, 0}";
},
{
name = center;
position = "{-10, 254}";
},
{
name = top;
position = "{274, 690}";
},
{
name = topleft;
position = "{147, 690}";
}
);
layerId = m002;
paths = (
{
closed = 1;
nodes = (
"98 -27 OFFCURVE",
"81 -20 OFFCURVE",
"81 0 CURVE SMOOTH",
"81 27 OFFCURVE",
"92 116 OFFCURVE",
"92 165 CURVE SMOOTH",
"92 411 OFFCURVE",
"45 505 OFFCURVE",
"45 560 CURVE SMOOTH",
"45 608 OFFCURVE",
"150 694 OFFCURVE",
"242 694 CURVE SMOOTH",
"290 694 OFFCURVE",
"326 590 OFFCURVE",
"326 551 CURVE SMOOTH",
"326 462 OFFCURVE",
"206 429 OFFCURVE",
"206 387 CURVE SMOOTH",
"206 361 OFFCURVE",
"249 313 OFFCURVE",
"249 214 CURVE SMOOTH",
"249 140 OFFCURVE",
"168 -27 OFFCURVE",
"118 -27 CURVE SMOOTH"
);
}
);
width = 354;
}
);
unicode = 05D6;
},
{
color = 5;
glyphname = "het-hb";
layers = (
{
anchors = (
{
name = bottom;
position = "{257, 0}";
}
);
layerId = m01;
paths = (
{
closed = 1;
nodes = (
"80 -29 OFFCURVE",
"60 -13 OFFCURVE",
"60.2 7.7 CURVE SMOOTH",
"61 51 OFFCURVE",
"71 339 OFFCURVE",
"80.5 380.8 CURVE SMOOTH",
"86.8 408.8 OFFCURVE",
"113 439 OFFCURVE",
"113 460 CURVE SMOOTH",
"113 479 OFFCURVE",
"53 482 OFFCURVE",
"53 528 CURVE SMOOTH",
"53 605 OFFCURVE",
"68 673 OFFCURVE",
"75 682 CURVE SMOOTH",
"80 689 OFFCURVE",
"88 697 OFFCURVE",
"108 697 CURVE SMOOTH",
"128 697 OFFCURVE",
"136 637 OFFCURVE",
"186 637 CURVE SMOOTH",
"232 637 OFFCURVE",
"283 644 OFFCURVE",
"331 644 CURVE SMOOTH",
"456 644 OFFCURVE",
"508 522 OFFCURVE",
"508 366 CURVE SMOOTH",
"508 211 OFFCURVE",
"450 22 OFFCURVE",
"314 22 CURVE SMOOTH",
"294 22 OFFCURVE",
"279 38 OFFCURVE",
"279 62 CURVE SMOOTH",
"279 95 OFFCURVE",
"325 114 OFFCURVE",
"351 129 CURVE SMOOTH",
"406 162 OFFCURVE",
"450 243 OFFCURVE",
"450.1 329.7 CURVE SMOOTH",
"450 432 OFFCURVE",
"400 466 OFFCURVE",
"336 466 CURVE SMOOTH",
"167 466 OFFCURVE",
"148 433 OFFCURVE",
"147.7 380.1 CURVE SMOOTH",
"148 354 OFFCURVE",
"200 122 OFFCURVE",
"199.5 83.3 CURVE SMOOTH",
"200 35 OFFCURVE",
"132 -29 OFFCURVE",
"94 -29 CURVE SMOOTH"
);
}
);
width = 541;
},
{
anchors = (
{
name = bottom;
position = "{257, 0}";
}
);
layerId = m002;
paths = (
{
closed = 1;
nodes = (
"100 -32 OFFCURVE",
"58 -6 OFFCURVE",
"58 15 CURVE SMOOTH",
"59 58 OFFCURVE",
"71 339 OFFCURVE",
"80.5 380.8 CURVE SMOOTH",
"86.8 408.8 OFFCURVE",
"102 438 OFFCURVE",
"102 447 CURVE SMOOTH",
"102 457 OFFCURVE",
"55 468 OFFCURVE",
"55 520 CURVE SMOOTH",
"55 640 OFFCURVE",
"67 665 OFFCURVE",
"77 680 CURVE SMOOTH",
"85 692 OFFCURVE",
"110 699 OFFCURVE",
"131 699 CURVE SMOOTH",
"159 699 OFFCURVE",
"161 660 OFFCURVE",
"196 660 CURVE SMOOTH",
"268 660 OFFCURVE",
"301 663 OFFCURVE",
"351 663 CURVE SMOOTH",
"529 663 OFFCURVE",
"592 572 OFFCURVE",
"592 365 CURVE SMOOTH",
"592 140 OFFCURVE",
"492 0 OFFCURVE",
"356 0 CURVE SMOOTH",
"330 0 OFFCURVE",
"298 38 OFFCURVE",
"298 62 CURVE SMOOTH",
"298 95 OFFCURVE",
"321 116 OFFCURVE",
"363 134 CURVE SMOOTH",
"420 158 OFFCURVE",
"491 213 OFFCURVE",
"491 330 CURVE SMOOTH",
"491 432 OFFCURVE",
"422 451 OFFCURVE",
"364 451 CURVE SMOOTH",
"222 451 OFFCURVE",
"198 440 OFFCURVE",
"198 380 CURVE SMOOTH",
"198 354 OFFCURVE",
"254 122 OFFCURVE",
"254 83 CURVE SMOOTH",
"254 35 OFFCURVE",
"152 -32 OFFCURVE",
"114 -32 CURVE SMOOTH"
);
}
);
width = 625;
}
);
unicode = 05D7;
},
{
color = 5;
glyphname = "tet-hb";
layers = (
{
anchors = (
{
name = bottom;
position = "{384, 0}";
},
{
name = center;
position = "{364, 327}";
}
);
layerId = m01;
paths = (
{
closed = 1;
nodes = (
"142 -103 OFFCURVE",
"127 -99 OFFCURVE",
"127 -90 CURVE SMOOTH",
"127 -71 OFFCURVE",
"161 32 OFFCURVE",
"161 189 CURVE SMOOTH",
"160 496 OFFCURVE",
"27 501 OFFCURVE",
"27 541 CURVE SMOOTH",
"27 589 OFFCURVE",
"78 673 OFFCURVE",
"123 673 CURVE SMOOTH",
"151 673 OFFCURVE",
"206 540 OFFCURVE",
"214 364 CURVE SMOOTH",
"222 180 OFFCURVE",
"227 163 OFFCURVE",
"232 157 CURVE SMOOTH",
"240 148 OFFCURVE",
"278 141 OFFCURVE",
"334 141 CURVE SMOOTH",
"469 142 OFFCURVE",
"527 239 OFFCURVE",
"527 324 CURVE SMOOTH",
"527 437 OFFCURVE",
"439 497 OFFCURVE",
"380 497 CURVE SMOOTH",
"332 497 OFFCURVE",
"297 466 OFFCURVE",
"280 466 CURVE SMOOTH",
"269 466 OFFCURVE",
"261 492 OFFCURVE",
"261 505 CURVE SMOOTH",
"261 519 OFFCURVE",
"382 676 OFFCURVE",
"404 676 CURVE SMOOTH",
"520 676 OFFCURVE",
"584 480 OFFCURVE",
"584 341 CURVE SMOOTH",
"584 159 OFFCURVE",
"500 -24 OFFCURVE",
"309 -24 CURVE SMOOTH",
"246 -24 OFFCURVE",
"218 -7 OFFCURVE",
"206 -7 CURVE SMOOTH",
"196 -7 OFFCURVE",
"188 -103 OFFCURVE",
"171 -103 CURVE SMOOTH"
);
}
);
width = 619;
},
{
anchors = (
{
name = bottom;
position = "{384, -60}";
},
{
name = center;
position = "{444, 337}";
}
);
layerId = m002;
paths = (
{
closed = 1;
nodes = (
"145 -103 OFFCURVE",
"123 -98 OFFCURVE",
"123 -77 CURVE SMOOTH",
"123 -28 OFFCURVE",
"182 24 OFFCURVE",
"182 189 CURVE SMOOTH",
"182 443 OFFCURVE",
"27 484 OFFCURVE",
"27 534 CURVE SMOOTH",
"27 582 OFFCURVE",
"107 708 OFFCURVE",
"162 708 CURVE SMOOTH",
"213 708 OFFCURVE",
"283 626 OFFCURVE",
"291 450 CURVE SMOOTH",
"301 224 OFFCURVE",
"306 203 OFFCURVE",
"311 197 CURVE SMOOTH",
"319 188 OFFCURVE",
"357 181 OFFCURVE",
"413 181 CURVE SMOOTH",
"548 182 OFFCURVE",
"614 263 OFFCURVE",
"614 348 CURVE SMOOTH",
"614 461 OFFCURVE",
"533 500 OFFCURVE",
"474 500 CURVE SMOOTH",
"429 500 OFFCURVE",
"409 485 OFFCURVE",
"379 485 CURVE SMOOTH",
"363 485 OFFCURVE",
"337 518 OFFCURVE",
"337 541 CURVE SMOOTH",
"337 575 OFFCURVE",
"453 713 OFFCURVE",
"497 713 CURVE SMOOTH",
"624 713 OFFCURVE",
"710 540 OFFCURVE",
"710 371 CURVE SMOOTH",
"710 89 OFFCURVE",
"579 -24 OFFCURVE",
"378 -24 CURVE SMOOTH",
"322 -24 OFFCURVE",
"303 -10 OFFCURVE",
"274 -10 CURVE SMOOTH",
"245 -10 OFFCURVE",
"245 -103 OFFCURVE",
"196 -103 CURVE SMOOTH"
);
}
);
width = 745;
}
);
unicode = 05D8;
},
{
color = 5;
glyphname = "yod-hb";
layers = (
{
anchors = (
{
name = bottom;
position = "{95, 0}";
},
{
name = center;
position = "{45, 368}";
}
);
layerId = m01;
paths = (
{
closed = 1;
nodes = (
"118 241 OFFCURVE",
"101 258 OFFCURVE",
"101 269 CURVE SMOOTH",
"101 287 OFFCURVE",
"174 339 OFFCURVE",
"174 401 CURVE SMOOTH",
"174 426 OFFCURVE",
"163 434 OFFCURVE",
"135 445 CURVE SMOOTH",
"66 472 OFFCURVE",
"20 488 OFFCURVE",
"20 557 CURVE SMOOTH",
"20 603 OFFCURVE",
"44 666 OFFCURVE",
"57 676 CURVE SMOOTH",
"63 681 OFFCURVE",
"76 685 OFFCURVE",
"85 685 CURVE SMOOTH",
"91 685 OFFCURVE",
"98 681 OFFCURVE",
"98 671 CURVE SMOOTH",
"98 641 OFFCURVE",
"120 622 OFFCURVE",
"182 599 CURVE SMOOTH",
"235 579 OFFCURVE",
"258 545 OFFCURVE",
"258 502 CURVE SMOOTH",
"258 362 OFFCURVE",
"154 241 OFFCURVE",
"133 241 CURVE SMOOTH"
);
}
);
width = 270;
},
{
anchors = (
{
name = bottom;
position = "{95, 0}";
},
{
name = center;
position = "{1, 339}";
}
);
layerId = m002;
paths = (
{
closed = 1;
nodes = (
"136 214 OFFCURVE",
"106 237 OFFCURVE",
"106 258 CURVE SMOOTH",
"106 279 OFFCURVE",
"202 339 OFFCURVE",
"202 391 CURVE SMOOTH",
"202 416 OFFCURVE",
"183 425 OFFCURVE",
"124 436 CURVE SMOOTH",
"53 449 OFFCURVE",
"20 478 OFFCURVE",
"20 547 CURVE SMOOTH",
"20 592 OFFCURVE",
"41 648 OFFCURVE",
"49 660 CURVE SMOOTH",
"55 669 OFFCURVE",
"75 688 OFFCURVE",
"123 688 CURVE SMOOTH",
"137 688 OFFCURVE",
"146 680 OFFCURVE",
"146 665 CURVE SMOOTH",
"146 634 OFFCURVE",
"164 621 OFFCURVE",
"241 601 CURVE SMOOTH",
"305 584 OFFCURVE",
"342 549 OFFCURVE",
"342 488 CURVE SMOOTH",
"342 323 OFFCURVE",
"190 214 OFFCURVE",
"152 214 CURVE SMOOTH"
);
}
);
width = 354;
}
);
unicode = 05D9;
},
{
color = 5;
glyphname = "kafFinal-hb";
layers = (
{
anchors = (
{
name = bottom;
position = "{232, -317}";
},
{
name = center;
position = "{155, 317}";
}
);
layerId = m01;
paths = (
{
closed = 1;
nodes = (
"289 -342 OFFCURVE",
"277 -327 OFFCURVE",
"277 -298 CURVE SMOOTH",
"277 -247 OFFCURVE",
"272 -57 OFFCURVE",
"272 124 CURVE SMOOTH",
"272 381 OFFCURVE",
"329 438 OFFCURVE",
"329 457 CURVE SMOOTH",
"329 465 OFFCURVE",
"326 470 OFFCURVE",
"318 470 CURVE SMOOTH",
"303 470 OFFCURVE",
"172 454 OFFCURVE",
"113 454 CURVE SMOOTH",
"54 454 OFFCURVE",
"28 495 OFFCURVE",
"28 558 CURVE SMOOTH",
"28 594 OFFCURVE",
"38 667 OFFCURVE",
"42 677 CURVE SMOOTH",
"46 686 OFFCURVE",
"66 694 OFFCURVE",
"78 694 CURVE SMOOTH",
"87 694 OFFCURVE",
"93 691 OFFCURVE",
"96 680 CURVE SMOOTH",
"100 665 OFFCURVE",
"117 628 OFFCURVE",
"195 628 CURVE SMOOTH",
"220 628 OFFCURVE",
"258 634 OFFCURVE",
"289 634 CURVE SMOOTH",
"377 634 OFFCURVE",
"406 572 OFFCURVE",
"406 509 CURVE SMOOTH",
"406 440 OFFCURVE",
"370 373 OFFCURVE",
"370 295 CURVE SMOOTH",
"370 219 OFFCURVE",
"424 -104 OFFCURVE",
"424 -200 CURVE SMOOTH",
"424 -260 OFFCURVE",
"367 -342 OFFCURVE",
"309 -342 CURVE SMOOTH"
);
}
);
width = 465;
},
{
anchors = (
{
name = bottom;
position = "{262, -317}";
},
{
name = center;
position = "{162, 284}";
}
);
layerId = m002;
paths = (
{
closed = 1;
nodes = (
"346 -342 OFFCURVE",
"317 -327 OFFCURVE",
"317 -293 CURVE SMOOTH",
"317 -97 OFFCURVE",
"297 3 OFFCURVE",
"297 124 CURVE SMOOTH",
"297 271 OFFCURVE",
"359 402 OFFCURVE",
"359 431 CURVE SMOOTH",
"359 443 OFFCURVE",
"354 450 OFFCURVE",
"341 450 CURVE SMOOTH",
"213 450 OFFCURVE",
"149 430 OFFCURVE",
"110 430 CURVE SMOOTH",
"51 430 OFFCURVE",
"28 495 OFFCURVE",
"28 558 CURVE SMOOTH",
"28 594 OFFCURVE",
"31 658 OFFCURVE",
"44 674 CURVE SMOOTH",
"58 691 OFFCURVE",
"91 704 OFFCURVE",
"123 704 CURVE SMOOTH",
"132 704 OFFCURVE",
"140 697 OFFCURVE",
"143 686 CURVE SMOOTH",
"147 671 OFFCURVE",
"154 648 OFFCURVE",
"235 648 CURVE SMOOTH",
"260 648 OFFCURVE",
"338 654 OFFCURVE",
"369 654 CURVE SMOOTH",
"457 654 OFFCURVE",
"489 582 OFFCURVE",
"489 519 CURVE SMOOTH",
"489 450 OFFCURVE",
"453 383 OFFCURVE",
"453 305 CURVE SMOOTH",
"453 229 OFFCURVE",
"508 -84 OFFCURVE",
"508 -180 CURVE SMOOTH",
"508 -240 OFFCURVE",
"447 -342 OFFCURVE",
"369 -342 CURVE SMOOTH"
);
}
);
width = 549;
}
);
unicode = 05DA;
},
{
color = 5;
glyphname = "kaf-hb";
layers = (
{
anchors = (
{
name = bottom;
position = "{206, 0}";
},
{
name = center;
position = "{192, 329}";
}
);
layerId = m01;
paths = (
{
closed = 1;
nodes = (
"30 -17 OFFCURVE",
"23 -4 OFFCURVE",
"23 54 CURVE SMOOTH",
"23 123 OFFCURVE",
"26 160 OFFCURVE",
"99 160 CURVE SMOOTH",
"206 160 OFFCURVE",
"358 195 OFFCURVE",
"358 346 CURVE SMOOTH",
"358 431 OFFCURVE",
"315 477 OFFCURVE",
"230 477 CURVE SMOOTH",
"202 477 OFFCURVE",
"166 471 OFFCURVE",
"137 471 CURVE SMOOTH",
"72 471 OFFCURVE",
"18 477 OFFCURVE",
"15 571 CURVE SMOOTH",
"14 620 OFFCURVE",
"26 681 OFFCURVE",
"33 691 CURVE SMOOTH",
"39 700 OFFCURVE",
"57 708 OFFCURVE",
"70 708 CURVE SMOOTH",
"79 708 OFFCURVE",
"85 704 OFFCURVE",
"89 686 CURVE SMOOTH",
"98 651 OFFCURVE",
"132 642 OFFCURVE",
"165 642 CURVE SMOOTH",
"194 642 OFFCURVE",
"219 645 OFFCURVE",
"239 645 CURVE SMOOTH",
"362 645 OFFCURVE",
"415 525 OFFCURVE",
"415 368 CURVE SMOOTH",
"415 193 OFFCURVE",
"325 -17 OFFCURVE",
"64 -17 CURVE SMOOTH"
);
}
);
width = 465;
},
{
anchors = (
{
name = bottom;
position = "{256, 0}";
},
{
name = center;
position = "{242, 329}";
}
);
layerId = m002;
paths = (
{
closed = 1;
nodes = (
"42 -17 OFFCURVE",
"23 6 OFFCURVE",
"23 74 CURVE SMOOTH",
"23 145 OFFCURVE",
"39 191 OFFCURVE",
"105 191 CURVE SMOOTH",
"190 191 OFFCURVE",
"398 195 OFFCURVE",
"398 346 CURVE SMOOTH",
"398 431 OFFCURVE",
"345 450 OFFCURVE",
"230 450 CURVE SMOOTH",
"202 450 OFFCURVE",
"165 444 OFFCURVE",
"126 444 CURVE SMOOTH",
"61 444 OFFCURVE",
"15 477 OFFCURVE",
"15 571 CURVE SMOOTH",
"15 620 OFFCURVE",
"32 676 OFFCURVE",
"45 690 CURVE SMOOTH",
"54 700 OFFCURVE",
"72 708 OFFCURVE",
"108 708 CURVE SMOOTH",
"116 708 OFFCURVE",
"126 701 OFFCURVE",
"128 688 CURVE SMOOTH",
"134 650 OFFCURVE",
"167 643 OFFCURVE",
"205 643 CURVE SMOOTH",
"245 643 OFFCURVE",
"280 648 OFFCURVE",
"309 648 CURVE SMOOTH",
"432 648 OFFCURVE",
"499 525 OFFCURVE",
"499 368 CURVE SMOOTH",
"499 163 OFFCURVE",
"387 -17 OFFCURVE",
"80 -17 CURVE SMOOTH"
);
}
);
width = 549;
}
);
unicode = 05DB;
},
{
color = 5;
glyphname = "lamed-hb";
layers = (
{
anchors = (
{
name = bottom;
position = "{125, 0}";
},
{
name = center;
position = "{138, 306}";
}
);
layerId = m01;
paths = (
{
closed = 1;
nodes = (
"29 -40 OFFCURVE",
"22 -23 OFFCURVE",
"22 17 CURVE SMOOTH",
"22 108 OFFCURVE",
"35 145 OFFCURVE",
"75 145 CURVE SMOOTH",
"153 145 OFFCURVE",
"278 211 OFFCURVE",
"278 315 CURVE SMOOTH",
"277 392 OFFCURVE",
"219 425 OFFCURVE",
"147 458 CURVE SMOOTH",
"116 471 OFFCURVE",
"70 482 OFFCURVE",
"70 531 CURVE SMOOTH",
"70 544 OFFCURVE",
"82 720 OFFCURVE",
"82 774 CURVE SMOOTH",
"82 849 OFFCURVE",
"0 853 OFFCURVE",
"0 905 CURVE SMOOTH",
"0 934 OFFCURVE",
"12 1000 OFFCURVE",
"43 1000 CURVE SMOOTH",
"74 1000 OFFCURVE",
"176 952 OFFCURVE",
"176 900 CURVE SMOOTH",
"176 831 OFFCURVE",
"145 748 OFFCURVE",
"145 663 CURVE SMOOTH",
"145 656 OFFCURVE",
"149 653 OFFCURVE",
"162 648 CURVE SMOOTH",
"300 594 OFFCURVE",
"337 480 OFFCURVE",
"337 349 CURVE SMOOTH",
"336 145 OFFCURVE",
"200 -39 OFFCURVE",
"56 -40 CURVE SMOOTH"
);
}
);
width = 387;
},
{
anchors = (
{
name = bottom;
position = "{195, 0}";
},
{
name = center;
position = "{166, 318}";
}
);
layerId = m002;
paths = (
{
closed = 1;
nodes = (
"33 -40 OFFCURVE",
"22 -13 OFFCURVE",
"22 27 CURVE SMOOTH",
"22 103 OFFCURVE",
"35 185 OFFCURVE",
"83 185 CURVE SMOOTH",
"159 185 OFFCURVE",
"318 221 OFFCURVE",
"318 315 CURVE SMOOTH",
"318 392 OFFCURVE",
"219 415 OFFCURVE",
"147 448 CURVE SMOOTH",
"116 461 OFFCURVE",
"71 474 OFFCURVE",
"71 521 CURVE SMOOTH",
"71 594 OFFCURVE",
"83 700 OFFCURVE",
"83 754 CURVE SMOOTH",
"83 830 OFFCURVE",
"1 830 OFFCURVE",
"1 895 CURVE SMOOTH",
"1 951 OFFCURVE",
"16 1000 OFFCURVE",
"58 1000 CURVE SMOOTH",
"89 1000 OFFCURVE",
"243 952 OFFCURVE",
"243 892 CURVE SMOOTH",
"243 809 OFFCURVE",
"208 692 OFFCURVE",
"208 669 CURVE SMOOTH",
"208 652 OFFCURVE",
"216 647 OFFCURVE",
"229 643 CURVE SMOOTH",
"361 601 OFFCURVE",
"421 500 OFFCURVE",
"421 349 CURVE SMOOTH",
"421 145 OFFCURVE",
"294 -40 OFFCURVE",
"60 -40 CURVE SMOOTH"
);
}
);
width = 471;
}
);
unicode = 05DC;
},
{
color = 5;
glyphname = "memFinal-hb";
layers = (
{
anchors = (
{
name = bottom;
position = "{306, 0}";
}
);
layerId = m01;
paths = (
{
closed = 1;
nodes = (
"125 416 OFFCURVE",
"125 318 CURVE SMOOTH",
"125 223 OFFCURVE",
"164 142 OFFCURVE",
"321 142 CURVE SMOOTH",
"405 142 OFFCURVE",
"499 212 OFFCURVE",
"499.1 294 CURVE SMOOTH",
"499 412 OFFCURVE",
"446 460 OFFCURVE",
"333 460 CURVE SMOOTH",
"163 460 OFFCURVE"
);
},
{
closed = 1;
nodes = (
"130 -31 OFFCURVE",
"42 102 OFFCURVE",
"42 260.4 CURVE SMOOTH",
"42 404 OFFCURVE",
"109 442 OFFCURVE",
"109 461 CURVE SMOOTH",
"109 479 OFFCURVE",
"48 480 OFFCURVE",
"48 559 CURVE SMOOTH",
"48 616 OFFCURVE",
"59 667 OFFCURVE",
"70 684 CURVE SMOOTH",
"75 692 OFFCURVE",
"89 700 OFFCURVE",
"107 700 CURVE SMOOTH",
"112 700 OFFCURVE",
"121 698 OFFCURVE",
"125 681 CURVE SMOOTH",
"134 640 OFFCURVE",
"152 635 OFFCURVE",
"235 635 CURVE SMOOTH",
"278 635 OFFCURVE",
"308 639 OFFCURVE",
"366 639 CURVE SMOOTH",
"474 639 OFFCURVE",
"550 510 OFFCURVE",
"550 341 CURVE SMOOTH",
"550 189 OFFCURVE",
"497 -31 OFFCURVE",
"279 -31 CURVE SMOOTH"
);
}
);
width = 580;
},
{
anchors = (
{
name = bottom;
position = "{306, 0}";
}
);
layerId = m002;
paths = (
{
closed = 1;
nodes = (
"175 436 OFFCURVE",
"175 328 CURVE SMOOTH",
"175 228 OFFCURVE",
"244 162 OFFCURVE",
"351 162 CURVE SMOOTH",
"455 162 OFFCURVE",
"539 242 OFFCURVE",
"539 324 CURVE SMOOTH",
"539 439 OFFCURVE",
"466 460 OFFCURVE",
"353 460 CURVE SMOOTH",
"223 460 OFFCURVE"
);
},
{
closed = 1;
nodes = (
"140 -31 OFFCURVE",
"41 102 OFFCURVE",
"41 260 CURVE SMOOTH",
"41 394 OFFCURVE",
"104 431 OFFCURVE",
"104 450 CURVE SMOOTH",
"104 468 OFFCURVE",
"50 480 OFFCURVE",
"50 539 CURVE SMOOTH",
"50 606 OFFCURVE",
"58 665 OFFCURVE",
"73 680 CURVE SMOOTH",
"80 687 OFFCURVE",
"112 705 OFFCURVE",
"137 705 CURVE SMOOTH",
"148 705 OFFCURVE",
"153 699 OFFCURVE",
"163 683 CURVE SMOOTH",
"178 660 OFFCURVE",
"212 656 OFFCURVE",
"275 656 CURVE SMOOTH",
"338 656 OFFCURVE",
"368 664 OFFCURVE",
"426 664 CURVE SMOOTH",
"534 664 OFFCURVE",
"634 540 OFFCURVE",
"634 371 CURVE SMOOTH",
"634 119 OFFCURVE",
"537 -31 OFFCURVE",
"319 -31 CURVE SMOOTH"
);
}
);
width = 664;
}
);
unicode = 05DD;
},
{
color = 5;
glyphname = "mem-hb";
layers = (
{
anchors = (
{
name = bottom;
position = "{309, 0}";
},
{
name = center;
position = "{368, 295}";
}
);
layerId = m01;
paths = (
{
closed = 1;
nodes = (
"43 -32 OFFCURVE",
"24 -11 OFFCURVE",
"24 20 CURVE SMOOTH",
"24 42 OFFCURVE",
"32 57 OFFCURVE",
"50 72 CURVE SMOOTH",
"153 159 OFFCURVE",
"164 218 OFFCURVE",
"164 297 CURVE SMOOTH",
"164 471 OFFCURVE",
"45 487 OFFCURVE",
"45 533 CURVE SMOOTH",
"45 563 OFFCURVE",
"89 660 OFFCURVE",
"129 660 CURVE SMOOTH",
"200 660 OFFCURVE",
"218 514 OFFCURVE",
"244 514 CURVE SMOOTH",
"294 514 OFFCURVE",
"346 650 OFFCURVE",
"419 650 CURVE SMOOTH",
"499 650 OFFCURVE",
"571 562 OFFCURVE",
"571 359 CURVE SMOOTH",
"571 121 OFFCURVE",
"458 -19 OFFCURVE",
"343 -19 CURVE SMOOTH",
"315 -19 OFFCURVE",
"295 0 OFFCURVE",
"295 38 CURVE SMOOTH",
"295 65 OFFCURVE",
"316 89 OFFCURVE",
"344 97 CURVE SMOOTH",
"458 129 OFFCURVE",
"509 184 OFFCURVE",
"509 295 CURVE SMOOTH",
"509 395 OFFCURVE",
"440 472 OFFCURVE",
"348 472 CURVE SMOOTH",
"274 472 OFFCURVE",
"241 459 OFFCURVE",
"241 425 CURVE SMOOTH",
"241 299 OFFCURVE",
"227 -32 OFFCURVE",
"90 -32 CURVE SMOOTH"
);
}
);
width = 619;
},
{
anchors = (
{
name = bottom;
position = "{309, 0}";
},
{
name = center;
position = "{449, 305}";
}
);
layerId = m002;
paths = (
{
closed = 1;
nodes = (
"65 -31 OFFCURVE",
"24 -15 OFFCURVE",
"24 38 CURVE SMOOTH",
"24 66 OFFCURVE",
"35 96 OFFCURVE",
"75 122 CURVE SMOOTH",
"169 182 OFFCURVE",
"198 228 OFFCURVE",
"198 297 CURVE SMOOTH",
"198 450 OFFCURVE",
"45 460 OFFCURVE",
"45 533 CURVE SMOOTH",
"45 573 OFFCURVE",
"86 670 OFFCURVE",
"170 670 CURVE SMOOTH",
"267 670 OFFCURVE",
"288 529 OFFCURVE",
"315 529 CURVE SMOOTH",
"370 529 OFFCURVE",
"399 675 OFFCURVE",
"473 675 CURVE SMOOTH",
"649 675 OFFCURVE",
"697 502 OFFCURVE",
"697 359 CURVE SMOOTH",
"697 146 OFFCURVE",
"598 -19 OFFCURVE",
"434 -19 CURVE SMOOTH",
"359 -19 OFFCURVE",
"338 17 OFFCURVE",
"338 52 CURVE SMOOTH",
"338 92 OFFCURVE",
"357 118 OFFCURVE",
"395 128 CURVE SMOOTH",
"468 147 OFFCURVE",
"595 182 OFFCURVE",
"595 295 CURVE SMOOTH",
"595 395 OFFCURVE",
"526 450 OFFCURVE",
"434 450 CURVE SMOOTH",
"340 450 OFFCURVE",
"316 433 OFFCURVE",
"316 400 CURVE SMOOTH",
"316 215 OFFCURVE",
"250 -31 OFFCURVE",
"105 -31 CURVE SMOOTH"
);
}
);
width = 745;
}
);
unicode = 05DE;
},
{
color = 5;
glyphname = "nunFinal-hb";
layers = (
{
anchors = (
{
name = bottom;
position = "{166, -310}";
}
);
layerId = m01;
paths = (
{
closed = 1;
nodes = (
"120 -332 OFFCURVE",
"108 -309 OFFCURVE",
"108 -286 CURVE SMOOTH",
"108 -128 OFFCURVE",
"113 31 OFFCURVE",
"113 189 CURVE SMOOTH",
"113 343 OFFCURVE",
"183 402 OFFCURVE",
"183 427 CURVE SMOOTH",
"183 440 OFFCURVE",
"175 444 OFFCURVE",
"112 471 CURVE SMOOTH",
"53 496 OFFCURVE",
"40 526 OFFCURVE",
"40 572 CURVE SMOOTH",
"40 625 OFFCURVE",
"48 674 OFFCURVE",
"61 694 CURVE SMOOTH",
"67 703 OFFCURVE",
"87 712 OFFCURVE",
"103 712 CURVE SMOOTH",
"110 712 OFFCURVE",
"116 706 OFFCURVE",
"120 697 CURVE SMOOTH",
"130 679 OFFCURVE",
"142 647 OFFCURVE",
"195 625 CURVE SMOOTH",
"242 605 OFFCURVE",
"249 568 OFFCURVE",
"248.5 532.7 CURVE SMOOTH",
"249 450 OFFCURVE",
"203 320 OFFCURVE",
"203.7 233.8 CURVE SMOOTH",
"204 180 OFFCURVE",
"255 -69 OFFCURVE",
"254.8 -192.5 CURVE SMOOTH",
"255 -246 OFFCURVE",
"198 -332 OFFCURVE",
"142 -332 CURVE SMOOTH"
);
}
);
width = 308;
},
{
anchors = (
{
name = bottom;
position = "{166, -310}";
}
);
layerId = m002;
paths = (
{
closed = 1;
nodes = (
"131 -332 OFFCURVE",
"107 -326 OFFCURVE",
"107 -286 CURVE SMOOTH",
"107 -128 OFFCURVE",
"114 31 OFFCURVE",
"114 189 CURVE SMOOTH",
"114 343 OFFCURVE",
"170 391 OFFCURVE",
"170 416 CURVE SMOOTH",
"170 429 OFFCURVE",
"164 437 OFFCURVE",
"113 457 CURVE SMOOTH",
"54 480 OFFCURVE",
"40 526 OFFCURVE",
"40 572 CURVE SMOOTH",
"40 625 OFFCURVE",
"51 670 OFFCURVE",
"71 692 CURVE SMOOTH",
"80 702 OFFCURVE",
"103 712 OFFCURVE",
"127 712 CURVE SMOOTH",
"149 712 OFFCURVE",
"157 698 OFFCURVE",
"163 684 CURVE SMOOTH",
"171 666 OFFCURVE",
"192 649 OFFCURVE",
"231 629 CURVE SMOOTH",
"277 605 OFFCURVE",
"290 588 OFFCURVE",
"290 533 CURVE SMOOTH",
"290 450 OFFCURVE",
"245 320 OFFCURVE",
"245 234 CURVE SMOOTH",
"245 180 OFFCURVE",
"297 -69 OFFCURVE",
"297 -193 CURVE SMOOTH",
"297 -266 OFFCURVE",
"219 -332 OFFCURVE",
"163 -332 CURVE SMOOTH"
);
}
);
width = 350;
}
);
unicode = 05DF;
},
{
color = 5;
glyphname = "nun-hb";
layers = (
{
anchors = (
{
name = bottom;
position = "{170, 0}";
},
{
name = center;
position = "{104, 317}";
}
);
layerId = m01;
paths = (
{
closed = 1;
nodes = (
"25 -38 OFFCURVE",
"17 -23 OFFCURVE",
"17 0 CURVE SMOOTH",
"17 99 OFFCURVE",
"41 143 OFFCURVE",
"74 152 CURVE SMOOTH",
"169 178 OFFCURVE",
"244 213 OFFCURVE",
"244 330 CURVE SMOOTH",
"244 419 OFFCURVE",
"186 446 OFFCURVE",
"88 481 CURVE SMOOTH",
"63 490 OFFCURVE",
"52 501 OFFCURVE",
"52 520 CURVE SMOOTH",
"52 581 OFFCURVE",
"96 652 OFFCURVE",
"145 652 CURVE SMOOTH",
"261 652 OFFCURVE",
"298 489 OFFCURVE",
"298 363 CURVE SMOOTH",
"298 174 OFFCURVE",
"202 -38 OFFCURVE",
"51 -38 CURVE SMOOTH"
);
}
);
width = 347;
},
{
anchors = (
{
name = bottom;
position = "{212, 0}";
},
{
name = center;
position = "{156, 330}";
}
);
layerId = m002;
paths = (
{
closed = 1;
nodes = (
"25 -38 OFFCURVE",
"17 -24 OFFCURVE",
"17 0 CURVE SMOOTH",
"17 109 OFFCURVE",
"35 178 OFFCURVE",
"74 187 CURVE SMOOTH",
"243 226 OFFCURVE",
"284 253 OFFCURVE",
"284 330 CURVE SMOOTH",
"284 414 OFFCURVE",
"197 432 OFFCURVE",
"100 461 CURVE SMOOTH",
"67 471 OFFCURVE",
"52 483 OFFCURVE",
"52 520 CURVE SMOOTH",
"52 581 OFFCURVE",
"100 652 OFFCURVE",
"157 652 CURVE SMOOTH",
"295 652 OFFCURVE",
"382 543 OFFCURVE",
"382 363 CURVE SMOOTH",
"382 163 OFFCURVE",
"280 -38 OFFCURVE",
"44 -38 CURVE SMOOTH"
);
}
);
width = 431;
}
);
unicode = 05E0;
},
{
color = 5;
glyphname = "samekh-hb";
layers = (
{
anchors = (
{
name = bottom;
position = "{326, 0}";
},
{
name = center;
position = "{303, 303}";
}
);
layerId = m01;
paths = (
{
closed = 1;
nodes = (
"433 141 OFFCURVE",
"481 248 OFFCURVE",
"480.9 342.3 CURVE SMOOTH",
"481 446 OFFCURVE",
"429 462 OFFCURVE",
"200 462 CURVE SMOOTH",
"160 462 OFFCURVE",
"122 389 OFFCURVE",
"122 338 CURVE SMOOTH",
"122 247 OFFCURVE",
"162 140 OFFCURVE",
"327.6 140.7 CURVE SMOOTH"
);
},
{
closed = 1;
nodes = (
"43 -132 OFFCURVE",
"31 -106 OFFCURVE",
"31 -77 CURVE SMOOTH",
"31 -35 OFFCURVE",
"61 -7 OFFCURVE",
"61 297 CURVE SMOOTH",
"61 421 OFFCURVE",
"121 458 OFFCURVE",
"121 469 CURVE SMOOTH",
"121 482 OFFCURVE",
"60 488 OFFCURVE",
"60 530 CURVE SMOOTH",
"60 586 OFFCURVE",
"73 667 OFFCURVE",
"77 678 CURVE SMOOTH",
"82 692 OFFCURVE",
"102 699 OFFCURVE",
"116 699 CURVE SMOOTH",
"134 699 OFFCURVE",
"123 638 OFFCURVE",
"181 638 CURVE SMOOTH",
"236 638 OFFCURVE",
"290 645 OFFCURVE",
"340 645 CURVE SMOOTH",
"517 645 OFFCURVE",
"539 444 OFFCURVE",
"539 320.6 CURVE SMOOTH",
"539 151 OFFCURVE",
"455 -30 OFFCURVE",
"297 -32 CURVE SMOOTH",
"230 -32 OFFCURVE",
"163 10 OFFCURVE",
"140 64 CURVE SMOOTH",
"133 80 OFFCURVE",
"120 99 OFFCURVE",
"113 99 CURVE SMOOTH",
"104 99 OFFCURVE",
"102 87 OFFCURVE",
"102 77 CURVE SMOOTH",
"102 40 OFFCURVE",
"136 -39 OFFCURVE",
"136 -74 CURVE SMOOTH",
"136 -105 OFFCURVE",
"118 -132 OFFCURVE",
"76 -132 CURVE SMOOTH"
);
}
);
width = 580;
},
{
anchors = (
{
name = bottom;
position = "{369, 0}";
},
{
name = center;
position = "{346, 303}";
}
);
layerId = m002;
paths = (
{
closed = 1;
nodes = (
"476 162 OFFCURVE",
"522 238 OFFCURVE",
"522 342 CURVE SMOOTH",
"522 426 OFFCURVE",
"492 444 OFFCURVE",
"253 444 CURVE SMOOTH",
"223 444 OFFCURVE",
"170 369 OFFCURVE",
"170 318 CURVE SMOOTH",
"170 227 OFFCURVE",
"245 162 OFFCURVE",
"361 162 CURVE SMOOTH"
);
},
{
closed = 1;
nodes = (
"50 -129 OFFCURVE",
"31 -96 OFFCURVE",
"31 -55 CURVE SMOOTH",
"31 -13 OFFCURVE",
"66 33 OFFCURVE",
"66 337 CURVE SMOOTH",
"66 401 OFFCURVE",
"112 441 OFFCURVE",
"112 452 CURVE SMOOTH",
"112 465 OFFCURVE",
"60 468 OFFCURVE",
"60 530 CURVE SMOOTH",
"60 586 OFFCURVE",
"78 668 OFFCURVE",
"88 682 CURVE SMOOTH",
"97 694 OFFCURVE",
"121 709 OFFCURVE",
"142 709 CURVE SMOOTH",
"163 709 OFFCURVE",
"163 660 OFFCURVE",
"210 660 CURVE SMOOTH",
"286 660 OFFCURVE",
"375 670 OFFCURVE",
"404 670 CURVE SMOOTH",
"592 670 OFFCURVE",
"623 474 OFFCURVE",
"623 321 CURVE SMOOTH",
"623 81 OFFCURVE",
"498 -32 OFFCURVE",
"340 -32 CURVE SMOOTH",
"273 -32 OFFCURVE",
"200 -3 OFFCURVE",
"164 47 CURVE SMOOTH",
"161 51 OFFCURVE",
"159 54 OFFCURVE",
"157 54 CURVE SMOOTH",
"155 54 OFFCURVE",
"154 52 OFFCURVE",
"154 50 CURVE SMOOTH",
"154 24 OFFCURVE",
"178 -20 OFFCURVE",
"178 -55 CURVE SMOOTH",
"178 -96 OFFCURVE",
"148 -129 OFFCURVE",
"96 -129 CURVE SMOOTH"
);
}
);
width = 664;
}
);
unicode = 05E1;
},
{
color = 5;
glyphname = "ayin-hb";
layers = (
{
anchors = (
{
name = bottom;
position = "{276, 0}";
}
);
layerId = m01;
paths = (
{
closed = 1;
nodes = (
"36 -33 OFFCURVE",
"18 -27 OFFCURVE",
"18 24 CURVE SMOOTH",
"18 48 OFFCURVE",
"36 141 OFFCURVE",
"56 141 CURVE SMOOTH",
"74 141 OFFCURVE",
"91 132 OFFCURVE",
"160 132 CURVE SMOOTH",
"172 132 OFFCURVE",
"178 139 OFFCURVE",
"178 151 CURVE SMOOTH",
"178 250 OFFCURVE",
"166 389 OFFCURVE",
"147 436 CURVE SMOOTH",
"137 461 OFFCURVE",
"76 483 OFFCURVE",
"76 528 CURVE SMOOTH",
"76 555 OFFCURVE",
"103 659 OFFCURVE",
"131 659 CURVE SMOOTH",
"172 659 OFFCURVE",
"242 604 OFFCURVE",
"242 566 CURVE SMOOTH",
"242 531 OFFCURVE",
"212 388 OFFCURVE",
"231 167 CURVE SMOOTH",
"233 146 OFFCURVE",
"239 140 OFFCURVE",
"261 140 CURVE SMOOTH",
"382 140 OFFCURVE",
"482 216 OFFCURVE",
"482 338 CURVE SMOOTH",
"482 417 OFFCURVE",
"427 452 OFFCURVE",
"379 461 CURVE SMOOTH",
"323 471 OFFCURVE",
"299 485 OFFCURVE",
"299 510 CURVE SMOOTH",
"299 548 OFFCURVE",
"347 658 OFFCURVE",
"386 658 CURVE SMOOTH",
"457 658 OFFCURVE",
"537 525 OFFCURVE",
"537 382 CURVE SMOOTH",
"537 121 OFFCURVE",
"384 -33 OFFCURVE",
"81 -33 CURVE SMOOTH"
);
}
);
width = 580;
},
{
anchors = (
{
name = bottom;
position = "{339, 0}";
}
);
layerId = m002;
paths = (
{
closed = 1;
nodes = (
"39 -33 OFFCURVE",
"18 -7 OFFCURVE",
"18 24 CURVE SMOOTH",
"18 138 OFFCURVE",
"27 183 OFFCURVE",
"63 183 CURVE SMOOTH",
"91 183 OFFCURVE",
"123 172 OFFCURVE",
"202 172 CURVE SMOOTH",
"214 172 OFFCURVE",
"220 179 OFFCURVE",
"220 191 CURVE SMOOTH",
"220 290 OFFCURVE",
"190 407 OFFCURVE",
"177 440 CURVE SMOOTH",
"169 460 OFFCURVE",
"76 487 OFFCURVE",
"76 539 CURVE SMOOTH",
"76 616 OFFCURVE",
"119 695 OFFCURVE",
"178 695 CURVE SMOOTH",
"259 695 OFFCURVE",
"322 626 OFFCURVE",
"322 588 CURVE SMOOTH",
"322 553 OFFCURVE",
"295 438 OFFCURVE",
"314 217 CURVE SMOOTH",
"316 196 OFFCURVE",
"323 190 OFFCURVE",
"343 190 CURVE SMOOTH",
"424 190 OFFCURVE",
"565 233 OFFCURVE",
"565 355 CURVE SMOOTH",
"565 440 OFFCURVE",
"484 457 OFFCURVE",
"436 464 CURVE SMOOTH",
"371 473 OFFCURVE",
"351 492 OFFCURVE",
"351 517 CURVE SMOOTH",
"351 555 OFFCURVE",
"405 694 OFFCURVE",
"473 694 CURVE SMOOTH",
"544 694 OFFCURVE",
"663 597 OFFCURVE",
"663 404 CURVE SMOOTH",
"663 53 OFFCURVE",
"407 -33 OFFCURVE",
"74 -33 CURVE SMOOTH"
);
}
);
width = 706;
}
);
unicode = 05E2;
},
{
color = 5;
glyphname = "peFinal-hb";
layers = (
{
anchors = (
{
name = bottom;
position = "{146, 0}";
},
{
name = center;
position = "{285, 338}";
}
);
layerId = m01;
paths = (
{
closed = 1;
nodes = (
"348 -345 OFFCURVE",
"332 -328 OFFCURVE",
"332 -308 CURVE SMOOTH",
"333 -280 OFFCURVE",
"340 71 OFFCURVE",
"340 88 CURVE SMOOTH",
"340 281 OFFCURVE",
"401 344 OFFCURVE",
"401 372 CURVE SMOOTH",
"401 421 OFFCURVE",
"260 493 OFFCURVE",
"176 493 CURVE SMOOTH",
"135 493 OFFCURVE",
"104 436 OFFCURVE",
"104 396 CURVE SMOOTH",
"104 321 OFFCURVE",
"158 287 OFFCURVE",
"226 240 CURVE SMOOTH",
"243 228 OFFCURVE",
"254 196 OFFCURVE",
"254 147 CURVE SMOOTH",
"254 124 OFFCURVE",
"224 112 OFFCURVE",
"179 112 CURVE SMOOTH",
"75 112 OFFCURVE",
"38 212 OFFCURVE",
"38 319 CURVE SMOOTH",
"38 465 OFFCURVE",
"129 640 OFFCURVE",
"244 640 CURVE SMOOTH",
"334 640 OFFCURVE",
"492 566 OFFCURVE",
"492 501 CURVE SMOOTH",
"492 439 OFFCURVE",
"432 310 OFFCURVE",
"432 196 CURVE SMOOTH",
"432 81 OFFCURVE",
"476 -125 OFFCURVE",
"476 -223 CURVE SMOOTH",
"476 -278 OFFCURVE",
"393 -344 OFFCURVE",
"370 -345 CURVE SMOOTH"
);
}
);
width = 541;
},
{
anchors = (
{
name = bottom;
position = "{189, 0}";
},
{
name = center;
position = "{308, 369}";
}
);
layerId = m002;
paths = (
{
closed = 1;
nodes = (
"401 -345 OFFCURVE",
"373 -319 OFFCURVE",
"373 -279 CURVE SMOOTH",
"373 -231 OFFCURVE",
"383 -69 OFFCURVE",
"383 88 CURVE SMOOTH",
"383 311 OFFCURVE",
"444 345 OFFCURVE",
"444 383 CURVE SMOOTH",
"444 432 OFFCURVE",
"303 486 OFFCURVE",
"219 486 CURVE SMOOTH",
"178 486 OFFCURVE",
"150 457 OFFCURVE",
"150 417 CURVE SMOOTH",
"150 362 OFFCURVE",
"200 315 OFFCURVE",
"280 276 CURVE SMOOTH",
"309 262 OFFCURVE",
"324 227 OFFCURVE",
"324 169 CURVE SMOOTH",
"324 123 OFFCURVE",
"257 112 OFFCURVE",
"222 112 CURVE SMOOTH",
"70 112 OFFCURVE",
"38 224 OFFCURVE",
"38 331 CURVE SMOOTH",
"38 547 OFFCURVE",
"172 676 OFFCURVE",
"287 676 CURVE SMOOTH",
"437 676 OFFCURVE",
"576 586 OFFCURVE",
"576 521 CURVE SMOOTH",
"576 459 OFFCURVE",
"517 310 OFFCURVE",
"517 196 CURVE SMOOTH",
"517 121 OFFCURVE",
"561 -95 OFFCURVE",
"561 -213 CURVE SMOOTH",
"561 -268 OFFCURVE",
"469 -345 OFFCURVE",
"436 -345 CURVE SMOOTH"
);
}
);
width = 625;
}
);
unicode = 05E3;
},
{
color = 5;
glyphname = "pe-hb";
layers = (
{
anchors = (
{
name = bottom;
position = "{286, 0}";
},
{
name = center;
position = "{338, 316}";
}
);
layerId = m01;
paths = (
{
closed = 1;
nodes = (
"85 -37 OFFCURVE",
"59 -29 OFFCURVE",
"59 0 CURVE SMOOTH",
"59 106 OFFCURVE",
"79 130 OFFCURVE",
"111 130 CURVE SMOOTH",
"305 130 OFFCURVE",
"475 149 OFFCURVE",
"475 351 CURVE SMOOTH",
"475 450 OFFCURVE",
"389 461 OFFCURVE",
"258 461 CURVE SMOOTH",
"210 461 OFFCURVE",
"167 440 OFFCURVE",
"167 391 CURVE SMOOTH",
"167 365 OFFCURVE",
"216 345 OFFCURVE",
"216 313 CURVE SMOOTH",
"216 289 OFFCURVE",
"175 221 OFFCURVE",
"130 221 CURVE SMOOTH",
"102 221 OFFCURVE",
"59 269 OFFCURVE",
"59 322 CURVE SMOOTH",
"59 381 OFFCURVE",
"131 428 OFFCURVE",
"131 447 CURVE SMOOTH",
"131 470 OFFCURVE",
"64 470 OFFCURVE",
"64 559 CURVE SMOOTH",
"64 586 OFFCURVE",
"79 670 OFFCURVE",
"84 676 CURVE SMOOTH",
"94 688 OFFCURVE",
"114 694 OFFCURVE",
"123 694 CURVE SMOOTH",
"131 694 OFFCURVE",
"134 690 OFFCURVE",
"136 678 CURVE SMOOTH",
"141 642 OFFCURVE",
"180 631 OFFCURVE",
"215 631 CURVE SMOOTH",
"273 631 OFFCURVE",
"356 634 OFFCURVE",
"413 615 CURVE SMOOTH",
"513 584 OFFCURVE",
"531 428 OFFCURVE",
"531 358 CURVE SMOOTH",
"531 126 OFFCURVE",
"390 -37 OFFCURVE",
"116 -37 CURVE SMOOTH"
);
}
);
width = 580;
},
{
anchors = (
{
name = bottom;
position = "{328, 0}";
},
{
name = center;
position = "{384, 313}";
}
);
layerId = m002;
paths = (
{
closed = 1;
nodes = (
"96 -37 OFFCURVE",
"67 -19 OFFCURVE",
"67 10 CURVE SMOOTH",
"67 148 OFFCURVE",
"87 165 OFFCURVE",
"136 165 CURVE SMOOTH",
"372 165 OFFCURVE",
"517 185 OFFCURVE",
"517 351 CURVE SMOOTH",
"517 411 OFFCURVE",
"449 450 OFFCURVE",
"297 450 CURVE SMOOTH",
"262 450 OFFCURVE",
"219 427 OFFCURVE",
"219 391 CURVE SMOOTH",
"219 374 OFFCURVE",
"273 354 OFFCURVE",
"273 313 CURVE SMOOTH",
"273 279 OFFCURVE",
"214 201 OFFCURVE",
"149 201 CURVE SMOOTH",
"111 201 OFFCURVE",
"59 264 OFFCURVE",
"59 322 CURVE SMOOTH",
"59 408 OFFCURVE",
"117 408 OFFCURVE",
"117 438 CURVE SMOOTH",
"117 460 OFFCURVE",
"64 460 OFFCURVE",
"64 544 CURVE SMOOTH",
"64 600 OFFCURVE",
"80 661 OFFCURVE",
"92 678 CURVE SMOOTH",
"101 691 OFFCURVE",
"147 704 OFFCURVE",
"156 704 CURVE SMOOTH",
"164 704 OFFCURVE",
"173 697 OFFCURVE",
"178 678 CURVE SMOOTH",
"188 642 OFFCURVE",
"203 638 OFFCURVE",
"238 638 CURVE SMOOTH",
"466 638 OFFCURVE",
"498 623 OFFCURVE",
"535 592 CURVE SMOOTH",
"604 533 OFFCURVE",
"615 478 OFFCURVE",
"615 358 CURVE SMOOTH",
"615 126 OFFCURVE",
"481 -37 OFFCURVE",
"147 -37 CURVE SMOOTH"
);
}
);
width = 664;
}
);
unicode = 05E4;
},
